<svg width="317" height="317" viewBox="0 0 317 317" fill="none" xmlns="http://www.w3.org/2000/svg">
<path d="M158.5 317C246.037 317 317 246.037 317 158.5C317 70.9629 246.037 0 158.5 0C70.9629 0 0 70.9629 0 158.5C0 246.037 70.9629 317 158.5 317Z" fill="#2C2C2C"/>
<path opacity="0.2" d="M98.27 61.8148C106.354 60.3883 111.112 55.6333 112.535 47.5498C113.962 55.6333 118.72 60.3883 126.8 61.8148C118.72 63.2445 113.962 67.9963 112.535 76.0798C111.112 67.9963 106.354 63.2445 98.27 61.8148Z" fill="white"/>
<path opacity="0.1" d="M225.07 236.165C233.154 234.738 237.912 229.983 239.335 221.9C240.762 229.983 245.52 234.738 253.6 236.165C245.52 237.594 240.762 242.346 239.335 250.43C237.912 242.346 233.154 237.594 225.07 236.165ZM34.8701 204.465C42.9536 203.038 47.7118 198.283 49.1351 190.2C50.5616 198.283 55.3198 203.038 63.4001 204.465C55.3198 205.894 50.5616 210.646 49.1351 218.73C47.7118 210.646 42.9536 205.894 34.8701 204.465Z" fill="white"/>
<path d="M317 0.317C316.505 0.37406 316.629 0.50086 316.683 0C242.771 9.44343 200.854 38.9308 177.092 69.8509C176.252 70.9466 175.425 72.053 174.613 73.1699L174.588 73.2016C149.038 108.401 146.096 145.224 145.82 155.33H142.65L139.48 164.84L152.16 177.52L161.67 174.35V171.18C169.195 171.033 176.691 170.213 184.069 168.73L184.076 168.736C186.386 168.159 187.03 168.977 187.03 180.69V209.22C187.03 214.955 190.019 217.135 193.196 213.956C200.877 206.259 202.715 204.373 220.141 186.922C233.328 173.713 234.964 166.016 229.514 151.865C266.131 131.14 305.689 88.405 317 0.317Z" fill="#E94B35"/>
<path d="M152.16 177.52L139.48 164.84L142.65 155.33H148.99L161.67 168.01V174.35L152.16 177.52ZM164.84 88.76C159.394 86.5727 158.5 85.59 152.16 85.59C145.82 85.59 138.9 89.9646 130.411 98.4697C116.926 111.971 115.036 113.809 103.415 125.44C99.6175 129.244 105.444 129.97 114.12 129.97C130.709 129.97 143.592 129.574 148.328 134.471C154.582 140.938 164.84 88.76 164.84 88.76ZM317 0C314.975 15.7644 312.036 30.3654 308.375 43.3593C305.049 37.1144 300.253 29.5254 294.11 23.477C287.291 16.7566 278.856 11.9636 272.471 8.94257C291.574 3.45847 306.802 1.30604 317 0Z" fill="#C23824"/>
<path opacity="0.3" d="M229.514 151.865C234.963 166.013 233.673 173.383 220.467 186.589C217.792 189.265 195.652 211.502 193.192 213.956C190.013 217.132 187.135 214.955 187.03 209.22V207.153C196.54 197.643 217.744 178.82 221.9 171.18C224.334 166.707 223.016 159.597 221.9 155.33C211.401 160.909 185.394 168.308 184.075 168.736C174.052 170.784 166.32 170.999 161.67 171.18V169.1C161.67 169.1 256.691 138.469 317 0C305.607 88.909 266.131 131.14 229.514 151.865Z" fill="white"/>
<path d="M245.675 88.7598C234.314 88.7598 225.07 79.5161 225.07 68.1548C225.07 56.7935 234.314 47.5498 245.675 47.5498C257.037 47.5498 266.28 56.7935 266.28 68.1548C266.28 79.5161 257.037 88.7598 245.675 88.7598Z" fill="white"/>
<path d="M245.675 50.7199C250.299 50.7199 254.734 52.5568 258.003 55.8265C261.273 59.0962 263.11 63.5308 263.11 68.1549C263.11 72.7789 261.273 77.2136 258.003 80.4833C254.734 83.753 250.299 85.5899 245.675 85.5899C241.051 85.5899 236.616 83.753 233.347 80.4833C230.077 77.2136 228.24 72.7789 228.24 68.1549C228.24 63.5308 230.077 59.0962 233.347 55.8265C236.616 52.5568 241.051 50.7199 245.675 50.7199ZM245.675 44.3799C232.561 44.3799 221.9 55.0438 221.9 68.1549C221.9 81.266 232.561 91.9299 245.675 91.9299C258.789 91.9299 269.45 81.266 269.45 68.1549C269.45 55.0438 258.789 44.3799 245.675 44.3799Z" fill="#C23824"/>
<path d="M139.48 164.84L152.16 177.52L41.2099 291.64L22.1899 272.62L139.48 164.84Z" fill="#D7DCDE"/>
<path d="M139.084 164.84L145.424 171.18L23.7751 290.055L14.2651 280.545L139.084 164.84Z" fill="#F7F7F7"/>
</svg>
