<svg viewBox="0 0 113 113" fill="none" xmlns="http://www.w3.org/2000/svg">
<circle cx="56.5" cy="56.5" r="56.5" fill="#FF0000"/>
<path d="M61.8786 31.0909L60.9091 66.7372H51.8111L50.8168 31.0909H61.8786ZM56.3601 82.6463C54.7195 82.6463 53.3108 82.0663 52.1342 80.9062C50.9576 79.7296 50.3776 78.321 50.3942 76.6804C50.3776 75.0563 50.9576 73.6643 52.1342 72.5043C53.3108 71.3442 54.7195 70.7642 56.3601 70.7642C57.9344 70.7642 59.3182 71.3442 60.5114 72.5043C61.7045 73.6643 62.3094 75.0563 62.326 76.6804C62.3094 77.7741 62.0194 78.7768 61.456 79.6882C60.9091 80.5831 60.1882 81.304 59.2933 81.8509C58.3984 82.3812 57.4207 82.6463 56.3601 82.6463Z" fill="white"/>
</svg>
