<?xml version="1.0" encoding="UTF-8"?>
<svg fill="none" viewBox="0 0 655 685" xmlns="http://www.w3.org/2000/svg">
<rect x="158" y="515" width="374" height="170" fill="#fff"/>
<path d="m103.42 91.561c-0.795-0.2341-1.629 0.2204-1.863 1.0151-0.234 0.7946 0.22 1.6286 1.015 1.8627l0.848-2.8778zm9.083 5.8216c0.794 0.2368 1.629-0.2148 1.866-1.0086 0.237-0.7939-0.215-1.6294-1.009-1.8662l-0.857 2.8748zm20.427 3.0373c-0.792-0.242-1.631 0.204-1.874 0.996-0.242 0.792 0.204 1.631 0.996 1.873l0.878-2.869zm18.257 8.799c0.791 0.249 1.633-0.191 1.881-0.982 0.248-0.79-0.192-1.632-0.982-1.88l-0.899 2.862zm19.644 3.098c-0.788-0.254-1.633 0.179-1.887 0.968-0.254 0.788 0.179 1.634 0.968 1.887l0.919-2.855zm17.525 8.872c0.787 0.26 1.635-0.167 1.895-0.953 0.26-0.787-0.167-1.635-0.953-1.895l-0.942 2.848zm20.492 3.704c-0.784-0.267-1.636 0.153-1.903 0.937-0.266 0.785 0.154 1.637 0.938 1.903l0.965-2.84zm18.083 9.407c0.782 0.274 1.637-0.139 1.911-0.921 0.273-0.782-0.139-1.637-0.921-1.911l-0.99 2.832zm19.588 3.765c-0.779-0.281-1.639 0.124-1.919 0.903-0.281 0.78 0.124 1.639 0.903 1.919l1.016-2.822zm17.128 9.445c0.777 0.288 1.64-0.109 1.928-0.886s-0.109-1.64-0.886-1.927l-1.042 2.813zm20.375 4.46c-0.774-0.296-1.641 0.091-1.937 0.865-0.295 0.774 0.092 1.641 0.866 1.937l1.071-2.802zm17.675 10.083c0.771 0.304 1.642-0.074 1.946-0.845 0.305-0.77-0.074-1.642-0.844-1.946l-1.102 2.791zm19.327 4.519c-0.767-0.313-1.642 0.056-1.955 0.823s0.056 1.643 0.823 1.955l1.132-2.778zm17.092 10.333c0.763 0.322 1.643-0.036 1.965-0.799 0.321-0.763-0.036-1.643-0.8-1.965l-1.165 2.764zm19.988 5.319c-0.759-0.332-1.643 0.014-1.975 0.773s0.014 1.643 0.773 1.975l1.202-2.748zm16.934 10.827c0.754 0.343 1.643 9e-3 1.986-0.746 0.342-0.754 8e-3 -1.643-0.746-1.985l-1.24 2.731zm18.77 5.375c-0.75-0.353-1.643-0.032-1.996 0.717-0.354 0.75-0.032 1.643 0.717 1.997l1.279-2.714zm17.284 11.646c0.743 0.366 1.642 0.06 2.008-0.684 0.365-0.743 0.059-1.642-0.685-2.008l-1.323 2.692zm19.213 6.293c-0.737-0.378-1.641-0.087-2.019 0.65-0.379 0.737-0.088 1.641 0.649 2.019l1.37-2.669zm15.71 11.63c0.73 0.392 1.639 0.118 2.031-0.612 0.391-0.73 0.117-1.64-0.613-2.031l-1.418 2.643zm19.475 7.288c-0.721-0.407-1.636-0.152-2.043 0.569-0.407 0.722-0.152 1.637 0.57 2.044l1.473-2.613zm15.723 12.565c0.713 0.423 1.633 0.189 2.056-0.523 0.423-0.713 0.189-1.633-0.523-2.056l-1.533 2.579zm18.277 7.642c-0.702-0.44-1.628-0.228-2.068 0.473-0.441 0.702-0.229 1.628 0.473 2.068l1.595-2.541zm15.53 13.625c0.689 0.46 1.62 0.274 2.08-0.415 0.46-0.688 0.275-1.62-0.414-2.08l-1.666 2.495zm17.762 8.605c-0.675-0.481-1.612-0.324-2.092 0.351-0.481 0.674-0.324 1.611 0.351 2.092l1.741-2.443zm14.56 14.495c0.657 0.505 1.599 0.381 2.104-0.276 0.504-0.657 0.38-1.598-0.277-2.103l-1.827 2.379zm17.31 9.994c-0.637-0.531-1.583-0.444-2.113 0.192-0.53 0.637-0.444 1.583 0.193 2.113l1.92-2.305zm13.173 15.464c0.611 0.559 1.56 0.516 2.119-0.095s0.517-1.56-0.094-2.119l-2.025 2.214zm16.334 11.568c-0.581-0.59-1.531-0.598-2.121-0.018-0.591 0.581-0.599 1.531-0.019 2.122l2.14-2.104zm11.468 16.831c0.542 0.627 1.49 0.695 2.116 0.153 0.627-0.542 0.695-1.489 0.153-2.116l-2.269 1.963zm14.564 13.32c-0.494-0.664-1.434-0.802-2.099-0.308-0.664 0.495-0.802 1.434-0.308 2.099l2.407-1.791zm8.919 18.523c0.431 0.708 1.354 0.932 2.061 0.501 0.708-0.432 0.932-1.355 0.5-2.062l-2.561 1.561zm12.08 16.096c-0.352-0.751-1.245-1.074-1.995-0.723-0.75 0.352-1.074 1.245-0.722 1.995l2.717-1.272zm4.434 19.462c0.25 0.79 1.093 1.227 1.883 0.976 0.79-0.25 1.227-1.093 0.976-1.883l-2.859 0.907zm7.485 18.761c-0.125-0.819-0.89-1.381-1.709-1.257-0.819 0.125-1.382 0.89-1.257 1.709l2.966-0.452zm-1.706 20.13c-0.021 0.828 0.633 1.517 1.461 1.538s1.517-0.633 1.538-1.461l-2.999-0.077zm0.619 20.115c0.173-0.81-0.343-1.608-1.153-1.781-0.81-0.174-1.607 0.342-1.781 1.152l2.934 0.629zm-8.769 18.096c-0.316 0.766 0.049 1.643 0.815 1.959 0.766 0.315 1.643-0.05 1.959-0.815l-2.774-1.144zm-6.425 19.071c0.436-0.705 0.218-1.629-0.487-2.065-0.705-0.435-1.629-0.217-2.065 0.487l2.552 1.578zm-14.128 14.432c-0.531 0.636-0.444 1.582 0.192 2.112 0.637 0.531 1.582 0.444 2.113-0.192l-2.305-1.92zm-11.587 16.656c0.603-0.569 0.63-1.518 0.061-2.12-0.569-0.603-1.519-0.63-2.121-0.061l2.06 2.181zm-17.06 10.607c-0.656 0.507-0.777 1.449-0.27 2.104 0.506 0.656 1.448 0.777 2.104 0.27l-1.834-2.374zm-14.509 13.907c0.696-0.449 0.896-1.378 0.446-2.074-0.449-0.696-1.378-0.895-2.073-0.446l1.627 2.52zm-18.768 7.667c-0.727 0.397-0.994 1.309-0.596 2.036 0.398 0.726 1.309 0.993 2.036 0.595l-1.44-2.631zm-16.505 11.71c0.75-0.351 1.074-1.244 0.723-1.995-0.351-0.75-1.243-1.074-1.994-0.723l1.271 2.718zm-19.395 5.141c-0.769 0.309-1.142 1.183-0.833 1.951 0.309 0.769 1.182 1.142 1.951 0.833l-1.118-2.784zm-17.809 9.831c0.783-0.27 1.199-1.123 0.93-1.907-0.27-0.783-1.124-1.199-1.907-0.929l0.977 2.836zm-19.829 3.18c-0.795 0.234-1.249 1.068-1.015 1.863 0.234 0.794 1.069 1.249 1.863 1.014l-0.848-2.877zm-18.503 8.145c0.803-0.202 1.292-1.016 1.09-1.82-0.201-0.803-1.015-1.292-1.819-1.091l0.729 2.911zm-20.172 1.557c-0.811 0.17-1.33 0.965-1.16 1.776s0.965 1.33 1.776 1.16l-0.616-2.936zm-18.989 6.682c0.816-0.141 1.364-0.917 1.223-1.734-0.141-0.816-0.917-1.363-1.734-1.222l0.511 2.956zm-20.297 0.115c-0.821 0.113-1.394 0.87-1.281 1.691s0.87 1.394 1.691 1.281l-0.41-2.972zm-19.355 5.377c0.824-0.087 1.421-0.825 1.334-1.649s-0.826-1.421-1.65-1.334l0.316 2.983zm-20.275-1.186c-0.826 0.062-1.446 0.782-1.384 1.608s0.781 1.446 1.607 1.384l-0.223-2.992zm-19.645 4.182c0.827-0.038 1.468-0.739 1.43-1.567-0.037-0.827-0.738-1.468-1.566-1.43l0.136 2.997zm-20.148-2.378c-0.829 0.014-1.489 0.696-1.475 1.525 0.014 0.828 0.696 1.488 1.525 1.474l-0.05-2.999zm-19.879 3.058c0.828 9e-3 1.507-0.656 1.516-1.484 9e-3 -0.829-0.656-1.507-1.484-1.516l-0.032 3zm-19.946-3.485c-0.828-0.031-1.524 0.614-1.556 1.442-0.031 0.828 0.615 1.524 1.443 1.556l0.113-2.998zm-20.062 1.982c0.826 0.053 1.539-0.574 1.592-1.401s-0.574-1.54-1.401-1.593l-0.191 2.994zm-19.686-4.525c-0.825-0.075-1.554 0.534-1.628 1.359-0.075 0.825 0.534 1.554 1.359 1.628l0.269-2.987zm-20.198 0.937c0.823 0.095 1.567-0.495 1.662-1.318 0.096-0.823-0.494-1.567-1.317-1.663l-0.345 2.981zm-19.377-5.515c-0.82-0.116-1.579 0.455-1.695 1.276-0.116 0.82 0.455 1.579 1.275 1.695l0.42-2.971zm-20.287-0.089c0.817 0.136 1.59-0.416 1.726-1.233 0.137-0.817-0.415-1.59-1.232-1.726l-0.494 2.959zm-19.025-6.462c-0.814-0.157-1.6 0.376-1.756 1.19-0.157 0.813 0.376 1.599 1.19 1.756l0.566-2.946zm-20.268-1.093c0.809 0.177 1.608-0.336 1.785-1.146 0.176-0.809-0.337-1.608-1.147-1.785l-0.638 2.931zm-18.694-7.389c-0.805-0.196-1.616 0.298-1.812 1.103-0.196 0.804 0.298 1.616 1.103 1.812l0.709-2.915zm-20.119-2.062c0.8 0.215 1.623-0.258 1.838-1.058 0.216-0.8-0.258-1.623-1.058-1.839l-0.78 2.897zm-9.741-506.19c3.328 0.9802 6.638 1.9614 9.931 2.9438l0.857-2.8748c-3.296-0.9833-6.609-1.9656-9.94-2.9468l-0.848 2.8778zm29.48 8.8501c6.447 1.973 12.825 3.95 19.135 5.93l0.899-2.862c-6.317-1.983-12.702-3.962-19.156-5.937l-0.878 2.869zm37.86 11.883c6.217 2.003 12.365 4.008 18.444 6.017l0.942-2.848c-6.087-2.012-12.242-4.02-18.467-6.024l-0.919 2.855zm37.971 12.561c6.429 2.186 12.778 4.375 19.048 6.567l0.99-2.832c-6.278-2.195-12.636-4.387-19.073-6.575l-0.965 2.84zm37.62 13.154c6.127 2.205 12.175 4.412 18.144 6.623l1.042-2.813c-5.978-2.214-12.035-4.425-18.17-6.632l-1.016 2.822zm37.448 13.885c6.341 2.424 12.59 4.851 18.746 7.281l1.102-2.791c-6.167-2.434-12.426-4.865-18.777-7.292l-1.071 2.802zm36.941 14.578c6.172 2.516 12.246 5.035 18.224 7.555l1.165-2.764c-5.989-2.525-12.074-5.048-18.257-7.569l-1.132 2.778zm37.01 15.622c6.154 2.692 12.198 5.385 18.136 8.079l1.24-2.731c-5.951-2.701-12.008-5.4-18.174-8.096l-1.202 2.748zm35.627 16.168c6.317 2.976 12.504 5.954 18.563 8.932l1.323-2.692c-6.074-2.986-12.276-5.971-18.607-8.954l-1.279 2.714zm36.406 17.894c5.82 2.987 11.513 5.975 17.08 8.961l1.418-2.643c-5.583-2.996-11.292-5.991-17.128-8.987l-1.37 2.669zm35.082 18.862c5.885 3.319 11.616 6.637 17.196 9.952l1.533-2.579c-5.6-3.327-11.351-6.656-17.256-9.986l-1.473 2.613zm33.878 20.135c5.894 3.7 11.601 7.395 17.125 11.084l1.666-2.495c-5.548-3.705-11.279-7.416-17.196-11.13l-1.595 2.541zm33.146 22.132c5.65 4.027 11.082 8.045 16.301 12.052l1.827-2.379c-5.248-4.03-10.709-8.07-16.387-12.116l-1.741 2.443zm31.691 24.351c5.285 4.402 10.315 8.789 15.093 13.159l2.025-2.214c-4.814-4.403-9.879-8.82-15.198-13.25l-1.92 2.305zm29.287 26.831c4.853 4.935 9.386 9.846 13.608 14.727l2.269-1.963c-4.266-4.932-8.842-9.889-13.737-14.868l-2.14 2.104zm25.765 29.838c4.185 5.624 7.955 11.203 11.326 16.732l2.561-1.561c-3.421-5.612-7.244-11.268-11.48-16.962l-2.407 1.791zm20.689 34.1c2.874 6.137 5.251 12.203 7.151 18.19l2.859-0.907c-1.941-6.118-4.367-12.306-7.293-18.555l-2.717 1.272zm11.67 37.403c1.015 6.674 1.426 13.237 1.26 19.678l2.999 0.077c0.17-6.621-0.252-13.361-1.293-20.207l-2.966 0.452zm-1.055 39.164c-1.367 6.382-3.321 12.628-5.835 18.725l2.774 1.144c2.58-6.26 4.588-12.677 5.995-19.24l-2.934-0.629zm-14.812 36.218c-3.389 5.482-7.255 10.822-11.576 16.01l2.305 1.92c4.406-5.29 8.355-10.744 11.823-16.352l-2.552-1.578zm-25.223 30.485c-4.655 4.398-9.661 8.664-15 12.788l1.834 2.374c5.413-4.181 10.495-8.511 15.226-12.981l-2.06-2.181zm-31.136 24.175c-5.453 3.523-11.171 6.92-17.141 10.187l1.44 2.631c6.03-3.299 11.811-6.734 17.328-10.298l-1.627-2.52zm-34.917 19.179c-5.848 2.735-11.893 5.356-18.124 7.859l1.118 2.784c6.281-2.523 12.377-5.167 18.277-7.925l-1.271-2.718zm-36.91 14.854c-6.134 2.112-12.421 4.119-18.852 6.016l0.848 2.877c6.474-1.909 12.803-3.929 18.981-6.057l-0.977-2.836zm-38.084 11.25c-6.36 1.593-12.844 3.083-19.443 4.468l0.616 2.936c6.636-1.393 13.157-2.892 19.556-4.493l-0.729-2.911zm-38.943 8.194c-6.498 1.123-13.096 2.147-19.786 3.071l0.41 2.972c6.724-0.928 13.355-1.958 19.887-3.087l-0.511-2.956zm-39.457 5.465c-6.575 0.695-13.23 1.295-19.959 1.797l0.223 2.992c6.76-0.505 13.446-1.107 20.052-1.806l-0.316-2.983zm-39.74 2.982c-6.608 0.299-13.281 0.506-20.012 0.619l0.05 2.999c6.76-0.113 13.461-0.321 20.098-0.621l-0.136-2.997zm-39.859 0.677c-6.61-0.071-13.271-0.232-19.978-0.485l-0.113 2.998c6.734 0.254 13.422 0.415 20.059 0.487l0.032-3zm-39.849-1.497c-6.587-0.422-13.214-0.932-19.877-1.531l-0.269 2.987c6.689 0.603 13.341 1.115 19.955 1.538l0.191-2.994zm-39.73-3.575c-6.545-0.757-13.12-1.601-19.722-2.534l-0.42 2.971c6.627 0.936 13.227 1.783 19.797 2.544l0.345-2.981zm-39.515-5.582c-6.486-1.082-12.994-2.249-19.519-3.503l-0.566 2.946c6.55 1.258 13.081 2.43 19.591 3.516l0.494-2.959zm-39.149-7.527c-6.43-1.401-12.875-2.886-19.332-4.458l-0.709 2.915c6.48 1.577 12.948 3.068 19.403 4.474l0.638-2.931zm-38.671-9.417c-3.228-0.87-6.457-1.761-9.689-2.674l-0.816 2.886c3.243 0.917 6.485 1.812 9.725 2.685l0.78-2.897z" fill="#F3F3F3"/>
<rect x="158" y="82" width="374" height="472" fill="#fff"/>
<path d="m438 471c0-2.209 1.791-4 4-4h58c2.209 0 4 1.791 4 4v110c0 2.209-1.791 4-4 4h-58c-2.209 0-4-1.791-4-4v-110z" fill="#F0A8A9"/>
<rect x="166" y="90" width="359" height="181" fill="#E2DAD2"/>
<rect x="186" y="386" width="318" height="68" rx="3" fill="#F2F2F2"/>
<rect x="187" y="467" width="239" height="118" rx="3" fill="#F2F2F2"/>
<rect x="199" y="101" width="365" height="22" fill="#FFFEFF"/>
<path d="m492 112c0-3.314 2.686-6 6-6h54c3.314 0 6 2.686 6 6s-2.686 6-6 6h-54c-3.314 0-6-2.686-6-6z" fill="#F0A8A9"/>
<rect x="204" y="106" width="139" height="12" fill="#CDBEAF"/>
<rect x="187" y="324.38" width="76.396" height="42.615" rx="2" stroke="#ECECEC" stroke-width="2"/>
<rect x="193.01" y="339.32" width="65.011" height="5.0989" rx="1" fill="#F2F2F2"/>
<rect x="193.01" y="346.97" width="59.912" height="5.0989" rx="1" fill="#F2F2F2"/>
<rect x="193.01" y="353.98" width="54.813" height="5.0989" rx="1" fill="#F2F2F2"/>
<g filter="url(#c)">
<circle cx="225.2" cy="322.43" r="12.429" fill="#D9D9D9"/>
</g>
<rect x="307" y="324.38" width="76.396" height="42.615" rx="2" stroke="#ECECEC" stroke-width="2"/>
<rect x="313.01" y="339.32" width="65.011" height="5.0989" rx="1" fill="#F2F2F2"/>
<rect x="313.01" y="346.97" width="59.912" height="5.0989" rx="1" fill="#F2F2F2"/>
<rect x="313.01" y="353.98" width="54.813" height="5.0989" rx="1" fill="#F2F2F2"/>
<g filter="url(#b)">
<circle cx="345.2" cy="322.43" r="12.429" fill="#D9D9D9"/>
</g>
<rect x="427" y="324.38" width="76.396" height="42.615" rx="2" stroke="#ECECEC" stroke-width="2"/>
<rect x="433.01" y="339.32" width="65.011" height="5.0989" rx="1" fill="#F2F2F2"/>
<rect x="433.01" y="346.97" width="59.912" height="5.0989" rx="1" fill="#F2F2F2"/>
<rect x="433.01" y="353.98" width="54.813" height="5.0989" rx="1" fill="#F2F2F2"/>
<g filter="url(#a)">
<circle cx="465.2" cy="322.43" r="12.429" fill="#D9D9D9"/>
</g>
<rect x="199" y="142" width="130" height="13" fill="#D6CCC2"/>
<rect x="199" y="168" width="144" height="28" fill="#DCD3CA"/>
<path d="m65.166 71.207-22.456 28.343c-0.8736 1.1025-2.557 1.0695-3.3864-0.0665l-38.84-53.197 64.682 24.92z" fill="#F3F3F3"/>
<path d="m83.394 60.231 23.465-6.5206c0.729-0.2029 0.615-1.2701-0.141-1.3134l-106.23-6.1104 82.91 13.944z" fill="#F3F3F3"/>
<path d="m79.264 85.781-78.78-39.495 64.682 24.921 14.098 14.574z" fill="#D6D6D6"/>
<path d="m83.394 60.231-4.1301 25.551-14.098-14.574-64.682-24.921 82.91 13.944z" fill="#fff"/>
<defs>
<filter id="c" x="208.77" y="308" width="32.857" height="32.857" color-interpolation-filters="sRGB" filterUnits="userSpaceOnUse">
<feFlood flood-opacity="0" result="BackgroundImageFix"/>
<feColorMatrix in="SourceAlpha" result="hardAlpha" values="0 0 0 0 0 0 0 0 0 0 0 0 0 0 0 0 0 0 127 0"/>
<feOffset dy="2"/>
<feGaussianBlur stdDeviation="2"/>
<feComposite in2="hardAlpha" operator="out"/>
<feColorMatrix values="0 0 0 0 0 0 0 0 0 0 0 0 0 0 0 0 0 0 0.1 0"/>
<feBlend in2="BackgroundImageFix" result="effect1_dropShadow_484_194"/>
<feBlend in="SourceGraphic" in2="effect1_dropShadow_484_194" result="shape"/>
</filter>
<filter id="b" x="328.77" y="308" width="32.857" height="32.857" color-interpolation-filters="sRGB" filterUnits="userSpaceOnUse">
<feFlood flood-opacity="0" result="BackgroundImageFix"/>
<feColorMatrix in="SourceAlpha" result="hardAlpha" values="0 0 0 0 0 0 0 0 0 0 0 0 0 0 0 0 0 0 127 0"/>
<feOffset dy="2"/>
<feGaussianBlur stdDeviation="2"/>
<feComposite in2="hardAlpha" operator="out"/>
<feColorMatrix values="0 0 0 0 0 0 0 0 0 0 0 0 0 0 0 0 0 0 0.1 0"/>
<feBlend in2="BackgroundImageFix" result="effect1_dropShadow_484_194"/>
<feBlend in="SourceGraphic" in2="effect1_dropShadow_484_194" result="shape"/>
</filter>
<filter id="a" x="448.77" y="308" width="32.857" height="32.857" color-interpolation-filters="sRGB" filterUnits="userSpaceOnUse">
<feFlood flood-opacity="0" result="BackgroundImageFix"/>
<feColorMatrix in="SourceAlpha" result="hardAlpha" values="0 0 0 0 0 0 0 0 0 0 0 0 0 0 0 0 0 0 127 0"/>
<feOffset dy="2"/>
<feGaussianBlur stdDeviation="2"/>
<feComposite in2="hardAlpha" operator="out"/>
<feColorMatrix values="0 0 0 0 0 0 0 0 0 0 0 0 0 0 0 0 0 0 0.1 0"/>
<feBlend in2="BackgroundImageFix" result="effect1_dropShadow_484_194"/>
<feBlend in="SourceGraphic" in2="effect1_dropShadow_484_194" result="shape"/>
</filter>
</defs>
</svg>