<svg width="655" height="685" viewBox="0 0 655 685" fill="none" xmlns="http://www.w3.org/2000/svg">
<rect x="158" y="515" width="374" height="170" fill="white"/>
<path d="M103.424 91.5611C102.629 91.327 101.795 91.7815 101.561 92.5762C101.327 93.3708 101.781 94.2048 102.576 94.4389L103.424 91.5611ZM112.507 97.3827C113.301 97.6195 114.136 97.1679 114.373 96.3741C114.61 95.5802 114.158 94.7447 113.364 94.5079L112.507 97.3827ZM132.934 100.42C132.142 100.178 131.303 100.624 131.06 101.416C130.818 102.208 131.264 103.047 132.056 103.289L132.934 100.42ZM151.191 109.219C151.982 109.468 152.824 109.028 153.072 108.237C153.32 107.447 152.88 106.605 152.09 106.357L151.191 109.219ZM170.835 112.317C170.047 112.063 169.202 112.496 168.948 113.285C168.694 114.073 169.127 114.919 169.916 115.172L170.835 112.317ZM188.36 121.189C189.147 121.449 189.995 121.022 190.255 120.236C190.515 119.449 190.088 118.601 189.302 118.341L188.36 121.189ZM208.852 124.893C208.068 124.626 207.216 125.046 206.949 125.83C206.683 126.615 207.103 127.467 207.887 127.733L208.852 124.893ZM226.935 134.3C227.717 134.574 228.572 134.161 228.846 133.379C229.119 132.597 228.707 131.742 227.925 131.468L226.935 134.3ZM246.523 138.065C245.744 137.784 244.884 138.189 244.604 138.968C244.323 139.748 244.728 140.607 245.507 140.887L246.523 138.065ZM263.651 147.51C264.428 147.798 265.291 147.401 265.579 146.624C265.867 145.847 265.47 144.984 264.693 144.697L263.651 147.51ZM284.026 151.97C283.252 151.674 282.385 152.061 282.089 152.835C281.794 153.609 282.181 154.476 282.955 154.772L284.026 151.97ZM301.701 162.053C302.472 162.357 303.343 161.979 303.647 161.208C303.952 160.438 303.573 159.566 302.803 159.262L301.701 162.053ZM321.028 166.572C320.261 166.259 319.386 166.628 319.073 167.395C318.76 168.162 319.129 169.038 319.896 169.35L321.028 166.572ZM338.12 176.905C338.883 177.227 339.763 176.869 340.085 176.106C340.406 175.343 340.049 174.463 339.285 174.141L338.12 176.905ZM358.108 182.224C357.349 181.892 356.465 182.238 356.133 182.997C355.801 183.756 356.147 184.64 356.906 184.972L358.108 182.224ZM375.042 193.051C375.796 193.394 376.685 193.06 377.028 192.305C377.37 191.551 377.036 190.662 376.282 190.32L375.042 193.051ZM393.812 198.426C393.062 198.073 392.169 198.394 391.816 199.143C391.462 199.893 391.784 200.786 392.533 201.14L393.812 198.426ZM411.096 210.072C411.839 210.438 412.738 210.132 413.104 209.388C413.469 208.645 413.163 207.746 412.419 207.38L411.096 210.072ZM430.309 216.365C429.572 215.987 428.668 216.278 428.29 217.015C427.911 217.752 428.202 218.656 428.939 219.034L430.309 216.365ZM446.019 227.995C446.749 228.387 447.658 228.113 448.05 227.383C448.441 226.653 448.167 225.743 447.437 225.352L446.019 227.995ZM465.494 235.283C464.773 234.876 463.858 235.131 463.451 235.852C463.044 236.574 463.299 237.489 464.021 237.896L465.494 235.283ZM481.217 247.848C481.93 248.271 482.85 248.037 483.273 247.325C483.696 246.612 483.462 245.692 482.75 245.269L481.217 247.848ZM499.494 255.49C498.792 255.05 497.866 255.262 497.426 255.963C496.985 256.665 497.197 257.591 497.899 258.031L499.494 255.49ZM515.024 269.115C515.713 269.575 516.644 269.389 517.104 268.7C517.564 268.012 517.379 267.08 516.69 266.62L515.024 269.115ZM532.786 277.72C532.111 277.239 531.174 277.396 530.694 278.071C530.213 278.745 530.37 279.682 531.044 280.163L532.786 277.72ZM547.346 292.215C548.003 292.72 548.945 292.596 549.45 291.939C549.954 291.282 549.831 290.34 549.173 289.836L547.346 292.215ZM564.656 302.209C564.019 301.678 563.073 301.765 562.543 302.401C562.013 303.038 562.099 303.984 562.736 304.514L564.656 302.209ZM577.829 317.673C578.44 318.232 579.389 318.189 579.948 317.578C580.507 316.967 580.465 316.018 579.854 315.459L577.829 317.673ZM594.163 329.241C593.582 328.651 592.632 328.643 592.042 329.223C591.451 329.804 591.443 330.754 592.023 331.345L594.163 329.241ZM605.631 346.072C606.173 346.699 607.121 346.767 607.747 346.225C608.374 345.683 608.442 344.736 607.9 344.109L605.631 346.072ZM620.195 359.392C619.701 358.728 618.761 358.59 618.096 359.084C617.432 359.579 617.294 360.518 617.788 361.183L620.195 359.392ZM629.114 377.915C629.545 378.623 630.468 378.847 631.175 378.416C631.883 377.984 632.107 377.061 631.675 376.354L629.114 377.915ZM641.194 394.011C640.842 393.26 639.949 392.937 639.199 393.288C638.449 393.64 638.125 394.533 638.477 395.283L641.194 394.011ZM645.628 413.473C645.878 414.263 646.721 414.7 647.511 414.449C648.301 414.199 648.738 413.356 648.487 412.566L645.628 413.473ZM653.113 432.234C652.988 431.415 652.223 430.853 651.404 430.977C650.585 431.102 650.022 431.867 650.147 432.686L653.113 432.234ZM651.407 452.364C651.386 453.192 652.04 453.881 652.868 453.902C653.696 453.923 654.385 453.269 654.406 452.441L651.407 452.364ZM652.026 472.479C652.199 471.669 651.683 470.871 650.873 470.698C650.063 470.524 649.266 471.04 649.092 471.85L652.026 472.479ZM643.257 490.575C642.941 491.341 643.306 492.218 644.072 492.534C644.838 492.849 645.715 492.484 646.031 491.719L643.257 490.575ZM636.832 509.646C637.268 508.941 637.05 508.017 636.345 507.581C635.64 507.146 634.716 507.364 634.28 508.068L636.832 509.646ZM622.704 524.078C622.173 524.714 622.26 525.66 622.896 526.19C623.533 526.721 624.479 526.634 625.009 525.998L622.704 524.078ZM611.117 540.734C611.72 540.165 611.747 539.216 611.178 538.614C610.609 538.011 609.659 537.984 609.057 538.553L611.117 540.734ZM594.057 551.341C593.401 551.848 593.28 552.79 593.787 553.445C594.293 554.101 595.235 554.222 595.891 553.715L594.057 551.341ZM579.548 565.248C580.244 564.799 580.444 563.87 579.994 563.174C579.545 562.478 578.616 562.279 577.921 562.728L579.548 565.248ZM560.78 572.915C560.053 573.312 559.786 574.224 560.184 574.951C560.582 575.677 561.493 575.944 562.22 575.546L560.78 572.915ZM544.275 584.625C545.025 584.274 545.349 583.381 544.998 582.63C544.647 581.88 543.755 581.556 543.004 581.907L544.275 584.625ZM524.88 589.766C524.111 590.075 523.738 590.949 524.047 591.717C524.356 592.486 525.229 592.859 525.998 592.55L524.88 589.766ZM507.071 599.597C507.854 599.327 508.27 598.474 508.001 597.69C507.731 596.907 506.877 596.491 506.094 596.761L507.071 599.597ZM487.242 602.777C486.447 603.011 485.993 603.845 486.227 604.64C486.461 605.434 487.296 605.889 488.09 605.654L487.242 602.777ZM468.739 610.922C469.542 610.72 470.031 609.906 469.829 609.102C469.628 608.299 468.814 607.81 468.01 608.011L468.739 610.922ZM448.567 612.479C447.756 612.649 447.237 613.444 447.407 614.255C447.577 615.066 448.372 615.585 449.183 615.415L448.567 612.479ZM429.578 619.161C430.394 619.02 430.942 618.244 430.801 617.427C430.66 616.611 429.884 616.064 429.067 616.205L429.578 619.161ZM409.281 619.276C408.46 619.389 407.887 620.146 408 620.967C408.113 621.788 408.87 622.361 409.691 622.248L409.281 619.276ZM389.926 624.654C390.75 624.566 391.347 623.828 391.26 623.004C391.173 622.18 390.434 621.583 389.61 621.67L389.926 624.654ZM369.651 623.467C368.825 623.529 368.205 624.249 368.267 625.075C368.329 625.901 369.048 626.521 369.874 626.459L369.651 623.467ZM350.006 627.649C350.833 627.611 351.474 626.91 351.436 626.082C351.399 625.255 350.698 624.614 349.87 624.652L350.006 627.649ZM329.858 625.271C329.029 625.285 328.369 625.967 328.383 626.796C328.397 627.624 329.079 628.284 329.908 628.27L329.858 625.271ZM309.979 628.329C310.807 628.338 311.486 627.673 311.495 626.845C311.504 626.016 310.839 625.338 310.011 625.329L309.979 628.329ZM290.033 624.844C289.205 624.813 288.509 625.458 288.477 626.286C288.446 627.114 289.092 627.81 289.92 627.842L290.033 624.844ZM269.971 626.826C270.797 626.879 271.51 626.252 271.563 625.425C271.616 624.598 270.989 623.885 270.162 623.832L269.971 626.826ZM250.285 622.301C249.46 622.226 248.731 622.835 248.657 623.66C248.582 624.485 249.191 625.214 250.016 625.288L250.285 622.301ZM230.087 623.238C230.91 623.333 231.654 622.743 231.749 621.92C231.844 621.097 231.255 620.353 230.432 620.258L230.087 623.238ZM210.71 617.723C209.89 617.607 209.131 618.178 209.015 618.999C208.899 619.819 209.47 620.578 210.29 620.694L210.71 617.723ZM190.423 617.634C191.24 617.77 192.013 617.218 192.149 616.401C192.286 615.584 191.734 614.811 190.917 614.675L190.423 617.634ZM171.398 611.172C170.584 611.015 169.798 611.548 169.642 612.362C169.485 613.175 170.018 613.961 170.832 614.118L171.398 611.172ZM151.13 610.079C151.939 610.256 152.738 609.743 152.915 608.933C153.091 608.124 152.578 607.325 151.768 607.148L151.13 610.079ZM132.436 602.69C131.631 602.494 130.82 602.988 130.624 603.793C130.428 604.598 130.922 605.409 131.727 605.605L132.436 602.69ZM112.317 600.628C113.117 600.843 113.94 600.37 114.155 599.57C114.371 598.77 113.897 597.947 113.097 597.731L112.317 600.628ZM102.576 94.4389C105.904 95.4191 109.214 96.4003 112.507 97.3827L113.364 94.5079C110.068 93.5246 106.755 92.5423 103.424 91.5611L102.576 94.4389ZM132.056 103.289C138.503 105.262 144.881 107.239 151.191 109.219L152.09 106.357C145.773 104.374 139.388 102.395 132.934 100.42L132.056 103.289ZM169.916 115.172C176.133 117.175 182.281 119.18 188.36 121.189L189.302 118.341C183.215 116.329 177.06 114.321 170.835 112.317L169.916 115.172ZM207.887 127.733C214.316 129.919 220.665 132.108 226.935 134.3L227.925 131.468C221.647 129.273 215.289 127.081 208.852 124.893L207.887 127.733ZM245.507 140.887C251.634 143.092 257.682 145.299 263.651 147.51L264.693 144.697C258.715 142.483 252.658 140.272 246.523 138.065L245.507 140.887ZM282.955 154.772C289.296 157.196 295.545 159.623 301.701 162.053L302.803 159.262C296.636 156.828 290.377 154.397 284.026 151.97L282.955 154.772ZM319.896 169.35C326.068 171.866 332.142 174.385 338.12 176.905L339.285 174.141C333.296 171.616 327.211 169.093 321.028 166.572L319.896 169.35ZM356.906 184.972C363.06 187.664 369.104 190.357 375.042 193.051L376.282 190.32C370.331 187.619 364.274 184.92 358.108 182.224L356.906 184.972ZM392.533 201.14C398.85 204.116 405.037 207.094 411.096 210.072L412.419 207.38C406.345 204.394 400.143 201.409 393.812 198.426L392.533 201.14ZM428.939 219.034C434.759 222.021 440.452 225.009 446.019 227.995L447.437 225.352C441.854 222.356 436.145 219.361 430.309 216.365L428.939 219.034ZM464.021 237.896C469.906 241.215 475.637 244.533 481.217 247.848L482.75 245.269C477.15 241.942 471.399 238.613 465.494 235.283L464.021 237.896ZM497.899 258.031C503.793 261.731 509.5 265.426 515.024 269.115L516.69 266.62C511.142 262.915 505.411 259.204 499.494 255.49L497.899 258.031ZM531.044 280.163C536.695 284.19 542.127 288.208 547.346 292.215L549.173 289.836C543.925 285.806 538.464 281.766 532.786 277.72L531.044 280.163ZM562.736 304.514C568.021 308.916 573.051 313.303 577.829 317.673L579.854 315.459C575.04 311.056 569.975 306.639 564.656 302.209L562.736 304.514ZM592.023 331.345C596.876 336.28 601.409 341.191 605.631 346.072L607.9 344.109C603.634 339.177 599.057 334.22 594.163 329.241L592.023 331.345ZM617.788 361.183C621.973 366.807 625.743 372.386 629.114 377.915L631.675 376.354C628.254 370.742 624.431 365.086 620.195 359.392L617.788 361.183ZM638.477 395.283C641.351 401.42 643.728 407.486 645.628 413.473L648.487 412.566C646.546 406.448 644.12 400.26 641.194 394.011L638.477 395.283ZM650.147 432.686C651.162 439.36 651.573 445.923 651.407 452.364L654.406 452.441C654.576 445.82 654.154 439.08 653.113 432.234L650.147 432.686ZM649.092 471.85C647.725 478.232 645.771 484.478 643.257 490.575L646.031 491.719C648.611 485.459 650.619 479.042 652.026 472.479L649.092 471.85ZM634.28 508.068C630.891 513.55 627.025 518.89 622.704 524.078L625.009 525.998C629.415 520.708 633.364 515.254 636.832 509.646L634.28 508.068ZM609.057 538.553C604.402 542.951 599.396 547.217 594.057 551.341L595.891 553.715C601.304 549.534 606.386 545.204 611.117 540.734L609.057 538.553ZM577.921 562.728C572.468 566.251 566.75 569.648 560.78 572.915L562.22 575.546C568.25 572.247 574.031 568.812 579.548 565.248L577.921 562.728ZM543.004 581.907C537.156 584.642 531.111 587.263 524.88 589.766L525.998 592.55C532.279 590.027 538.375 587.383 544.275 584.625L543.004 581.907ZM506.094 596.761C499.96 598.873 493.673 600.88 487.242 602.777L488.09 605.654C494.564 603.745 500.893 601.725 507.071 599.597L506.094 596.761ZM468.01 608.011C461.65 609.604 455.166 611.094 448.567 612.479L449.183 615.415C455.819 614.022 462.34 612.523 468.739 610.922L468.01 608.011ZM429.067 616.205C422.569 617.328 415.971 618.352 409.281 619.276L409.691 622.248C416.415 621.32 423.046 620.29 429.578 619.161L429.067 616.205ZM389.61 621.67C383.035 622.365 376.38 622.965 369.651 623.467L369.874 626.459C376.634 625.954 383.32 625.352 389.926 624.654L389.61 621.67ZM349.87 624.652C343.262 624.951 336.589 625.158 329.858 625.271L329.908 628.27C336.668 628.157 343.369 627.949 350.006 627.649L349.87 624.652ZM310.011 625.329C303.401 625.258 296.74 625.097 290.033 624.844L289.92 627.842C296.654 628.096 303.342 628.257 309.979 628.329L310.011 625.329ZM270.162 623.832C263.575 623.41 256.948 622.9 250.285 622.301L250.016 625.288C256.705 625.891 263.357 626.403 269.971 626.826L270.162 623.832ZM230.432 620.258C223.887 619.5 217.312 618.656 210.71 617.723L210.29 620.694C216.917 621.63 223.517 622.477 230.087 623.238L230.432 620.258ZM190.917 614.675C184.431 613.593 177.923 612.426 171.398 611.172L170.832 614.118C177.382 615.376 183.913 616.548 190.423 617.634L190.917 614.675ZM151.768 607.148C145.338 605.747 138.893 604.262 132.436 602.69L131.727 605.605C138.207 607.182 144.675 608.673 151.13 610.079L151.768 607.148ZM113.097 597.731C109.869 596.861 106.64 595.97 103.408 595.057L102.592 597.943C105.835 598.86 109.077 599.755 112.317 600.628L113.097 597.731Z" fill="#F3F3F3"/>
<rect x="158" y="82" width="374" height="472" fill="white"/>
<rect x="166" y="90" width="359" height="181" fill="#E2DAD2"/>
<rect x="199" y="101" width="365" height="22" fill="#FFFEFF"/>
<rect x="492" y="106" width="66" height="12" rx="6" fill="#F0A8A9"/>
<rect x="204" y="106" width="139" height="12" fill="#CDBEAF"/>
<rect x="187" y="324.385" width="76.3956" height="42.6154" rx="2" stroke="#ECECEC" stroke-width="2"/>
<rect x="193.011" y="339.319" width="65.011" height="5.0989" rx="1" fill="#F2F2F2"/>
<rect x="193.011" y="346.967" width="59.9121" height="5.0989" rx="1" fill="#F2F2F2"/>
<rect x="193.011" y="353.978" width="54.8132" height="5.0989" rx="1" fill="#F2F2F2"/>
<g filter="url(#filter0_d_484_194)">
<circle cx="225.198" cy="322.429" r="12.4286" fill="#D9D9D9"/>
</g>
<rect x="307" y="324.385" width="76.3956" height="42.6154" rx="2" stroke="#ECECEC" stroke-width="2"/>
<rect x="313.011" y="339.319" width="65.011" height="5.0989" rx="1" fill="#F2F2F2"/>
<rect x="313.011" y="346.967" width="59.9121" height="5.0989" rx="1" fill="#F2F2F2"/>
<rect x="313.011" y="353.978" width="54.8132" height="5.0989" rx="1" fill="#F2F2F2"/>
<g filter="url(#filter1_d_484_194)">
<circle cx="345.198" cy="322.429" r="12.4286" fill="#D9D9D9"/>
</g>
<rect x="427" y="324.385" width="76.3956" height="42.6154" rx="2" stroke="#ECECEC" stroke-width="2"/>
<rect x="433.011" y="339.319" width="65.011" height="5.0989" rx="1" fill="#F2F2F2"/>
<rect x="433.011" y="346.967" width="59.9121" height="5.0989" rx="1" fill="#F2F2F2"/>
<rect x="433.011" y="353.978" width="54.8132" height="5.0989" rx="1" fill="#F2F2F2"/>
<g filter="url(#filter2_d_484_194)">
<circle cx="465.198" cy="322.429" r="12.4286" fill="#D9D9D9"/>
</g>
<rect x="199" y="142" width="130" height="13" fill="#D6CCC2"/>
<rect x="199" y="168" width="144" height="28" fill="#DCD3CA"/>
<path d="M65.1655 71.2069L42.7099 99.5495C41.8363 100.652 40.1529 100.619 39.3235 99.483L0.483979 46.2864L65.1655 71.2069Z" fill="#F3F3F3"/>
<path d="M83.3939 60.2307L106.859 53.7101C107.588 53.5072 107.474 52.44 106.718 52.3967L0.483645 46.2863L83.3939 60.2307Z" fill="#F3F3F3"/>
<path d="M79.2642 85.7814L0.483952 46.2862L65.1658 71.207L79.2642 85.7814Z" fill="#D6D6D6"/>
<path d="M83.3942 60.2307L79.2641 85.7814L65.1657 71.207L0.483875 46.2863L83.3942 60.2307Z" fill="white"/>
<defs>
<filter id="filter0_d_484_194" x="208.769" y="308" width="32.8569" height="32.8572" filterUnits="userSpaceOnUse" color-interpolation-filters="sRGB">
<feFlood flood-opacity="0" result="BackgroundImageFix"/>
<feColorMatrix in="SourceAlpha" type="matrix" values="0 0 0 0 0 0 0 0 0 0 0 0 0 0 0 0 0 0 127 0" result="hardAlpha"/>
<feOffset dy="2"/>
<feGaussianBlur stdDeviation="2"/>
<feComposite in2="hardAlpha" operator="out"/>
<feColorMatrix type="matrix" values="0 0 0 0 0 0 0 0 0 0 0 0 0 0 0 0 0 0 0.1 0"/>
<feBlend mode="normal" in2="BackgroundImageFix" result="effect1_dropShadow_484_194"/>
<feBlend mode="normal" in="SourceGraphic" in2="effect1_dropShadow_484_194" result="shape"/>
</filter>
<filter id="filter1_d_484_194" x="328.769" y="308" width="32.8569" height="32.8572" filterUnits="userSpaceOnUse" color-interpolation-filters="sRGB">
<feFlood flood-opacity="0" result="BackgroundImageFix"/>
<feColorMatrix in="SourceAlpha" type="matrix" values="0 0 0 0 0 0 0 0 0 0 0 0 0 0 0 0 0 0 127 0" result="hardAlpha"/>
<feOffset dy="2"/>
<feGaussianBlur stdDeviation="2"/>
<feComposite in2="hardAlpha" operator="out"/>
<feColorMatrix type="matrix" values="0 0 0 0 0 0 0 0 0 0 0 0 0 0 0 0 0 0 0.1 0"/>
<feBlend mode="normal" in2="BackgroundImageFix" result="effect1_dropShadow_484_194"/>
<feBlend mode="normal" in="SourceGraphic" in2="effect1_dropShadow_484_194" result="shape"/>
</filter>
<filter id="filter2_d_484_194" x="448.769" y="308" width="32.8569" height="32.8572" filterUnits="userSpaceOnUse" color-interpolation-filters="sRGB">
<feFlood flood-opacity="0" result="BackgroundImageFix"/>
<feColorMatrix in="SourceAlpha" type="matrix" values="0 0 0 0 0 0 0 0 0 0 0 0 0 0 0 0 0 0 127 0" result="hardAlpha"/>
<feOffset dy="2"/>
<feGaussianBlur stdDeviation="2"/>
<feComposite in2="hardAlpha" operator="out"/>
<feColorMatrix type="matrix" values="0 0 0 0 0 0 0 0 0 0 0 0 0 0 0 0 0 0 0.1 0"/>
<feBlend mode="normal" in2="BackgroundImageFix" result="effect1_dropShadow_484_194"/>
<feBlend mode="normal" in="SourceGraphic" in2="effect1_dropShadow_484_194" result="shape"/>
</filter>
</defs>
</svg>
