<svg width="263" height="42" viewBox="0 0 263 42" fill="none" xmlns="http://www.w3.org/2000/svg">
<path d="M35.1615 1.12105L34.9148 25.5892L34.7655 40.903C34.7633 41.1205 34.6951 41.3322 34.5698 41.5101C34.4445 41.6879 34.2679 41.8234 34.0637 41.8988C33.8594 41.974 33.6371 41.9855 33.426 41.9316C33.2151 41.8778 33.0255 41.7611 32.8825 41.597L21.1922 28.2473C20.5054 27.4627 19.5577 26.9524 18.5241 26.8107L0.93118 24.4198C0.715094 24.3909 0.512928 24.297 0.351578 24.1505C0.190227 24.0041 0.0773387 23.812 0.0279313 23.6C-0.0214763 23.3878 -0.00506157 23.1657 0.0749918 22.9631C0.155045 22.7605 0.294942 22.5872 0.476073 22.4661L10.9401 15.4043L33.4973 0.211862C33.6602 0.10469 33.8492 0.0438482 34.044 0.0358386C34.2389 0.0278447 34.4321 0.0730124 34.6033 0.166474C34.7743 0.259935 34.9167 0.398187 35.0151 0.566358C35.1133 0.734528 35.164 0.926288 35.1615 1.12105Z" fill="#1877F2"/>
<path d="M11.9339 7.38889C9.96486 11.6008 15.4745 18.5498 23.9643 22.5153C28.2697 24.5247 32.7115 25.5254 36.4603 25.3283C39.9328 25.1463 42.341 23.9748 43.2498 22.0301" stroke="white" stroke-width="3" stroke-linecap="round"/>
<path d="M39.6516 10.6761C37.2988 8.49608 34.6146 6.70453 31.6996 5.36859C23.1985 1.39933 14.3604 1.623 12.3913 5.83489C10.4222 10.0468 15.9318 16.9958 24.4216 20.9614C28.727 22.9705 33.1688 23.9714 36.9177 23.7743C40.3901 23.5923 42.7985 22.4208 43.7072 20.4761C44.6501 18.4478 43.7375 16.1353 42.806 14.5505" stroke="#1877F2" stroke-width="3" stroke-linecap="round"/>
<path fill-rule="evenodd" clip-rule="evenodd" d="M246.446 24.4077L242.688 28.3443V35.4487H236.241V7.30513H242.688V20.4384L255.104 7.30513H262.313L250.706 19.8441L262.995 35.4487H255.424L246.446 24.4077ZM212.313 25.0356C211.886 23.9367 211.673 22.717 211.673 21.3769C211.673 20.0368 211.886 18.8171 212.313 17.7183C212.768 16.6194 213.396 15.6678 214.197 14.8637C214.998 14.0596 215.944 13.4432 217.039 13.0143C218.134 12.5853 219.336 12.371 220.644 12.371C222.033 12.371 223.315 12.6524 224.49 13.2153C225.505 13.6791 226.442 14.3536 227.299 15.2387C227.432 15.3766 227.564 15.5197 227.694 15.6678L231.858 11.8081C231.533 11.4091 231.187 11.034 230.824 10.6829C230.356 10.2325 229.859 9.8215 229.329 9.4499C228.579 8.92414 227.767 8.47725 226.893 8.10923C224.943 7.25153 222.753 6.82267 220.323 6.82267C218.134 6.82267 216.118 7.18451 214.276 7.90821C212.433 8.60509 210.819 9.61022 209.43 10.9236C208.068 12.237 207 13.7782 206.225 15.5472C205.478 17.3162 205.104 19.2594 205.104 21.3769C205.104 23.4944 205.478 25.4376 206.225 27.2067C207 28.9757 208.068 30.5168 209.43 31.8303C210.792 33.1437 212.394 34.1622 214.236 34.8858C216.105 35.5827 218.12 35.9312 220.284 35.9312C222.74 35.9312 224.943 35.5023 226.893 34.6446C227.77 34.2635 228.585 33.8055 229.336 33.2707C229.856 32.9013 230.345 32.4952 230.804 32.0523C231.175 31.6941 231.527 31.3118 231.858 30.9055L227.694 27.0458C227.5 27.2736 227.299 27.4897 227.098 27.6943C226.295 28.5016 225.427 29.1298 224.49 29.5788C223.315 30.1148 222.033 30.3829 220.644 30.3829C219.336 30.3829 218.134 30.1685 217.039 29.7396C215.944 29.3107 214.998 28.6943 214.197 27.8902C213.396 27.0861 212.768 26.1345 212.313 25.0356ZM157.335 22.7822C157.58 23.0439 157.802 23.3261 158.004 23.6284C158.779 24.7542 159.165 26.1345 159.165 27.7695C159.165 30.1818 158.217 32.0715 156.321 33.4385C154.426 34.7786 151.635 35.4487 147.951 35.4487H133.452V7.30513H147.15C150.674 7.30513 153.318 7.97522 155.08 9.31538C156.868 10.6556 157.763 12.4245 157.763 14.6225C157.763 15.9791 157.458 17.1769 156.848 18.2158C156.795 18.3058 156.74 18.3945 156.682 18.4822C156.302 19.0468 155.849 19.5443 155.321 19.9751C155.31 19.984 155.299 19.9928 155.288 20.0018C154.918 20.3005 154.511 20.5667 154.069 20.8002C154.332 20.8886 154.589 20.9871 154.84 21.0955C155.836 21.5071 156.667 22.0694 157.335 22.7822ZM151.241 24.3973C152.123 24.9602 152.563 25.8314 152.563 27.0107C152.563 28.2168 152.123 29.1013 151.241 29.6642C150.387 30.2002 149.119 30.4683 147.437 30.4683H139.867V23.5128H147.437C149.119 23.5128 150.387 23.8076 151.241 24.3973ZM149.959 13.0439C149.201 12.4847 148.075 12.2051 146.583 12.2051H139.867V18.8013H146.583C148.075 18.8013 149.201 18.547 149.959 18.0388C150.741 17.505 151.131 16.6662 151.131 15.5222C151.131 14.4038 150.741 13.5778 149.959 13.0439ZM193.725 35.4487H200.213V7.30513H193.725V35.4487ZM178.543 19.8441L190.832 35.4487H183.262L174.283 24.4077L170.525 28.3443V35.4487H164.078V7.30513H170.525V20.4384L182.941 7.30513H190.15L178.543 19.8441ZM113.03 30.2221V23.7088H126.047V18.643L113.03 18.844V12.5318H127.769V7.30513H106.582V35.4487H128.29V30.2221H113.03ZM74.2828 35.4487H67.3138L58.1421 7.30513H64.8707L71.196 27.0876L77.8073 7.30513H83.815L90.2193 27.2345L96.7516 7.30513H102.96L93.7878 35.4487H86.8189L80.6381 16.3796L74.2828 35.4487Z" fill="#1877F2"/>
</svg>
