<svg width="1070" height="256" viewBox="0 0 1070 256" fill="none" xmlns="http://www.w3.org/2000/svg">
<path d="M92.8664 56.284C92.8359 57.5976 92.5915 58.8975 92.1429 60.1325L41.598 199.288C40.1345 203.317 36.3061 206 32.0194 206C24.8805 206 19.954 198.85 22.4968 192.179L76.9895 49.2216C78.2095 46.0211 81.2789 43.9062 84.7041 43.9062C89.3389 43.9062 93.0656 47.7206 92.9578 52.3542L92.8664 56.284ZM144.964 206C140.661 206 136.817 203.309 135.345 199.265L84.7052 60.1354C84.255 58.8985 84.0098 57.5964 83.9792 56.2804L83.888 52.3586C83.7802 47.7226 87.5088 43.9062 92.146 43.9062C95.5693 43.9062 98.6379 46.0178 99.861 49.2151L154.525 192.106C157.089 198.808 152.14 206 144.964 206ZM126.219 145.994C131.076 145.994 135.014 149.932 135.014 154.789C135.014 159.646 131.076 163.584 126.219 163.584H52.7422C47.8849 163.584 43.9473 159.646 43.9473 154.789C43.9473 149.932 47.8849 145.994 52.7422 145.994H126.219Z" fill="#ffffff"/>
<path d="M199.027 104.469V195.702C199.027 201.389 194.417 206 188.729 206C183.042 206 178.432 201.389 178.432 195.702V95.7098C178.432 90.0948 182.983 85.543 188.598 85.543C194.097 85.543 198.599 89.9147 198.761 95.4109L199.027 104.469ZM232.648 83.873C235.156 84.2589 236.647 86.4818 236.632 89.0191L236.574 99.0741C236.559 101.624 234.194 103.477 231.646 103.355C230.162 103.207 228.455 103.133 226.525 103.133C221.775 103.133 217.582 103.875 213.945 105.359C210.309 106.844 207.229 108.922 204.705 111.594C202.182 114.266 200.178 117.457 198.693 121.168C197.447 124.381 196.578 127.884 196.085 131.676C195.962 132.626 195.419 133.475 194.589 133.953C192.603 135.099 190.133 133.665 190.243 131.374C190.5 126.008 191.164 120.899 192.236 116.047C193.721 109.664 195.984 104.023 199.027 99.125C202.07 94.1523 205.93 90.293 210.605 87.5469C215.355 84.7266 220.996 83.3164 227.527 83.3164C229.012 83.3164 230.719 83.502 232.648 83.873Z" fill="#ffffff"/>
<path d="M301.672 191.305C306.57 191.305 311.098 190.303 315.254 188.299C319.41 186.295 322.824 183.549 325.496 180.061C326.309 178.976 327.016 177.847 327.616 176.674C329.967 172.074 334.037 167.926 339.202 167.926C344.885 167.926 349.53 172.79 347.608 178.137C346.4 181.499 344.67 184.738 342.418 187.854C338.039 193.939 332.287 198.875 325.162 202.66C318.037 206.371 310.207 208.227 301.672 208.227C292.617 208.227 284.713 206.631 277.959 203.439C271.279 200.248 265.713 195.869 261.26 190.303C256.881 184.736 253.578 178.354 251.352 171.154C249.199 163.881 248.123 156.199 248.123 148.109V143.434C248.123 135.344 249.199 127.699 251.352 120.5C253.578 113.227 256.881 106.807 261.26 101.24C265.713 95.6738 271.279 91.2949 277.959 88.1035C284.713 84.9121 292.617 83.3164 301.672 83.3164C311.098 83.3164 319.336 85.2461 326.387 89.1055C333.438 92.8906 338.967 98.0859 342.975 104.691C345.298 108.408 347.02 112.413 348.141 116.707C349.57 122.18 344.931 126.957 339.274 126.957C334.078 126.957 329.96 122.836 328.069 117.996C327.457 116.431 326.711 114.927 325.83 113.486C323.455 109.479 320.189 106.287 316.033 103.912C311.951 101.463 307.164 100.238 301.672 100.238C295.363 100.238 290.057 101.5 285.752 104.023C281.521 106.473 278.145 109.812 275.621 114.043C273.172 118.199 271.391 122.838 270.277 127.959C269.238 133.006 268.719 138.164 268.719 143.434V148.109C268.719 153.379 269.238 158.574 270.277 163.695C271.316 168.816 273.061 173.455 275.51 177.611C278.033 181.768 281.41 185.107 285.641 187.631C289.945 190.08 295.289 191.305 301.672 191.305Z" fill="#ffffff"/>
<path d="M383.108 35C388.796 35 393.406 39.6105 393.406 45.2979V195.702C393.406 201.389 388.796 206 383.108 206C377.421 206 372.811 201.389 372.811 195.702V45.2979C372.811 39.6105 377.421 35 383.108 35ZM388.696 136.775C388.488 139.188 386.494 141.129 384.074 141.034C381.769 140.944 379.939 139.037 380.073 136.734C380.458 130.071 381.637 123.843 383.609 118.051C385.984 111 389.324 104.877 393.629 99.6816C397.934 94.4863 403.055 90.4785 408.992 87.6582C415.004 84.7637 421.646 83.3164 428.92 83.3164C434.857 83.3164 440.201 84.1328 444.951 85.7656C449.701 87.3242 453.746 89.8477 457.086 93.3359C460.5 96.8242 463.098 101.352 464.879 106.918C466.66 112.41 467.551 119.127 467.551 127.068V195.646C467.551 201.365 462.915 206 457.197 206C451.479 206 446.844 201.365 446.844 195.646V126.846C446.844 120.537 445.916 115.49 444.061 111.705C442.205 107.846 439.496 105.062 435.934 103.355C432.371 101.574 427.992 100.684 422.797 100.684C417.676 100.684 413 101.76 408.77 103.912C404.613 106.064 401.014 109.033 397.971 112.818C395.002 116.604 392.664 120.945 390.957 125.844C389.776 129.332 389.022 132.976 388.696 136.775Z" fill="#ffffff"/>
<path d="M548.375 208.227C539.988 208.227 532.381 206.816 525.553 203.996C518.799 201.102 512.973 197.057 508.074 191.861C503.25 186.666 499.539 180.506 496.941 173.381C494.344 166.256 493.045 158.463 493.045 150.002V145.326C493.045 135.529 494.492 126.809 497.387 119.164C500.281 111.445 504.215 104.914 509.188 99.5703C514.16 94.2266 519.801 90.1816 526.109 87.4355C532.418 84.6895 538.949 83.3164 545.703 83.3164C554.312 83.3164 561.734 84.8008 567.969 87.7695C574.277 90.7383 579.436 94.8945 583.443 100.238C587.451 105.508 590.42 111.742 592.35 118.941C594.279 126.066 595.244 133.859 595.244 142.32C595.244 147.424 591.107 151.561 586.004 151.561H513.696C509.054 151.561 505.291 147.797 505.291 143.155C505.291 138.513 509.054 134.75 513.696 134.75H573.09C573.951 134.75 574.648 134.052 574.648 133.191C574.352 127.848 573.238 122.652 571.309 117.605C569.453 112.559 566.484 108.402 562.402 105.137C558.32 101.871 552.754 100.238 545.703 100.238C541.027 100.238 536.723 101.24 532.789 103.244C528.855 105.174 525.479 108.068 522.658 111.928C519.838 115.787 517.648 120.5 516.09 126.066C514.531 131.633 513.752 138.053 513.752 145.326V150.002C513.752 155.717 514.531 161.098 516.09 166.145C517.723 171.117 520.061 175.496 523.104 179.281C526.221 183.066 529.969 186.035 534.348 188.188C538.801 190.34 543.848 191.416 549.488 191.416C556.762 191.416 562.922 189.932 567.969 186.963C570.695 185.359 573.238 183.463 575.596 181.274C578.974 178.139 584.182 177.407 587.79 180.274C591.126 182.925 591.92 187.73 589.088 190.915C587.482 192.721 585.712 194.484 583.777 196.203C579.77 199.766 574.834 202.66 568.971 204.887C563.182 207.113 556.316 208.227 548.375 208.227Z" fill="#ffffff"/>
<path d="M661.818 85.543C666.184 85.543 669.723 89.0818 669.723 93.4473C669.723 97.8127 666.184 101.352 661.818 101.352H612.5C608.135 101.352 604.596 97.8127 604.596 93.4473C604.596 89.0818 608.135 85.543 612.5 85.543H661.818ZM626.639 66.5615C626.639 60.8742 631.249 56.2637 636.937 56.2637C642.624 56.2637 647.234 60.8742 647.234 66.5615V176.164C647.234 180.246 647.865 183.326 649.127 185.404C650.389 187.482 652.021 188.855 654.025 189.523C656.029 190.191 658.182 190.525 660.482 190.525C662.189 190.525 663.971 190.377 665.826 190.08C668.059 189.651 670.182 191.348 670.197 193.622L670.238 199.764C670.263 203.473 667.859 206.757 664.203 207.383C664.078 207.404 663.951 207.426 663.822 207.447C661.225 207.967 658.07 208.227 654.359 208.227C649.312 208.227 644.674 207.225 640.443 205.221C636.213 203.217 632.836 199.877 630.312 195.201C627.863 190.451 626.639 184.068 626.639 176.053V66.5615Z" fill="#ffffff"/>
<path d="M727.725 193.531L758.988 92.781C760.324 88.4767 764.306 85.543 768.813 85.543C775.889 85.543 780.852 92.5219 778.53 99.2061L734.961 224.592C733.848 227.561 732.363 230.752 730.508 234.166C728.727 237.654 726.426 240.957 723.605 244.074C720.785 247.191 717.371 249.715 713.363 251.645C709.43 253.648 704.717 254.65 699.225 254.65C697.592 254.65 695.514 254.428 692.99 253.982C689.803 253.42 687.632 250.645 687.61 247.409L687.554 238.962C687.544 237.483 688.841 236.306 690.318 236.393C691.654 236.541 692.582 236.615 693.102 236.615C697.777 236.615 701.748 235.984 705.014 234.723C708.279 233.535 711.025 231.494 713.252 228.6C715.553 225.779 717.52 221.883 719.152 216.91L727.725 193.531ZM695.569 85.543C700.08 85.543 704.086 88.4269 705.517 92.7047L734.404 179.059L738.115 194.132C739.072 198.02 737.229 202.056 733.663 203.879C729.035 206.245 723.381 204.013 721.617 199.124L685.702 99.5927C683.235 92.7559 688.301 85.543 695.569 85.543Z" fill="#ffffff"/>
<path d="M822.465 108.699V241.959C822.465 247.677 817.829 252.312 812.111 252.312C806.393 252.312 801.758 247.677 801.758 241.959V95.3693C801.758 89.9424 806.157 85.543 811.584 85.543C816.719 85.543 820.988 89.4962 821.381 94.6156L822.465 108.699ZM903.623 144.77V147.107C903.623 155.865 902.584 163.992 900.506 171.488C898.428 178.91 895.385 185.367 891.377 190.859C887.443 196.352 882.582 200.619 876.793 203.662C871.004 206.705 864.361 208.227 856.865 208.227C849.221 208.227 842.467 206.965 836.604 204.441C830.74 201.918 825.768 198.244 821.686 193.42C817.604 188.596 814.338 182.807 811.889 176.053C809.514 169.299 807.881 161.691 806.99 153.23V140.762C807.881 131.855 809.551 123.877 812 116.826C814.449 109.775 817.678 103.764 821.686 98.791C825.768 93.7441 830.703 89.9219 836.492 87.3242C842.281 84.6523 848.961 83.3164 856.531 83.3164C864.102 83.3164 870.818 84.8008 876.682 87.7695C882.545 90.6641 887.48 94.8203 891.488 100.238C895.496 105.656 898.502 112.15 900.506 119.721C902.584 127.217 903.623 135.566 903.623 144.77ZM882.916 147.107V144.77C882.916 138.758 882.285 133.117 881.023 127.848C879.762 122.504 877.795 117.828 875.123 113.82C872.525 109.738 869.186 106.547 865.104 104.246C861.021 101.871 856.16 100.684 850.52 100.684C845.324 100.684 840.797 101.574 836.938 103.355C833.152 105.137 829.924 107.549 827.252 110.592C824.58 113.561 822.391 116.975 820.684 120.834C819.388 123.837 818.35 126.932 817.569 130.122C817.161 131.785 817.01 133.497 817.01 135.209V157.827C817.01 160.243 817.315 162.658 818.106 164.941C819.462 168.86 821.175 172.601 823.244 176.164C825.916 180.691 829.479 184.365 833.932 187.186C838.385 189.932 843.988 191.305 850.742 191.305C856.309 191.305 861.096 190.154 865.104 187.854C869.186 185.479 872.525 182.25 875.123 178.168C877.795 174.086 879.762 169.41 881.023 164.141C882.285 158.797 882.916 153.119 882.916 147.107Z" fill="#ffffff"/>
<path d="M979.883 208.227C971.496 208.227 963.889 206.816 957.061 203.996C950.307 201.102 944.48 197.057 939.582 191.861C934.758 186.666 931.047 180.506 928.449 173.381C925.852 166.256 924.553 158.463 924.553 150.002V145.326C924.553 135.529 926 126.809 928.895 119.164C931.789 111.445 935.723 104.914 940.695 99.5703C945.668 94.2266 951.309 90.1816 957.617 87.4355C963.926 84.6895 970.457 83.3164 977.211 83.3164C985.82 83.3164 993.242 84.8008 999.477 87.7695C1005.79 90.7383 1010.94 94.8945 1014.95 100.238C1018.96 105.508 1021.93 111.742 1023.86 118.941C1025.79 126.066 1026.75 133.859 1026.75 142.32C1026.75 147.424 1022.61 151.561 1017.51 151.561H945.204C940.562 151.561 936.799 147.797 936.799 143.155C936.799 138.513 940.562 134.75 945.204 134.75H1004.6C1005.46 134.75 1006.16 134.052 1006.16 133.191C1005.86 127.848 1004.75 122.652 1002.82 117.605C1000.96 112.559 997.992 108.402 993.91 105.137C989.828 101.871 984.262 100.238 977.211 100.238C972.535 100.238 968.23 101.24 964.297 103.244C960.363 105.174 956.986 108.068 954.166 111.928C951.346 115.787 949.156 120.5 947.598 126.066C946.039 131.633 945.26 138.053 945.26 145.326V150.002C945.26 155.717 946.039 161.098 947.598 166.145C949.23 171.117 951.568 175.496 954.611 179.281C957.729 183.066 961.477 186.035 965.855 188.188C970.309 190.34 975.355 191.416 980.996 191.416C988.27 191.416 994.43 189.932 999.477 186.963C1002.2 185.359 1004.75 183.463 1007.1 181.274C1010.48 178.139 1015.69 177.407 1019.3 180.274C1022.63 182.925 1023.43 187.73 1020.6 190.915C1018.99 192.721 1017.22 194.484 1015.29 196.203C1011.28 199.766 1006.34 202.66 1000.48 204.887C994.689 207.113 987.824 208.227 979.883 208.227Z" fill="#ffffff"/>
</svg>
