<svg viewBox="0 0 3020 501" fill="none">
<path d="M279.812 271.297C320.732 290.214 362.984 299.637 398.577 297.781H399.225L401.78 46.1076C401.806 44.1044 401.282 42.1321 400.263 40.4022C399.244 38.6724 397.769 37.2505 395.997 36.2891C394.225 35.3277 392.222 34.8632 390.204 34.9455C388.186 35.0277 386.228 35.6536 384.542 36.756L171.088 179.529C188.363 212.26 228.275 247.454 279.812 271.297Z" fill="#1877F2"/>
<path d="M389.796 321.91C352.547 321.91 310.331 311.773 269.627 292.963C213.484 267.014 171.268 229.964 150.862 193.021L42.4618 265.657C40.5854 266.904 39.1362 268.688 38.3069 270.771C37.4776 272.854 37.3075 275.139 37.8194 277.32C38.3312 279.502 39.5007 281.477 41.1721 282.984C42.8436 284.49 44.9379 285.456 47.1765 285.753L229.427 310.345C240.136 311.803 249.952 317.052 257.067 325.122L378.171 462.435C379.653 464.122 381.617 465.322 383.802 465.876C385.987 466.431 388.291 466.313 390.407 465.538C392.523 464.764 394.352 463.369 395.651 461.54C396.949 459.711 397.656 457.533 397.678 455.296L399.045 321.696C396.022 321.839 392.927 321.91 389.796 321.91Z" fill="#1877F2"/>
<path d="M389.796 302.85C352.547 302.85 310.331 292.713 269.627 273.903C173.895 229.607 118.472 153.152 143.664 99.8261C168.857 46.5003 263.329 39.433 359.061 83.6928C389.16 97.3628 416.871 115.701 441.153 138.018C442.304 139.098 443.229 140.393 443.875 141.828C444.521 143.263 444.876 144.81 444.92 146.381C444.963 147.952 444.694 149.516 444.128 150.984C443.562 152.452 442.71 153.795 441.621 154.937C440.531 156.078 439.226 156.995 437.779 157.636C436.332 158.277 434.772 158.63 433.188 158.673C431.604 158.716 430.027 158.449 428.547 157.888C427.067 157.326 425.713 156.481 424.562 155.401C402.2 134.875 376.688 118.008 348.984 105.43C268.188 68.0591 184.188 70.165 165.474 109.82C146.759 149.476 199.124 214.901 279.812 252.237C320.732 271.154 362.948 280.577 398.577 278.721C431.58 277.008 454.469 265.979 463.106 247.668C472.068 228.572 463.394 206.799 454.541 191.879C453.738 190.525 453.211 189.026 452.991 187.47C452.772 185.913 452.863 184.329 453.261 182.808C453.659 181.287 454.355 179.858 455.309 178.603C456.264 177.349 457.458 176.293 458.824 175.496C460.19 174.699 461.7 174.177 463.27 173.959C464.839 173.741 466.436 173.832 467.97 174.227C469.504 174.621 470.945 175.311 472.21 176.258C473.475 177.204 474.539 178.389 475.343 179.744C492.042 207.834 495.461 235.568 484.988 257.805C472.536 284.468 442.305 300.423 399.945 302.564C396.61 302.755 393.227 302.85 389.796 302.85Z" fill="#1877F2"/>
<path fill-rule="evenodd" clip-rule="evenodd" d="M2822.38 286.421L2777.68 333.08V417.282H2700.96V83.7182H2777.68V239.376L2925.4 83.7182H3011.17L2873.08 232.333L3019.27 417.282H2929.21L2822.38 286.421ZM2416.29 293.863C2411.2 280.838 2408.66 266.384 2408.66 250.5C2408.66 234.616 2411.2 220.162 2416.29 207.137C2421.69 194.112 2429.15 182.834 2438.68 173.304C2448.21 163.773 2459.49 156.467 2472.52 151.384C2485.54 146.301 2499.84 143.76 2515.4 143.76C2531.92 143.76 2547.17 147.095 2561.15 153.767C2573.24 159.264 2584.38 167.258 2594.58 177.748C2596.16 179.383 2597.73 181.078 2599.27 182.834L2648.83 137.088C2644.95 132.359 2640.85 127.914 2636.52 123.752C2630.96 118.414 2625.03 113.543 2618.73 109.139C2609.82 102.907 2600.15 97.6105 2589.74 93.2486C2566.55 83.0829 2540.5 78 2511.59 78C2485.54 78 2461.56 82.2887 2439.64 90.866C2417.72 99.1257 2398.5 111.039 2381.98 126.605C2365.78 142.171 2353.07 160.438 2343.86 181.405C2334.96 202.372 2330.51 225.403 2330.51 250.5C2330.51 275.597 2334.96 298.628 2343.86 319.595C2353.07 340.562 2365.78 358.829 2381.98 374.395C2398.18 389.961 2417.24 402.033 2439.16 410.611C2461.4 418.87 2485.38 423 2511.11 423C2540.34 423 2566.55 417.917 2589.74 407.751C2600.19 403.234 2609.88 397.806 2618.82 391.469C2625 387.089 2630.82 382.276 2636.28 377.027C2640.7 372.781 2644.88 368.25 2648.83 363.435L2599.27 317.689C2596.96 320.388 2594.59 322.949 2592.18 325.375C2582.64 334.943 2572.3 342.388 2561.15 347.71C2547.17 354.064 2531.92 357.24 2515.4 357.24C2499.84 357.24 2485.54 354.699 2472.52 349.616C2459.49 344.533 2448.21 337.227 2438.68 327.696C2429.15 318.166 2421.69 306.888 2416.29 293.863ZM1762.16 267.155C1765.08 270.258 1767.73 273.601 1770.12 277.185C1779.34 290.528 1783.94 306.888 1783.94 326.267C1783.94 354.858 1772.66 377.254 1750.11 393.456C1727.55 409.34 1694.36 417.282 1650.52 417.282H1478.02V83.7182H1640.99C1682.92 83.7182 1714.37 91.6602 1735.34 107.544C1756.62 123.428 1767.26 144.395 1767.26 170.445C1767.26 186.524 1763.63 200.72 1756.37 213.033C1755.74 214.1 1755.08 215.152 1754.4 216.191C1749.88 222.882 1744.48 228.78 1738.21 233.886C1738.08 233.991 1737.95 234.096 1737.82 234.201C1733.41 237.742 1728.57 240.897 1723.3 243.665C1726.44 244.714 1729.5 245.88 1732.48 247.164C1744.33 252.044 1754.22 258.707 1762.16 267.155ZM1689.67 286.299C1700.15 292.97 1705.39 303.294 1705.39 317.272C1705.39 331.568 1700.15 342.051 1689.67 348.723C1679.5 355.076 1664.41 358.253 1644.4 358.253H1554.34V275.815H1644.4C1664.41 275.815 1679.5 279.31 1689.67 286.299ZM1674.41 151.736C1665.39 145.108 1652 141.794 1634.24 141.794H1554.34V219.973H1634.24C1652 219.973 1665.39 216.96 1674.41 210.935C1683.71 204.608 1688.36 194.666 1688.36 181.109C1688.36 167.854 1683.71 158.062 1674.41 151.736ZM2195.12 417.282H2272.32V83.7182H2195.12V417.282ZM2014.5 232.333L2160.7 417.282H2070.64L1963.8 286.421L1919.11 333.08V417.282H1842.39V83.7182H1919.11V239.376L2066.83 83.7182H2152.6L2014.5 232.333ZM1235.04 355.334V278.138H1389.91V218.097L1235.04 220.479V145.666H1410.4V83.7182H1158.32V417.282H1416.59V355.334H1235.04ZM774.037 417.282H691.123L582 83.7182H662.055L737.311 318.184L815.971 83.7182H887.449L963.645 319.926L1041.36 83.7182H1115.23L1006.1 417.282H923.188L849.651 191.271L774.037 417.282Z" fill="#1877F2"/>
</svg>
