<svg width="80" height="81" viewBox="0 0 80 81" fill="none" xmlns="http://www.w3.org/2000/svg">
<path d="M51.171 40.7295C51.171 35.8646 48.1079 31.7205 43.6935 30.189V38.8376C43.6935 40.7295 42.3422 42.4412 40.3602 42.7115C38.1079 42.9818 36.1259 41.18 36.1259 39.0178V30.189C31.4413 31.8106 28.2881 36.4953 28.7386 41.8106C29.0989 46.1349 32.0719 49.8286 36.1259 51.2701V68H43.6935V51.2701C48.1079 49.7385 51.171 45.5944 51.171 40.7295Z" fill="#D9D9D9"/>
<path fill-rule="evenodd" clip-rule="evenodd" d="M80 32.6216H72.6126C71.8018 29.5586 70.6306 26.5856 69.009 23.973L74.2342 18.7477L62.3423 6.76577L57.1171 11.991C54.4144 10.3694 51.5315 9.1982 48.4685 8.38739V1H31.6216V8.38739C28.5586 9.1982 25.5856 10.3694 22.973 11.991L17.6577 6.76577L5.76577 18.6577L10.991 23.8829C9.36937 26.5856 8.1982 29.4685 7.38739 32.5315H0V49.3784H7.38739C8.1982 52.4414 9.36937 55.4144 10.991 58.027L5.76577 63.3423L17.6577 75.2342L22.8829 70.009C25.5856 71.6306 28.4685 72.8018 31.5315 73.6126V81H48.3784V73.6126C51.4414 72.8018 54.4144 71.6306 57.027 70.009L62.2522 75.2342L74.2342 63.3423L69.009 58.1171C70.6306 55.4144 71.8018 52.5315 72.6126 49.4685H80V49.3784V32.6216ZM66 41C66 55.3594 54.3594 67 40 67C25.6406 67 14 55.3594 14 41C14 26.6406 25.6406 15 40 15C54.3594 15 66 26.6406 66 41Z" fill="#D9D9D9"/>
</svg>
