<svg width="82" height="80" viewBox="0 0 82 80" fill="none" xmlns="http://www.w3.org/2000/svg">
<path d="M27.925 27.1738H27.7764C27.231 27.1738 26.7474 27.5232 26.576 28.0406L24.2524 35.0529L21.9181 28.039C21.746 27.5223 21.2627 27.1738 20.7181 27.1738H20.5041C19.9588 27.1738 19.4751 27.5232 19.3037 28.0406L16.9802 35.0529L14.6459 28.039C14.4737 27.5223 13.9905 27.1738 13.4459 27.1738H13.2973C12.8895 27.1738 12.5068 27.3703 12.2694 27.7017C12.0321 28.033 11.9688 28.4587 12.0996 28.8447L15.6856 39.4196C15.8593 39.9327 16.3411 40.2778 16.8829 40.2778H16.9658C16.9714 40.2778 16.9773 40.2769 16.9829 40.2767C16.9885 40.2769 16.9944 40.2778 17 40.2778H17.0669C17.6096 40.2778 18.0922 39.9315 18.2654 39.4167L20.6164 32.4365L22.9563 39.415C23.1292 39.9298 23.6117 40.2778 24.1555 40.2778H24.238C24.2437 40.2778 24.2495 40.2769 24.2551 40.2767C24.2608 40.2769 24.2666 40.2778 24.2723 40.2778H24.3392C24.881 40.2778 25.3629 39.9327 25.5369 39.4196L29.1225 28.8447C29.2536 28.4587 29.1906 28.033 28.953 27.7017C28.7155 27.3703 28.3326 27.1738 27.925 27.1738Z" fill="#D9D9D9"/>
<path d="M45.4648 27.1738H45.3159C44.7706 27.1738 44.2871 27.5232 44.1155 28.0406L41.7922 35.0529L39.4577 28.039C39.2855 27.5223 38.8022 27.1738 38.2577 27.1738H38.0437C37.4983 27.1738 37.0147 27.5232 36.8433 28.0406L34.5197 35.0529L32.1855 28.039C32.0133 27.5223 31.53 27.1738 30.9855 27.1738H30.8368C30.429 27.1738 30.0463 27.3703 29.809 27.7017C29.5716 28.033 29.5084 28.4587 29.6391 28.8447L33.2252 39.4196C33.3989 39.9327 33.8806 40.2778 34.4224 40.2778H34.5053C34.511 40.2778 34.5168 40.2769 34.5224 40.2767C34.5281 40.2769 34.5339 40.2778 34.5396 40.2778H34.6065C35.1491 40.2778 35.6318 39.9315 35.8049 39.4167L38.1559 32.4365L40.4958 39.415C40.6688 39.9298 41.1515 40.2778 41.6953 40.2778H41.778C41.7834 40.2778 41.7894 40.2769 41.7951 40.2767C41.8005 40.2769 41.8066 40.2778 41.8122 40.2778H41.8791C42.421 40.2778 42.9029 39.9327 43.0768 39.4196L46.6624 28.8447C46.7936 28.4587 46.7307 28.033 46.493 27.7017C46.2552 27.3703 45.8723 27.1738 45.4648 27.1738Z" fill="#D9D9D9"/>
<path d="M63.0053 27.1738H62.8563C62.3109 27.1738 61.8276 27.5232 61.6558 28.0406L59.3327 35.0529L56.9984 28.039C56.8262 27.5223 56.343 27.1738 55.7984 27.1738H55.584C55.0387 27.1738 54.555 27.5232 54.3836 28.0406L52.0604 35.0529L49.726 28.039C49.5538 27.5223 49.0707 27.1738 48.526 27.1738H48.3773C47.9692 27.1738 47.5869 27.3703 47.3495 27.7017C47.1122 28.033 47.0489 28.4587 47.1797 28.8447L50.7659 39.4196C50.9398 39.9327 51.4213 40.2778 51.9632 40.2778H52.046C52.0517 40.2778 52.0577 40.2769 52.0632 40.2767C52.0688 40.2769 52.0748 40.2778 52.0805 40.2778H52.1474C52.69 40.2778 53.1727 39.9315 53.3459 39.4167L55.6969 32.4365L58.0366 39.415C58.2097 39.9298 58.692 40.2778 59.2358 40.2778H59.3183C59.3239 40.2778 59.33 40.2769 59.3356 40.2767C59.341 40.2769 59.3471 40.2778 59.3527 40.2778H59.4196C59.9615 40.2778 60.4434 39.9327 60.6173 39.4196L64.203 28.8447C64.3341 28.4587 64.271 28.033 64.0335 27.7017C63.7956 27.3703 63.4129 27.1738 63.0053 27.1738Z" fill="#D9D9D9"/>
<path d="M5.50257 64.2053V16.7892H70.799V43.9202C72.1089 42.7943 73.7584 42.1783 75.5037 42.1783C75.7724 42.1783 76.0384 42.1943 76.3018 42.2229V4.97685C76.3018 2.44843 74.2452 0.391602 71.7175 0.391602H4.58525C2.05644 0.391602 0 2.44843 0 4.97685V65.1227C0 67.6507 2.05644 69.7079 4.58525 69.7079H48.3304C47.2743 68.0509 46.5064 66.1939 46.1045 64.2053H5.50257V64.2053ZM65.7642 8.09127C65.7642 7.15605 66.5219 6.39807 67.4572 6.39807H69.1504C70.0854 6.39807 70.8432 7.15605 70.8432 8.09127V10.0102C70.8432 10.945 70.0852 11.703 69.1504 11.703H67.4572C66.5215 11.703 65.7642 10.945 65.7642 10.0102V8.09127ZM57.8917 8.09127C57.8917 7.15605 58.6497 6.39807 59.5845 6.39807H61.2777C62.2131 6.39807 62.9705 7.15605 62.9705 8.09127V10.0102C62.9705 10.945 62.2126 11.703 61.2777 11.703H59.5845C58.6497 11.703 57.8917 10.945 57.8917 10.0102V8.09127ZM50.0187 8.09127C50.0187 7.15605 50.7767 6.39807 51.7119 6.39807H53.4047C54.3395 6.39807 55.0975 7.15605 55.0975 8.09127V10.0102C55.0975 10.945 54.3395 11.703 53.4047 11.703H51.7119C50.7767 11.703 50.0187 10.945 50.0187 10.0102V8.09127Z" fill="#D9D9D9"/>
<path d="M81.0719 51.9081C81.0719 51.0158 80.7246 50.1773 80.0934 49.546L77.5946 47.0469C76.9638 46.4164 76.1251 46.0691 75.2333 46.0691C74.3414 46.0691 73.5025 46.4164 72.8714 47.0473L69.0574 50.8608C67.0206 49.4004 64.5237 48.5401 61.8262 48.5401C54.9637 48.5401 49.4004 54.1036 49.4004 60.9659C49.4004 67.828 54.9637 73.3915 61.8262 73.3915C68.6885 73.3915 74.2518 67.8276 74.2518 60.9659C74.2518 60.6875 74.2416 60.4116 74.2234 60.1381L80.0923 54.2692C80.7242 53.6388 81.0719 52.7999 81.0719 51.9081ZM77.3814 52.6505L65.4305 64.6015C65.1785 64.8535 64.8369 64.9947 64.4809 64.9947H64.4805C64.1237 64.9947 63.7824 64.8529 63.5305 64.6013L57.9921 59.0546C57.4689 58.5303 57.4691 57.6803 57.9933 57.156L59.0592 56.09C59.5832 55.5661 60.4328 55.5657 60.9571 56.0888L64.4793 59.6019L74.4056 49.6757C74.6576 49.4238 74.9992 49.2825 75.3553 49.2825C75.7113 49.2825 76.0529 49.4242 76.3049 49.6757L77.3806 50.7516C77.9059 51.2761 77.9059 52.1261 77.3814 52.6505Z" fill="#D9D9D9"/>
</svg>
