<svg width="80" height="80" viewBox="0 0 80 80" fill="none" xmlns="http://www.w3.org/2000/svg">
<path d="M72 16.7674C72 24.371 57.897 30.5349 40.5 30.5349C23.103 30.5349 9 24.371 9 16.7674M72 16.7674C72 9.16389 57.897 3 40.5 3C23.103 3 9 9.16389 9 16.7674M72 16.7674C72 16.7674 72 36.5164 72 40.4302C72 48.2716 57.897 54.6279 40.5 54.6279C23.103 54.6279 9 48.2716 9 40.4302C9 32.5889 9 16.7674 9 16.7674M9 44.3023C9 44.3023 9 55.2472 9 62.9867C9 70.7263 23.103 77 40.5 77C57.897 77 72 70.7263 72 62.9867C72 59.1237 72 44.3023 72 44.3023" stroke="#D9D9D9" stroke-width="5" stroke-linecap="square"/>
</svg>
