<svg width="80" height="80" viewBox="0 0 80 80" fill="none" xmlns="http://www.w3.org/2000/svg">
<path d="M59.6213 24.4673H20.1065C18.8425 24.4673 17.8115 25.4893 17.8115 26.7558V34.5469C17.8115 35.8133 18.8425 36.8354 20.1065 36.8354H59.6213C60.8829 36.8354 61.913 35.8133 61.913 34.5469V26.7558C61.913 25.4893 60.8813 24.4673 59.6213 24.4673ZM21.9442 29.8939C21.1633 29.8939 20.5305 29.2627 20.5305 28.481C20.5305 27.7017 21.1633 27.0689 21.9442 27.0689C22.7267 27.0689 23.3571 27.7017 23.3571 28.481C23.3571 29.2635 22.7267 29.8939 21.9442 29.8939ZM55.886 33.9675H45.9035V30.6521H55.8868V33.9675H55.886Z" fill="#D9D9D9"/>
<path d="M59.6213 38.0938H20.1065C18.8425 38.0938 17.8115 39.1174 17.8115 40.3838V48.1742C17.8115 49.439 18.8425 50.4634 20.1065 50.4634H59.6213C60.8829 50.4634 61.913 49.439 61.913 48.1742V40.3838C61.913 39.1174 60.8813 38.0938 59.6213 38.0938ZM21.9442 43.522C21.1633 43.522 20.5305 42.8932 20.5305 42.1091C20.5305 41.3306 21.1633 40.6946 21.9442 40.6946C22.7267 40.6946 23.3571 41.3298 23.3571 42.1091C23.3571 42.8924 22.7267 43.522 21.9442 43.522ZM55.886 47.5948H45.9035V44.2786H55.8868V47.5948H55.886Z" fill="#D9D9D9"/>
<path d="M59.6213 51.7209H20.1065C18.8425 51.7209 17.8115 52.7446 17.8115 54.0102V61.8006C17.8115 63.0662 18.8425 64.0906 20.1065 64.0906H59.6213C60.8829 64.0906 61.913 63.0662 61.913 61.8006V54.0102C61.913 52.7446 60.8813 51.7209 59.6213 51.7209ZM21.9442 57.1476C21.1633 57.1476 20.5305 56.5204 20.5305 55.7347C20.5305 54.9546 21.1633 54.3234 21.9442 54.3234C22.7267 54.3234 23.3571 54.9538 23.3571 55.7347C23.3571 56.5204 22.7267 57.1476 21.9442 57.1476ZM55.886 61.2203H45.9035V57.9042H55.8868V61.2203H55.886Z" fill="#D9D9D9"/>
<path d="M46.6881 71.5419H42.4769V65.4153H37.2526V71.5419H33.0366V73.1563H18.2959V78.383H33.0366V79.9998H46.6881V78.383H61.428V73.1563H46.6881V71.5419Z" fill="#D9D9D9"/>
<path d="M63.1867 11.9003C62.6211 11.8526 62.1016 11.5637 61.7649 11.1081C58.5968 6.82979 53.5174 4.19093 48.1118 4.19093C47.7736 4.19093 47.4345 4.20145 47.0954 4.22168C46.6261 4.25001 46.1648 4.11001 45.7902 3.82679C42.4991 1.34492 38.5113 0 34.3373 0C26.8585 0 20.2205 4.33255 17.118 10.8929C16.8331 11.4941 16.2651 11.9117 15.6064 12.0039C7.36368 13.1635 1 20.262 1 28.8186C1 36.9764 6.78347 43.8045 14.4662 45.4286V40.384C14.4662 39.7552 14.5827 39.1556 14.7761 38.5916C10.6677 37.241 7.6898 33.3737 7.6898 28.8194C7.6898 23.146 12.3056 18.5303 17.9798 18.5303C18.2663 18.5303 18.5479 18.5529 18.8287 18.5756C20.4641 18.7026 21.9433 17.6417 22.3423 16.0557C23.7252 10.5417 28.659 6.69061 34.3365 6.69061C37.5815 6.69061 40.6524 7.94327 42.983 10.2188C43.7793 10.9956 44.9114 11.3266 46.0006 11.0992C46.6957 10.9544 47.4054 10.8807 48.1118 10.8807C52.0843 10.8807 55.6319 13.1142 57.3693 16.7087C57.9802 17.9727 59.3154 18.7253 60.7129 18.5812C61.0609 18.5464 61.4081 18.5294 61.7447 18.5294C67.4189 18.5294 72.0355 23.1452 72.0355 28.8186C72.0355 33.3737 69.056 37.2402 64.9484 38.5907C65.141 39.1556 65.2575 39.7544 65.2575 40.3832V45.427C72.9394 43.8037 78.7261 36.9764 78.7261 28.8178C78.7253 19.9415 71.8761 12.6335 63.1867 11.9003Z" fill="#D9D9D9"/>
</svg>
