<svg width="80" height="80" viewBox="0 0 80 80" fill="none" xmlns="http://www.w3.org/2000/svg">
<path fill-rule="evenodd" clip-rule="evenodd" d="M14.7748 39.6398C9.00422 39.6398 4.32432 44.3196 4.32432 50.0902C4.32432 55.8608 9.00422 60.5406 14.7748 60.5406H15.1351V39.6398H14.7748ZM0 50.0902C0 41.9314 6.61596 35.3154 14.7748 35.3154H17.2973C18.4914 35.3154 19.4595 36.2835 19.4595 37.4776V62.7028C19.4595 63.8969 18.4914 64.865 17.2973 64.865H14.7748C6.61596 64.865 0 58.249 0 50.0902Z" fill="#D9D9D9"/>
<path fill-rule="evenodd" clip-rule="evenodd" d="M60.54 37.4776C60.54 36.2835 61.5081 35.3154 62.7022 35.3154H65.2247C73.3835 35.3154 79.9995 41.9314 79.9995 50.0902C79.9995 58.249 73.3835 64.865 65.2247 64.865H62.7022C61.5081 64.865 60.54 63.8969 60.54 62.7028V37.4776ZM64.8644 39.6398V60.5406H65.2247C70.9953 60.5406 75.6752 55.8608 75.6752 50.0902C75.6752 44.3196 70.9953 39.6398 65.2247 39.6398H64.8644Z" fill="#D9D9D9"/>
<path fill-rule="evenodd" clip-rule="evenodd" d="M39.9997 4.32432C25.8696 4.32432 14.4142 15.7797 14.4142 29.9099V37.4775H10.0898V29.9099C10.0898 13.3915 23.4813 0 39.9997 0C56.5182 0 69.9096 13.3915 69.9096 29.9099V37.4775H65.5853V29.9099C65.5853 15.7797 54.1299 4.32432 39.9997 4.32432Z" fill="#D9D9D9"/>
<path fill-rule="evenodd" clip-rule="evenodd" d="M65.5857 72.7927V62.7026H69.91V72.7927C69.91 76.7742 66.6843 79.9999 62.7028 79.9999H55.1353V75.6756H62.7028C64.2961 75.6756 65.5857 74.386 65.5857 72.7927Z" fill="#D9D9D9"/>
<path fill-rule="evenodd" clip-rule="evenodd" d="M50.09 79.9999H45.0449V75.6755H50.09V79.9999Z" fill="#D9D9D9"/>
<path fill-rule="evenodd" clip-rule="evenodd" d="M37.8379 65.2252V60.1802H42.1622V65.2252H37.8379Z" fill="#D9D9D9"/>
<path d="M39.9999 15.135C31.8411 15.135 25.2251 21.751 25.2251 29.9098H29.5494C29.5494 24.1392 34.2293 19.4593 39.9999 19.4593C45.7704 19.4593 50.4503 24.1392 50.4503 29.9098C50.4503 33.5963 48.206 36.9106 44.784 38.28C40.5883 39.9579 37.8377 44.0195 37.8377 48.5386V55.135H42.162V48.5386C42.162 45.788 43.8362 43.3162 46.3905 42.2949C51.454 40.2688 54.7746 35.3647 54.7746 29.9098C54.7746 21.751 48.1587 15.135 39.9999 15.135Z" fill="#D9D9D9"/>
</svg>
