<svg viewBox="0 0 80 81" fill="none" xmlns="http://www.w3.org/2000/svg">
<path d="M43.2419 43.242L43.242 68.1248L49.0014 62.3654C50.2315 61.1353 52.2259 61.1352 53.456 62.3654C54.5983 63.5077 54.6799 65.3089 53.7008 66.5453L53.4561 66.8201L42.3194 77.9567C41.1771 79.099 39.3759 79.1806 38.1394 78.2015L37.8647 77.9567L26.728 66.8201C25.4979 65.5899 25.4979 63.5955 26.728 62.3654C27.8703 61.2231 29.6715 61.1415 30.908 62.1206L31.1827 62.3654L36.9421 68.1248L36.9421 43.242L12.0592 43.2419L17.8187 49.0014L18.0635 49.2761C19.0426 50.5126 18.9609 52.3138 17.8187 53.4561C16.5886 54.6862 14.5942 54.6862 13.364 53.4561L2.22734 42.3194L1.98256 42.0446C1.00346 40.8082 1.08509 39.007 2.22734 37.8647L13.364 26.728L13.6388 26.4833C14.8752 25.5042 16.6764 25.5857 17.8187 26.728C19.0488 27.9582 19.0488 29.9526 17.8187 31.1827L12.0593 36.9421L36.9421 36.9421L36.9421 12.0592L31.1827 17.8187C29.9525 19.0488 27.9582 19.0488 26.728 17.8187C25.5858 16.6764 25.5041 14.8752 26.4832 13.6388L26.728 13.364L37.8647 2.22734C39.007 1.08505 40.8082 1.00349 42.0446 1.98257L42.3194 2.22734L53.4561 13.364C54.6862 14.5941 54.6862 16.5885 53.456 17.8187C52.3138 18.961 50.5125 19.0425 49.2761 18.0635L49.0014 17.8187L43.242 12.0593L43.2419 36.9421L68.1248 36.9421L62.3654 31.1827L62.1206 30.908C61.1416 29.6716 61.2231 27.8703 62.3654 26.728C63.5956 25.4979 65.59 25.4979 66.8201 26.728L77.9567 37.8647L78.2015 38.1394C79.1806 39.3758 79.099 41.1771 77.9567 42.3194L66.8201 53.4561L66.5453 53.7008C65.3089 54.6799 63.5076 54.5983 62.3654 53.4561C61.1353 52.2259 61.1352 50.2315 62.3654 49.0014L68.1248 43.2419L43.2419 43.242Z" fill="#D9D9D9"/>
</svg>
