<svg viewBox="0 0 80 80" fill="none" xmlns="http://www.w3.org/2000/svg">
<path d="M75.8425 67.4417L64.731 56.3417C62.879 54.4917 60.1011 54.4917 58.5579 56.3417L54.2367 52.025C58.8665 46.7833 61.6444 40 61.6444 32.6C61.6444 16.2583 48.3723 3 32.3222 3C16.2722 3 3 16.2583 3 32.2917C3 48.325 16.2722 61.5833 32.3222 61.5833C39.7299 61.5833 46.829 58.8083 51.7675 54.1833L56.0886 58.5C54.5454 60.35 54.5454 63.125 56.0886 64.6667L67.2002 75.7667C68.1262 76.6917 69.3608 77 70.5954 77C71.83 77 73.0647 76.6917 73.9906 75.7667L75.8425 73.9167C77.3858 72.0667 77.3858 68.9833 75.8425 67.4417ZM20.902 8.85833L27.3837 14.4083L24.9145 19.3417C24.6058 19.65 24.6058 20.2667 24.6058 20.575C24.6058 20.8833 25.2231 21.1917 25.5318 21.5L33.2482 23.9667L31.0876 30.1333L26.7664 27.975C26.4578 27.6667 25.8405 27.6667 25.5318 27.6667C25.2231 27.6667 24.9145 28.2833 24.6058 28.5917L21.8279 36.9167H18.4327C17.8154 36.9167 17.5068 37.225 17.1981 37.5333C16.8895 37.8417 16.8895 38.4583 16.8895 38.7667L18.1241 44.0083L16.8895 45.2417L11.951 40.3083C11.6423 40.3083 11.025 40 10.7164 40H7.32117C6.3952 37.5333 6.08655 35.0667 6.08655 32.2917C6.08655 22.1167 12.2596 13.175 20.902 8.85833ZM8.55579 43.0833H10.0991L15.9635 48.9417C15.9635 49.25 16.5808 49.25 16.8895 49.25C17.1981 49.25 17.8154 49.25 18.1241 48.9417L21.2106 45.8583C21.5193 45.2417 21.5193 44.625 21.5193 44.3167L20.2847 40H23.0626C23.6799 40 24.2972 39.6917 24.6058 39.075L27.0751 31.3667L31.7049 33.525C32.0136 33.8333 32.6309 33.8333 32.9395 33.8333C33.2482 33.525 33.5568 33.2167 33.8655 32.9083L36.952 23.6583C37.2607 22.7333 36.6434 22.1167 36.0261 21.8083L28.3097 19.0333L30.4703 14.4083C31.0876 13.7917 30.7789 13.175 30.1616 12.5583L23.9885 7.31667C26.7664 6.7 29.5443 6.08333 32.3222 6.08333C44.9771 6.08333 55.4713 15.025 57.9406 27.05L50.2242 31.0583C49.6069 31.0583 49.2982 31.675 49.2982 32.2917V34.7583L47.1376 36.9167H41.5819C40.9645 36.9167 40.3472 37.225 40.3472 37.8417L37.2607 44.0083C36.952 44.625 36.952 45.2417 37.5693 45.8583L40.6559 48.9417C40.9645 49.25 41.2732 49.25 41.8905 49.25H43.7424L45.5944 54.8C41.5819 56.9583 37.2607 58.5 32.3222 58.5C21.8279 58.5 12.5683 52.025 8.55579 43.0833ZM48.0636 53.2583L46.2117 47.0917C45.903 46.475 45.2857 46.1667 44.6684 46.1667H42.1992L40.3472 44.3167L42.5078 40H47.755C48.0636 40 48.6809 39.6917 48.9896 39.6917L52.0761 36.6083C52.3848 36.3 52.3848 35.9917 52.3848 35.375V33.2167L58.5579 30.1333C58.5579 30.75 58.5579 31.3667 58.5579 32.2917C58.5579 40.925 54.5454 48.325 48.0636 53.2583ZM73.682 71.7583L71.83 73.6083C71.2127 74.225 70.2868 74.225 69.6694 73.6083L58.5579 62.5083C57.9406 61.8917 57.9406 60.9667 58.5579 60.35L60.4098 58.5C60.7185 58.1917 61.0271 58.1917 61.6444 58.1917C62.2617 58.1917 62.5704 58.1917 62.879 58.5L73.9906 69.6C73.9906 70.2167 73.9906 71.1417 73.682 71.7583Z" fill="#D9D9D9"/>
</svg>
