<svg width="48" height="50" viewBox="0 0 48 50" fill="none" xmlns="http://www.w3.org/2000/svg">
<path d="M21.6265 26.6946C21.6265 26.1519 22.0669 25.7115 22.6095 25.7115H38.3379C38.8805 25.7115 39.3209 26.1519 39.3209 26.6946C39.3209 27.2372 38.8805 27.6776 38.3379 27.6776H22.6095C22.0669 27.6776 21.6265 27.2372 21.6265 26.6946Z" fill="#FFA28D"/>
<path d="M37.1387 29.6437C36.136 39.0807 31.3605 45.5294 23.3567 47.0039C15.6104 45.3524 10.9902 38.9431 10.0269 29.6437H37.1387Z" fill="#FFA28D"/>
<path d="M31.3269 2.55151C31.0123 2.11898 30.4048 1.98136 29.9526 2.27626C29.5004 2.59083 29.3844 3.20031 29.6754 3.6525C31.9757 7.09309 31.8793 9.96353 30.2672 11.8509C29.7756 12.4408 29.3411 12.8143 28.6727 13.2272C27.7703 13.758 26.8266 14.3282 26.2151 15.3702C25.2124 17.1003 25.3697 19.204 26.6673 21.3076C26.8443 21.6222 27.1588 21.7795 27.4931 21.7795L28.0042 21.6419C28.4761 21.347 28.6157 20.7375 28.3385 20.2853C27.6897 19.2433 27.0979 17.7294 27.9079 16.3532C28.2795 15.7437 28.9302 15.3505 29.6734 14.918C30.4225 14.4658 31.0516 13.9546 31.7594 13.1289C34.4332 10.0028 33.6075 5.97244 31.3269 2.55151Z" fill="#FFA28D"/>
<path d="M21.4378 0.56575C21.1429 0.133219 20.5138 0.0152554 20.0812 0.329824C19.629 0.644392 19.5307 1.25387 19.8453 1.70606C20.8283 3.12162 21.831 5.3236 21.5951 7.21101C21.3395 9.354 19.7077 9.82586 16.9159 10.4353C16.0705 10.6319 15.2251 10.8089 14.419 11.0841C12.0401 11.9099 10.6245 13.2075 10.1133 15.0556C9.50387 17.1592 9.89708 19.6954 11.0767 21.3666C11.2733 21.6418 11.5682 21.7795 11.8828 21.7795C12.0794 21.7795 12.276 21.7205 12.4529 21.6025C12.9051 21.2879 13.0034 20.6785 12.6889 20.2263C11.8631 19.0663 11.5682 17.1199 12.0008 15.5864C12.335 14.3871 13.318 13.5417 15.0678 12.9322C15.7559 12.6963 16.5227 12.539 17.3288 12.3621C19.9436 11.7919 23.0893 11.0841 23.5611 7.44693C23.917 4.36023 22.0296 1.39149 21.4378 0.56575Z" fill="#FFA28D"/>
<path d="M29.3532 2.55151C29.0387 2.11898 28.4292 1.98136 27.977 2.27626C27.5248 2.59083 27.4068 3.20031 27.7017 3.6525C30.002 7.09309 29.9037 9.96353 28.2916 11.8509C27.8 12.4408 27.3675 12.8143 26.6991 13.2272C25.7947 13.758 24.851 14.3282 24.2415 15.3702C23.2388 17.1003 23.3961 19.204 24.6937 21.3076C24.8706 21.6222 25.1852 21.7795 25.5194 21.7795L26.0306 21.6419C26.5024 21.347 26.6401 20.7375 26.3648 20.2853C25.716 19.2433 25.1262 17.7294 25.9323 16.3532C26.3039 15.7437 26.9546 15.3505 27.6998 14.918C28.4469 14.4658 29.076 13.9546 29.7858 13.1289C32.4596 10.0028 31.6338 5.97244 29.3532 2.55151Z" fill="#2D2220"/>
<path d="M19.4642 0.56575C19.1693 0.133219 18.5401 0.0152554 18.1076 0.329824C17.6554 0.644392 17.5571 1.25387 17.8717 1.70606C18.8547 3.12162 19.8574 5.3236 19.6215 7.21101C19.3659 9.354 17.734 9.82586 14.9422 10.4353C14.0968 10.6319 13.2514 10.8089 12.4454 11.0841C10.0664 11.9099 8.65088 13.2075 8.13971 15.0556C7.53023 17.1592 7.92344 19.6954 9.10307 21.3666C9.29968 21.6418 9.59459 21.7795 9.90915 21.7795C10.1058 21.7795 10.3024 21.7205 10.4793 21.6025C10.9315 21.2879 11.0298 20.6785 10.7152 20.2263C9.88949 19.0663 9.59459 17.1199 10.0271 15.5864C10.3613 14.3871 11.3444 13.5417 13.0942 12.9322C13.7823 12.6963 14.549 12.539 15.3551 12.3621C17.97 11.7919 21.1156 11.0841 21.5875 7.44693C21.9414 4.36023 20.054 1.39149 19.4642 0.56575Z" fill="#2D2220"/>
<path d="M39.2621 27.6972C39.2817 27.0485 39.321 26.3997 39.321 25.7115C39.321 24.6302 38.4363 23.7455 37.355 23.7455H1.96605C0.884723 23.7455 0 24.6302 0 25.7115C0 36.7018 4.08939 44.0548 10.7543 47.3381H9.83026C9.27977 47.3381 8.84723 47.7706 8.84723 48.3211C8.84723 48.8716 9.27977 49.3042 9.83026 49.3042H29.4908C30.0413 49.3042 30.4738 48.8716 30.4738 48.3211C30.4738 47.7706 30.0413 47.3381 29.4908 47.3381H28.5667C29.6677 46.7876 30.7097 46.1388 31.6731 45.3721C45.1012 45.2934 47.3012 38.0583 47.3012 34.5588C47.3032 29.8009 44.2165 27.8152 39.2621 27.6972ZM19.6605 47.3381C8.25742 47.3381 1.96605 38.7465 1.96605 25.7115H37.355C37.355 28.5623 37.0601 31.1968 36.4506 33.5757H24.5756C24.0252 33.5757 23.5926 34.0083 23.5926 34.5588C23.5926 35.1093 24.0252 35.5418 24.5756 35.5418H35.8804C35.4086 36.977 34.7991 38.2943 34.0913 39.4739H26.5417C25.9912 39.4739 25.5587 39.9064 25.5587 40.4569C25.5587 41.0074 25.9912 41.44 26.5417 41.44H32.7544C29.766 45.1951 25.3424 47.3381 19.6605 47.3381ZM33.8358 43.3077C36.7062 40.0244 38.5346 35.4435 39.1048 29.6436C44.4544 29.7419 45.1032 32.0619 45.1032 34.5588C45.1012 36.0923 44.6097 42.3837 33.8358 43.3077Z" fill="#2D2220"/>
<path d="M37.3552 27.6776H1.96631V29.6437H37.3552V27.6776Z" fill="#2D2220"/>
</svg>
