<svg width="56" height="50" viewBox="0 0 56 50" fill="none" xmlns="http://www.w3.org/2000/svg">
<path d="M0 5V45H56V5H0ZM54 43H2V7H54V43Z" fill="#2D2220"/>
<path d="M6 9V13H16V15H10V21H6V43H54V9H6ZM22 21H16V27H14V19H22V21ZM36 31H30V37H28V29H36V31ZM48 15H36V27H34V13H48V15Z" fill="#5FFFBA"/>
<path d="M18 17V11H6V23H12V29H24V17H18ZM12 21H8V13H16V17H12V21ZM22 27H14V19H22V27Z" fill="#2D2220"/>
<path d="M22 21H16V27H22V21Z" fill="#2D2220"/>
<path d="M16 15V17H12V21H10V15H16Z" fill="#2D2220"/>
<path d="M22 21H16V27H22V21Z" fill="#FFD561"/>
<path d="M16 15V17H12V21H10V15H16Z" fill="#FFA28D"/>
<path d="M32 11V27H26V39H38V35H50V11H32ZM36 37H28V29H36V37ZM48 33H38V27H34V13H48V33Z" fill="#2D2220"/>
<path d="M36 31H30V37H36V31Z" fill="#FFA28D"/>
<path d="M48 15V33H38V27H36V15H48Z" fill="#FFD561"/>
</svg>
