<svg width="48" height="50" viewBox="0 0 48 50" fill="none" xmlns="http://www.w3.org/2000/svg">
<path d="M42.832 32.9695C42.4978 34.1209 41.6249 35.0495 40.5106 35.4395C40.5478 35.4952 40.5849 35.5881 40.6035 35.6438H32.562C31.6335 35.6438 31.6335 37.5009 32.562 37.5009H39.2849C40.0649 37.5009 40.7335 37.9466 41.012 38.6338C40.7149 39.8966 39.9163 40.9348 38.6367 41.2152H30.7049C29.7763 41.2152 29.7763 43.0723 30.7049 43.0723H38.1335C38.1725 43.0723 38.8949 43.0538 39.1753 44.0195V44.0381C38.4492 45.4513 36.3896 46.4895 34.7535 46.7699C33.3606 47.0113 33.0839 47.2342 31.9492 47.4571C29.182 47.9752 26.1177 48.4395 22.292 48.5881C22.0877 48.6085 21.8649 48.6085 21.642 48.6085H21.5863C15.1235 48.5881 11.4277 44.8942 11.4277 44.8942V30.9656C11.4277 30.9656 12.3749 28.1985 16.0706 22.6085C20.602 15.7742 20.7135 20.7328 25.0035 8.99562C25.2635 8.27133 25.7463 7.62133 26.6192 7.67704C27.3453 7.73276 27.9377 8.19705 28.0863 8.8099C27.8839 12.0599 27.271 14.9013 26.2292 17.0556C25.5792 18.4299 24.9477 19.7299 24.5949 21.1228C24.4463 21.7542 24.4835 22.1628 24.5949 22.2928C24.6135 22.3113 24.6506 22.3485 24.6877 22.3671C24.6692 22.4042 24.6692 22.4599 24.6506 22.497C24.1306 24.5956 24.8177 26.3228 28.0306 26.3228H41.142C41.9035 26.3228 42.5535 26.7871 42.832 27.4371C42.6445 28.1056 42.2545 28.6999 41.7363 29.1456C41.922 29.3128 42.0873 29.4799 42.2192 29.6842C41.922 29.9052 41.5506 30.0723 41.142 30.0723H32.562C31.6335 30.0723 31.6335 31.9295 32.562 31.9295H41.142C41.8849 31.9295 42.5349 32.3381 42.832 32.9695Z" fill="#FFD561"/>
<path d="M7.71359 31.001C7.71359 30.4884 7.29759 30.0724 6.78502 30.0724C6.27245 30.0724 5.85645 30.4884 5.85645 31.001V45.8581C5.85645 46.3707 6.27245 46.7867 6.78502 46.7867C7.29759 46.7867 7.71359 46.3707 7.71359 45.8581V31.001Z" fill="#5FFFBA"/>
<path d="M41.7377 29.1439C42.5177 29.831 43.0006 30.8153 43.0006 31.911C43.0006 33.5063 41.9606 34.9382 40.512 35.4377C40.9206 36.0339 41.1434 36.7396 41.1434 37.501C41.1434 39.3024 40.2706 40.8439 38.5806 41.1967C39.2863 41.1967 39.5277 42.5153 39.3791 43.3882C39.082 45.1339 36.6324 46.4524 34.7549 46.7682C33.362 47.0096 33.0853 47.2324 31.9506 47.4553C28.6077 48.0867 24.8191 48.6439 19.7863 48.6439C12.5991 48.6439 8.43913 44.5767 8.25342 44.391L7.71484 43.8524V28.8467L7.8077 28.5496C7.86342 28.4214 8.9777 25.541 12.6734 19.7672C17.632 12.0043 17.0563 18.04 21.3463 6.67429C21.9406 5.05857 23.092 4 24.652 4L24.8749 4.01857C26.7506 4.13 28.1991 5.63429 28.1434 7.43572C28.0506 11.2614 27.4191 14.6043 26.2306 17.0557C25.5806 18.43 24.9491 19.73 24.5963 21.1229C24.4477 21.7543 24.4849 22.1629 24.5963 22.2929C24.7077 22.4229 25.1534 22.6439 26.1749 22.6439H32.7863C33.3063 22.6439 33.7149 23.0524 33.7149 23.5724C33.7149 24.0924 33.3063 24.501 32.7863 24.501H26.1749C22.962 24.501 22.2749 22.7739 22.7949 20.6753C23.8534 16.441 26.1563 12.4853 26.2863 7.37815C26.3234 6.59814 25.6363 5.911 24.7634 5.85529C23.8906 5.79957 23.4077 6.44957 23.1477 7.17386C18.8577 18.911 18.7463 13.9524 14.2148 20.7867C10.5191 26.3767 9.57199 29.1439 9.57199 29.1439V43.0724C9.57199 43.0724 13.2863 46.7867 19.7863 46.7867C26.2863 46.7867 28.8863 45.8582 34.4577 44.9296C35.4606 44.7624 37.4291 44.1124 37.4291 43.0724C37.4291 41.2339 36.3149 41.2153 36.2777 41.2153H32.5634C31.6349 41.2153 31.6349 39.3582 32.5634 39.3582H37.4291C38.4506 39.3582 39.2863 38.541 39.2863 37.501C39.2863 36.4796 38.4506 35.6439 37.4291 35.6439H34.4206C33.492 35.6439 33.492 33.7867 34.4206 33.7867H39.2863C40.3077 33.7867 41.1434 32.9324 41.1434 31.911C41.1434 30.8896 40.3077 30.0724 39.2863 30.0724H34.4206C33.492 30.0724 33.492 28.2153 34.4206 28.2153H39.2863C40.3077 28.2153 41.1434 27.3982 41.1434 26.3582C41.1434 25.3367 40.3077 24.501 39.2863 24.501H36.5006C35.9806 24.501 35.572 24.0924 35.572 23.5724C35.572 23.0524 35.9806 22.6439 36.5006 22.6439H39.2863C41.3291 22.6439 43.0006 24.3153 43.0006 26.3582C43.0006 27.4724 42.5177 28.4753 41.7377 29.1439Z" fill="#2D2220"/>
<path d="M33.7146 23.5724C33.7146 23.0598 33.2986 22.6438 32.786 22.6438C32.2734 22.6438 31.8574 23.0598 31.8574 23.5724C31.8574 24.0849 32.2734 24.5009 32.786 24.5009C33.2986 24.5009 33.7146 24.0849 33.7146 23.5724Z" fill="#2D2220"/>
<path d="M5.85714 36.5725C5.85714 37.0851 5.44114 37.5011 4.92857 37.5011C4.416 37.5011 4 37.0851 4 36.5725V29.1439C4 28.6313 4.416 28.2153 4.92857 28.2153C5.44114 28.2153 5.85714 28.6313 5.85714 29.1439V36.5725Z" fill="#2D2220"/>
<path d="M5.85714 40.2867C5.85714 39.7742 5.44114 39.3582 4.92857 39.3582C4.416 39.3582 4 39.7742 4 40.2867V44.001C4 44.5136 4.416 44.9296 4.92857 44.9296C5.44114 44.9296 5.85714 44.5136 5.85714 44.001V40.2867Z" fill="#2D2220"/>
</svg>
