<svg width="44" height="44" viewBox="0 0 40 40" fill="none" xmlns="http://www.w3.org/2000/svg">
<path d="M32.9619 31.9144C36.0256 28.5642 37.8998 24.111 37.8998 19.2091C37.8998 9.04477 29.8621 0.754744 19.7879 0.304199V2.10638C28.8709 2.55692 36.1157 10.036 36.1157 19.2091C36.1157 28.6525 28.4204 36.3298 18.9409 36.3298C9.76781 36.3298 2.27075 29.1391 1.80218 20.1101H0C0.468567 30.1303 8.77661 38.1139 18.9409 38.1139C23.8428 38.1139 28.314 36.2397 31.6823 33.194L41.8304 43.3042L43.1099 42.0427L32.9619 31.9144ZM17.9857 2.10638V0.304199C8.25398 0.790788 0.468567 8.59422 0 18.308H1.80218C2.25272 9.58542 9.24518 2.59297 17.9857 2.10638Z" fill="#2D2220"/>
<path d="M19.7881 3.90857V5.72877C26.8526 6.16129 32.4934 12.0364 32.4934 19.2091C32.4934 26.6701 26.4021 32.7254 18.941 32.7254C11.7684 32.7254 5.87524 27.1567 5.44272 20.1102H3.60449C4.07306 28.1659 10.7591 34.5276 18.941 34.5276C27.4293 34.5276 34.2956 27.6793 34.2956 19.2091C34.2956 11.0452 27.8798 4.35911 19.7881 3.90857ZM17.9859 5.74679V3.92659C10.2365 4.39516 4.05504 10.5947 3.60449 18.308H5.44272C5.85722 11.5859 11.2457 6.19734 17.9859 5.74679Z" fill="#2D2220"/>
<path d="M32.4931 19.209C32.4931 25.4265 28.276 30.6528 22.545 32.2207C16.8141 30.6528 12.5952 25.4265 12.5952 19.209C12.5952 12.9915 16.8123 7.76516 22.545 6.19727C28.276 7.76516 32.4931 12.9915 32.4931 19.209Z" fill="#31CFFF"/>
<path d="M18.8868 2.08838C9.42537 2.08838 1.76611 9.74764 1.76611 19.2091C1.76611 28.6705 9.42537 36.3298 18.8868 36.3298C28.3483 36.3298 36.0075 28.6705 36.0075 19.2091C36.0075 9.74764 28.3483 2.08838 18.8868 2.08838ZM18.8868 34.5276C10.4346 34.5276 3.56829 27.6613 3.56829 19.2091C3.56829 10.7569 10.4346 3.89056 18.8868 3.89056C27.339 3.89056 34.2053 10.7569 34.2053 19.2091C34.2053 27.6613 27.339 34.5276 18.8868 34.5276Z" fill="#5FFFBA"/>
<path fill-rule="evenodd" clip-rule="evenodd" d="M24.997 9.63534C25.3079 10.0239 25.2449 10.591 24.8563 10.9019L15.8454 18.1106C15.4568 18.4215 14.8897 18.3585 14.5788 17.9699C14.268 17.5813 14.331 17.0142 14.7196 16.7033L23.7305 9.49461C24.1191 9.18372 24.6861 9.24673 24.997 9.63534Z" fill="#2D2220"/>
<path fill-rule="evenodd" clip-rule="evenodd" d="M30.4037 9.63534C30.7146 10.0239 30.6516 10.591 30.263 10.9019L21.2521 18.1106C20.8635 18.4215 20.2965 18.3585 19.9856 17.9699C19.6747 17.5813 19.7377 17.0142 20.1263 16.7033L29.1372 9.49461C29.5258 9.18372 30.0929 9.24673 30.4037 9.63534Z" fill="#2D2220"/>
</svg>
