<svg width="1044" height="110" viewBox="0 0 1044 110" fill="none" xmlns="http://www.w3.org/2000/svg">
<path d="M61.7458 60.5165C72.0322 65.2968 82.6532 67.6779 91.6006 67.2089H91.7635L92.4058 3.6128C92.4123 3.10661 92.2805 2.6082 92.0244 2.17108C91.7682 1.73397 91.3975 1.37466 90.952 1.13172C90.5065 0.888795 90.0031 0.771421 89.4958 0.792207C88.9884 0.812992 88.4963 0.971152 88.0723 1.2497L34.4152 37.3275C38.7577 45.5983 48.7907 54.4915 61.7458 60.5165Z" fill="#1877F2"/>
<path d="M89.3932 73.3061C80.0296 73.3061 69.4176 70.7445 59.1856 65.9913C45.0724 59.4342 34.4604 50.072 29.3308 40.7368L2.08154 59.0914C1.60986 59.4064 1.24555 59.8571 1.03708 60.3836C0.828616 60.91 0.785871 61.4873 0.914533 62.0386C1.04319 62.5898 1.33716 63.089 1.75734 63.4696C2.17751 63.8503 2.70397 64.0943 3.26668 64.1694L49.0802 70.3838C51.7722 70.7522 54.2398 72.0783 56.0282 74.1178L86.471 108.816C86.8434 109.242 87.3371 109.545 87.8864 109.685C88.4358 109.825 89.0149 109.796 89.5468 109.6C90.0788 109.404 90.5385 109.052 90.8649 108.59C91.1914 108.127 91.3691 107.577 91.3745 107.012L91.7182 73.2519C90.9583 73.288 90.1803 73.3061 89.3932 73.3061Z" fill="#1877F2"/>
<path d="M89.3932 68.4897C80.0296 68.4897 69.4176 65.9282 59.1856 61.1749C35.1208 49.9818 21.1886 30.6621 27.5214 17.1871C33.8542 3.71202 57.6023 1.92617 81.6671 13.1103C89.2333 16.5646 96.1993 21.1985 102.303 26.8379C102.592 27.1109 102.825 27.438 102.987 27.8006C103.15 28.1633 103.239 28.5542 103.25 28.9512C103.261 29.3482 103.193 29.7434 103.051 30.1144C102.909 30.4853 102.695 30.8247 102.421 31.1131C102.147 31.4015 101.819 31.6333 101.455 31.7953C101.091 31.9573 100.699 32.0463 100.301 32.0571C99.9027 32.068 99.5063 32.0006 99.1342 31.8588C98.7622 31.7169 98.4218 31.5034 98.1325 31.2303C92.5111 26.0438 86.0982 21.7815 79.134 18.6031C58.8237 9.15977 37.7082 9.69191 33.0038 19.7125C28.2994 29.7331 41.4627 46.2658 61.7458 55.7001C72.0322 60.4804 82.6442 62.8615 91.6006 62.3925C99.8966 61.9596 105.65 59.1726 107.822 54.5456C110.074 49.7202 107.894 44.2184 105.669 40.4482C105.467 40.1059 105.334 39.7273 105.279 39.334C105.224 38.9407 105.247 38.5404 105.347 38.156C105.447 37.7715 105.622 37.4105 105.862 37.0935C106.102 36.7765 106.402 36.5097 106.745 36.3083C107.088 36.1069 107.468 35.975 107.863 35.9199C108.257 35.8649 108.659 35.8879 109.044 35.9875C109.43 36.0872 109.792 36.2616 110.11 36.5008C110.428 36.74 110.696 37.0393 110.898 37.3816C115.095 44.4799 115.955 51.488 113.322 57.1071C110.192 63.8447 102.593 67.8764 91.9444 68.4175C91.106 68.4656 90.2556 68.4897 89.3932 68.4897Z" fill="#1877F2"/>
<path d="M89.3932 68.4897C80.0297 68.4897 69.4177 65.9282 59.1856 61.1749C35.1209 49.9818 21.1886 30.6621 27.5215 17.1871C33.8543 3.71202 57.6024 1.92617 81.6672 13.1103C89.2334 16.5646 96.1993 21.1985 102.303 26.8379C102.592 27.1109 102.825 27.438 102.987 27.8006C103.15 28.1633 103.239 28.5542 103.25 28.9512C103.261 29.3482 103.193 29.7434 103.051 30.1144C102.909 30.4853 102.695 30.8247 102.421 31.1131C102.147 31.4015 101.819 31.6333 101.455 31.7953C101.091 31.9573 100.699 32.0463 100.301 32.0571C99.9028 32.068 99.5063 32.0006 99.1343 31.8588C98.7622 31.7169 98.4218 31.5034 98.1325 31.2303C92.5112 26.0438 86.0983 21.7815 79.134 18.6031C58.8237 9.15977 37.7083 9.69191 33.0039 19.7125C28.2995 29.7331 41.4627 46.2658 61.7459 55.7001C72.0322 60.4804 82.6442 62.8615 91.6007 62.3925C99.8967 61.9596 105.65 59.1726 107.822 54.5456C110.074 49.7202 107.894 44.2184 105.669 40.4482C105.467 40.1059 105.334 39.7273 105.279 39.334C105.224 38.9407 105.247 38.5404 105.347 38.156C105.447 37.7715 105.622 37.4105 105.862 37.0935C106.102 36.7765 106.402 36.5097 106.745 36.3083C107.089 36.1069 107.468 35.975 107.863 35.9199C108.257 35.8649 108.659 35.8879 109.044 35.9875C109.43 36.0872 109.792 36.2616 110.11 36.5008C110.428 36.74 110.696 37.0393 110.898 37.3816C115.095 44.4799 115.955 51.488 113.322 57.1071C110.192 63.8447 102.593 67.8764 91.9444 68.4175C91.1061 68.4656 90.2557 68.4897 89.3932 68.4897Z" fill="#1877F2"/>
<path d="M178.439 101.272L149.127 11.6717H170.631L196.103 91.0317H185.351L211.975 11.6717H231.175L256.775 91.0317H246.407L272.519 11.6717H292.359L263.047 101.272H240.775L218.119 31.6397H224.007L200.711 101.272H178.439Z" fill="#1877F2"/>
<path d="M323.007 47.7677H366.143V63.8957H323.007V47.7677ZM324.543 84.6317H373.311V101.272H303.935V11.6717H371.647V28.3117H324.543V84.6317Z" fill="#1877F2"/>
<path d="M389.81 101.272V11.6717H433.586C444.85 11.6717 453.298 13.805 458.93 18.0717C464.647 22.3383 467.506 27.9703 467.506 34.9677C467.506 39.661 466.354 43.757 464.05 47.2557C461.746 50.669 458.589 53.3143 454.578 55.1917C450.567 57.069 445.959 58.0077 440.754 58.0077L443.186 52.7597C448.818 52.7597 453.81 53.6983 458.162 55.5757C462.514 57.3677 465.885 60.0557 468.274 63.6397C470.749 67.2237 471.986 71.6184 471.986 76.8237C471.986 84.5037 468.957 90.5197 462.898 94.8717C456.839 99.1383 447.922 101.272 436.146 101.272H389.81ZM410.418 85.6557H434.61C439.986 85.6557 444.039 84.8023 446.77 83.0957C449.586 81.3037 450.994 78.4877 450.994 74.6477C450.994 70.893 449.586 68.1197 446.77 66.3277C444.039 64.4503 439.986 63.5117 434.61 63.5117H408.882V48.4077H431.026C436.061 48.4077 439.901 47.5543 442.546 45.8477C445.277 44.0557 446.642 41.3677 446.642 37.7837C446.642 34.285 445.277 31.6823 442.546 29.9757C439.901 28.1837 436.061 27.2877 431.026 27.2877H410.418V85.6557Z" fill="#1877F2"/>
<path d="M475.909 101.272L515.845 11.6717H536.325L576.389 101.272H554.629L521.861 22.1677H530.053L497.157 101.272H475.909ZM495.877 82.0717L501.381 66.3277H547.461L553.093 82.0717H495.877Z" fill="#1877F2"/>
<path d="M627.699 102.808C620.616 102.808 614.088 101.698 608.115 99.4797C602.227 97.1757 597.064 93.933 592.627 89.7517C588.275 85.5703 584.862 80.6637 582.387 75.0317C579.998 69.3997 578.803 63.213 578.803 56.4717C578.803 49.7303 579.998 43.5437 582.387 37.9117C584.862 32.2797 588.318 27.373 592.755 23.1917C597.192 19.0103 602.398 15.8103 608.371 13.5917C614.344 11.2877 620.915 10.1357 628.083 10.1357C636.019 10.1357 643.144 11.4583 649.459 14.1037C655.859 16.749 661.235 20.589 665.587 25.6237L652.275 37.9117C649.032 34.4983 645.491 31.981 641.651 30.3597C637.811 28.653 633.63 27.7997 629.107 27.7997C624.755 27.7997 620.787 28.4823 617.203 29.8477C613.619 31.213 610.504 33.1757 607.859 35.7357C605.299 38.2957 603.294 41.325 601.843 44.8237C600.478 48.3223 599.795 52.205 599.795 56.4717C599.795 60.653 600.478 64.493 601.843 67.9917C603.294 71.4903 605.299 74.5623 607.859 77.2077C610.504 79.7677 613.576 81.7303 617.075 83.0957C620.659 84.461 624.584 85.1437 628.851 85.1437C632.947 85.1437 636.915 84.5037 640.755 83.2237C644.68 81.8583 648.478 79.597 652.147 76.4397L663.923 91.4157C659.059 95.085 653.384 97.901 646.899 99.8637C640.499 101.826 634.099 102.808 627.699 102.808ZM644.979 88.7277V55.0637H663.923V91.4157L644.979 88.7277Z" fill="#1877F2"/>
<path d="M702.257 47.7677H745.393V63.8957H702.257V47.7677ZM703.793 84.6317H752.561V101.272H683.185V11.6717H750.897V28.3117H703.793V84.6317Z" fill="#1877F2"/>
<path d="M769.06 101.272V11.6717H786.212L839.076 76.1837H830.756V11.6717H851.236V101.272H834.212L781.22 36.7597H789.54V101.272H769.06Z" fill="#1877F2"/>
<path d="M915.315 102.808C908.403 102.808 901.96 101.698 895.987 99.4797C890.099 97.1757 884.979 93.933 880.627 89.7517C876.275 85.5703 872.862 80.6637 870.387 75.0317C867.998 69.3997 866.803 63.213 866.803 56.4717C866.803 49.7303 867.998 43.5437 870.387 37.9117C872.862 32.2797 876.275 27.373 880.627 23.1917C885.064 19.0103 890.227 15.8103 896.115 13.5917C902.003 11.2877 908.446 10.1357 915.443 10.1357C923.208 10.1357 930.206 11.501 936.435 14.2317C942.75 16.877 948.04 20.8023 952.307 26.0077L938.995 38.2957C935.923 34.797 932.51 32.1943 928.755 30.4877C925 28.6957 920.904 27.7997 916.467 27.7997C912.286 27.7997 908.446 28.4823 904.947 29.8477C901.448 31.213 898.419 33.1757 895.859 35.7357C893.299 38.2957 891.294 41.325 889.843 44.8237C888.478 48.3223 887.795 52.205 887.795 56.4717C887.795 60.7383 888.478 64.621 889.843 68.1197C891.294 71.6183 893.299 74.6477 895.859 77.2077C898.419 79.7677 901.448 81.7303 904.947 83.0957C908.446 84.461 912.286 85.1437 916.467 85.1437C920.904 85.1437 925 84.2903 928.755 82.5837C932.51 80.7917 935.923 78.1037 938.995 74.5197L952.307 86.8077C948.04 92.013 942.75 95.981 936.435 98.7117C930.206 101.442 923.166 102.808 915.315 102.808Z" fill="#1877F2"/>
<path d="M987.832 101.272V64.6637L992.568 77.2077L953.144 11.6717H975.16L1005.37 61.9757H992.696L1023.03 11.6717H1043.38L1003.96 77.2077L1008.57 64.6637V101.272H987.832Z" fill="#1877F2"/>
</svg>
