<svg width="512" height="512" viewBox="0 0 512 512" fill="none" xmlns="http://www.w3.org/2000/svg">
<g clip-path="url(#clip0_26_946)">
<path d="M271.341 276.642C311.764 295.457 353.503 304.828 388.665 302.982H389.305L391.829 52.682C391.855 50.6898 391.337 48.7282 390.33 47.0078C389.324 45.2874 387.867 43.8732 386.116 42.9171C384.366 41.961 382.387 41.499 380.393 41.5808C378.4 41.6626 376.466 42.2851 374.799 43.3814L163.936 185.376C181.002 217.928 220.43 252.929 271.341 276.642Z" fill="white"/>
<path d="M379.99 326.979C343.193 326.979 301.49 316.898 261.28 298.19C205.817 272.383 164.114 235.535 143.956 198.794L36.8707 271.034C35.0171 272.273 33.5855 274.047 32.7662 276.119C31.947 278.191 31.779 280.463 32.2846 282.633C32.7902 284.803 33.9455 286.767 35.5967 288.265C37.2479 289.763 39.3168 290.724 41.5282 291.019L221.567 315.478C232.146 316.928 241.844 322.147 248.872 330.174L368.507 466.737C369.97 468.415 371.91 469.609 374.069 470.16C376.228 470.711 378.504 470.594 380.594 469.824C382.685 469.054 384.491 467.667 385.774 465.847C387.057 464.028 387.755 461.862 387.776 459.637L389.127 326.766C386.141 326.908 383.083 326.979 379.99 326.979Z" fill="white"/>
<path d="M379.99 308.023C343.193 308.023 301.49 297.942 261.28 279.234C166.709 235.18 111.958 159.142 136.845 106.107C161.732 53.0725 255.058 46.0438 349.628 90.062C379.362 103.657 406.737 121.896 430.724 144.091C431.861 145.165 432.775 146.453 433.413 147.88C434.052 149.307 434.402 150.846 434.445 152.408C434.488 153.971 434.222 155.526 433.663 156.986C433.104 158.446 432.262 159.782 431.186 160.917C430.11 162.052 428.82 162.965 427.391 163.602C425.962 164.24 424.421 164.59 422.856 164.633C421.291 164.676 419.733 164.41 418.271 163.852C416.809 163.294 415.471 162.453 414.334 161.379C392.243 140.965 367.042 124.19 339.673 111.681C259.857 74.5137 176.877 76.6081 158.39 116.047C139.903 155.486 191.632 220.555 271.341 257.686C311.764 276.5 353.468 285.872 388.665 284.026C421.267 282.322 443.878 271.353 452.411 253.142C461.264 234.151 452.696 212.497 443.95 197.658C443.156 196.311 442.636 194.821 442.419 193.273C442.202 191.725 442.292 190.149 442.685 188.636C443.078 187.123 443.766 185.702 444.708 184.455C445.651 183.207 446.831 182.157 448.18 181.364C449.53 180.572 451.022 180.052 452.572 179.836C454.123 179.619 455.701 179.71 457.216 180.102C458.731 180.494 460.154 181.181 461.404 182.122C462.654 183.063 463.705 184.241 464.499 185.589C480.996 213.526 484.373 241.108 474.027 263.224C461.726 289.741 431.862 305.609 390.016 307.739C386.721 307.928 383.38 308.023 379.99 308.023Z" fill="white"/>
</g>
<defs>
<clipPath id="clip0_26_946">
<rect width="448" height="429" fill="white" transform="translate(32 41.5)"/>
</clipPath>
</defs>
</svg>
