<svg width="804" height="110" viewBox="0 0 804 110" fill="none" xmlns="http://www.w3.org/2000/svg">
<path d="M61.7458 60.5165C72.0322 65.2968 82.6532 67.6779 91.6006 67.2089H91.7635L92.4058 3.6128C92.4123 3.10661 92.2805 2.6082 92.0244 2.17108C91.7682 1.73397 91.3975 1.37466 90.952 1.13172C90.5065 0.888795 90.0031 0.771421 89.4958 0.792207C88.9884 0.812992 88.4963 0.971152 88.0723 1.2497L34.4152 37.3275C38.7577 45.5983 48.7907 54.4915 61.7458 60.5165Z" fill="white"/>
<path d="M89.3932 73.3061C80.0296 73.3061 69.4176 70.7445 59.1856 65.9913C45.0724 59.4342 34.4604 50.072 29.3308 40.7368L2.08154 59.0914C1.60986 59.4064 1.24555 59.8571 1.03708 60.3836C0.828616 60.91 0.785871 61.4873 0.914533 62.0386C1.04319 62.5898 1.33716 63.089 1.75734 63.4696C2.17751 63.8503 2.70397 64.0943 3.26668 64.1694L49.0802 70.3838C51.7722 70.7522 54.2398 72.0783 56.0282 74.1178L86.471 108.816C86.8434 109.242 87.3371 109.545 87.8864 109.685C88.4358 109.825 89.0149 109.796 89.5468 109.6C90.0788 109.404 90.5385 109.052 90.8649 108.59C91.1914 108.127 91.3691 107.577 91.3745 107.012L91.7182 73.2519C90.9583 73.288 90.1803 73.3061 89.3932 73.3061Z" fill="white"/>
<path d="M89.3932 68.4897C80.0296 68.4897 69.4176 65.9282 59.1856 61.1749C35.1208 49.9818 21.1886 30.6621 27.5214 17.1871C33.8542 3.71202 57.6023 1.92617 81.6671 13.1103C89.2333 16.5646 96.1993 21.1985 102.303 26.8379C102.592 27.1109 102.825 27.438 102.987 27.8006C103.15 28.1633 103.239 28.5542 103.25 28.9512C103.261 29.3482 103.193 29.7434 103.051 30.1144C102.909 30.4853 102.695 30.8247 102.421 31.1131C102.147 31.4015 101.819 31.6333 101.455 31.7953C101.091 31.9573 100.699 32.0463 100.301 32.0571C99.9027 32.068 99.5063 32.0006 99.1342 31.8588C98.7622 31.7169 98.4218 31.5034 98.1325 31.2303C92.5111 26.0438 86.0982 21.7815 79.134 18.6031C58.8237 9.15977 37.7082 9.69191 33.0038 19.7125C28.2994 29.7331 41.4627 46.2658 61.7458 55.7001C72.0322 60.4804 82.6442 62.8615 91.6006 62.3925C99.8966 61.9596 105.65 59.1726 107.822 54.5456C110.074 49.7202 107.894 44.2184 105.669 40.4482C105.467 40.1059 105.334 39.7273 105.279 39.334C105.224 38.9407 105.247 38.5404 105.347 38.156C105.447 37.7715 105.622 37.4105 105.862 37.0935C106.102 36.7765 106.402 36.5097 106.745 36.3083C107.088 36.1069 107.468 35.975 107.863 35.9199C108.257 35.8649 108.659 35.8879 109.044 35.9875C109.43 36.0872 109.792 36.2616 110.11 36.5008C110.428 36.74 110.696 37.0393 110.898 37.3816C115.095 44.4799 115.955 51.488 113.322 57.1071C110.192 63.8447 102.593 67.8764 91.9444 68.4175C91.106 68.4656 90.2556 68.4897 89.3932 68.4897Z" fill="white"/>
<path d="M89.3932 68.4897C80.0297 68.4897 69.4177 65.9282 59.1856 61.1749C35.1209 49.9818 21.1886 30.6621 27.5215 17.1871C33.8543 3.71202 57.6024 1.92617 81.6672 13.1103C89.2334 16.5646 96.1993 21.1985 102.303 26.8379C102.592 27.1109 102.825 27.438 102.987 27.8006C103.15 28.1633 103.239 28.5542 103.25 28.9512C103.261 29.3482 103.193 29.7434 103.051 30.1144C102.909 30.4853 102.695 30.8247 102.421 31.1131C102.147 31.4015 101.819 31.6333 101.455 31.7953C101.091 31.9573 100.699 32.0463 100.301 32.0571C99.9028 32.068 99.5063 32.0006 99.1343 31.8588C98.7622 31.7169 98.4218 31.5034 98.1325 31.2303C92.5112 26.0438 86.0983 21.7815 79.134 18.6031C58.8237 9.15977 37.7083 9.69191 33.0039 19.7125C28.2995 29.7331 41.4627 46.2658 61.7459 55.7001C72.0322 60.4804 82.6442 62.8615 91.6007 62.3925C99.8967 61.9596 105.65 59.1726 107.822 54.5456C110.074 49.7202 107.894 44.2184 105.669 40.4482C105.467 40.1059 105.334 39.7273 105.279 39.334C105.224 38.9407 105.247 38.5404 105.347 38.156C105.447 37.7715 105.622 37.4105 105.862 37.0935C106.102 36.7765 106.402 36.5097 106.745 36.3083C107.089 36.1069 107.468 35.975 107.863 35.9199C108.257 35.8649 108.659 35.8879 109.044 35.9875C109.43 36.0872 109.792 36.2616 110.11 36.5008C110.428 36.74 110.696 37.0393 110.898 37.3816C115.095 44.4799 115.955 51.488 113.322 57.1071C110.192 63.8447 102.593 67.8764 91.9444 68.4175C91.1061 68.4656 90.2557 68.4897 89.3932 68.4897Z" fill="white"/>
<path d="M178.439 101.272L149.127 11.6717H170.631L196.103 91.0317H185.351L211.975 11.6717H231.175L256.775 91.0317H246.407L272.519 11.6717H292.359L263.047 101.272H240.775L218.119 31.6397H224.007L200.711 101.272H178.439Z" fill="white"/>
<path d="M323.007 47.7677H366.143V63.8957H323.007V47.7677ZM324.543 84.6317H373.311V101.272H303.935V11.6717H371.647V28.3117H324.543V84.6317Z" fill="white"/>
<path d="M389.81 101.272V11.6717H433.586C444.85 11.6717 453.298 13.805 458.93 18.0717C464.647 22.3383 467.506 27.9703 467.506 34.9677C467.506 39.661 466.354 43.757 464.05 47.2557C461.746 50.669 458.589 53.3143 454.578 55.1917C450.567 57.069 445.959 58.0077 440.754 58.0077L443.186 52.7597C448.818 52.7597 453.81 53.6983 458.162 55.5757C462.514 57.3677 465.885 60.0557 468.274 63.6397C470.749 67.2237 471.986 71.6184 471.986 76.8237C471.986 84.5037 468.957 90.5197 462.898 94.8717C456.839 99.1383 447.922 101.272 436.146 101.272H389.81ZM410.418 85.6557H434.61C439.986 85.6557 444.039 84.8023 446.77 83.0957C449.586 81.3037 450.994 78.4877 450.994 74.6477C450.994 70.893 449.586 68.1197 446.77 66.3277C444.039 64.4503 439.986 63.5117 434.61 63.5117H408.882V48.4077H431.026C436.061 48.4077 439.901 47.5543 442.546 45.8477C445.277 44.0557 446.642 41.3677 446.642 37.7837C446.642 34.285 445.277 31.6823 442.546 29.9757C439.901 28.1837 436.061 27.2877 431.026 27.2877H410.418V85.6557Z" fill="white"/>
<path d="M506.245 80.7917L505.093 56.8557L547.973 11.6717H571.013L532.357 53.2717L520.837 65.5597L506.245 80.7917ZM487.685 101.272V11.6717H508.293V101.272H487.685ZM548.997 101.272L517.125 62.2317L530.693 47.5117L573.189 101.272H548.997Z" fill="white"/>
<path d="M582.435 101.272V11.6717H603.171V101.272H582.435Z" fill="white"/>
<path d="M667.315 102.808C660.403 102.808 653.96 101.698 647.987 99.4797C642.099 97.1757 636.979 93.933 632.627 89.7517C628.275 85.5703 624.862 80.6637 622.387 75.0317C619.998 69.3997 618.803 63.213 618.803 56.4717C618.803 49.7303 619.998 43.5437 622.387 37.9117C624.862 32.2797 628.275 27.373 632.627 23.1917C637.064 19.0103 642.227 15.8103 648.115 13.5917C654.003 11.2877 660.446 10.1357 667.443 10.1357C675.208 10.1357 682.206 11.501 688.435 14.2317C694.75 16.877 700.04 20.8023 704.307 26.0077L690.995 38.2957C687.923 34.797 684.51 32.1943 680.755 30.4877C677 28.6957 672.904 27.7997 668.467 27.7997C664.286 27.7997 660.446 28.4823 656.947 29.8477C653.448 31.213 650.419 33.1757 647.859 35.7357C645.299 38.2957 643.294 41.325 641.843 44.8237C640.478 48.3223 639.795 52.205 639.795 56.4717C639.795 60.7383 640.478 64.621 641.843 68.1197C643.294 71.6183 645.299 74.6477 647.859 77.2077C650.419 79.7677 653.448 81.7303 656.947 83.0957C660.446 84.461 664.286 85.1437 668.467 85.1437C672.904 85.1437 677 84.2903 680.755 82.5837C684.51 80.7917 687.923 78.1037 690.995 74.5197L704.307 86.8077C700.04 92.013 694.75 95.981 688.435 98.7117C682.206 101.442 675.166 102.808 667.315 102.808Z" fill="white"/>
<path d="M736.87 80.7917L735.718 56.8557L778.598 11.6717H801.638L762.982 53.2717L751.462 65.5597L736.87 80.7917ZM718.31 101.272V11.6717H738.918V101.272H718.31ZM779.622 101.272L747.75 62.2317L761.318 47.5117L803.814 101.272H779.622Z" fill="white"/>
</svg>
