<svg width="448" height="430" viewBox="0 0 448 430" fill="none" xmlns="http://www.w3.org/2000/svg">
<g id="arrow" clip-path="url(#clip0_29_986)">
<path id="arrow-up" d="M239.341 235.642C279.764 254.457 321.503 263.828 356.665 261.982H357.305L359.829 11.682C359.855 9.68979 359.337 7.72816 358.33 6.00777C357.324 4.28738 355.867 2.8732 354.116 1.91708C352.366 0.960964 350.387 0.499008 348.393 0.580816C346.4 0.662623 344.466 1.2851 342.799 2.38142L131.936 144.376C149.002 176.928 188.43 211.929 239.341 235.642Z" fill="#1877F2"/>
<path id="arrow-bottom" d="M347.99 285.979C311.193 285.979 269.49 275.898 229.28 257.19C173.817 231.383 132.114 194.535 111.956 157.794L4.87075 230.034C3.01711 231.273 1.58546 233.047 0.766219 235.119C-0.053019 237.191 -0.221001 239.463 0.284618 241.633C0.790237 243.803 1.94549 245.767 3.5967 247.265C5.2479 248.763 7.3168 249.724 9.52816 250.019L189.567 274.478C200.146 275.928 209.844 281.147 216.872 289.174L336.507 425.737C337.97 427.415 339.91 428.609 342.069 429.16C344.228 429.711 346.504 429.594 348.594 428.824C350.685 428.054 352.491 426.667 353.774 424.847C355.057 423.028 355.755 420.862 355.776 418.637L357.127 285.766C354.141 285.908 351.083 285.979 347.99 285.979Z" fill="#1877F2"/>
<path id="ring" d="M347.99 267.023C311.193 267.023 269.49 256.942 229.28 238.234C134.709 194.18 79.9581 118.142 104.845 65.1074C129.732 12.0725 223.058 5.04383 317.628 49.062C347.362 62.6575 374.737 80.8956 398.724 103.091C399.861 104.165 400.775 105.453 401.413 106.88C402.052 108.307 402.402 109.846 402.445 111.408C402.488 112.971 402.222 114.526 401.663 115.986C401.104 117.446 400.262 118.782 399.186 119.917C398.11 121.052 396.82 121.965 395.391 122.602C393.962 123.24 392.421 123.59 390.856 123.633C389.291 123.676 387.733 123.41 386.271 122.852C384.809 122.294 383.471 121.453 382.334 120.379C360.243 99.9654 335.042 83.1899 307.673 70.6807C227.857 33.5137 144.877 35.6081 126.39 75.047C107.903 114.486 159.632 179.555 239.341 216.686C279.764 235.5 321.468 244.872 356.665 243.026C389.267 241.322 411.878 230.353 420.411 212.142C429.264 193.151 420.696 171.497 411.95 156.658C411.156 155.311 410.636 153.821 410.419 152.273C410.202 150.725 410.292 149.149 410.685 147.636C411.078 146.123 411.766 144.702 412.708 143.455C413.651 142.207 414.831 141.157 416.18 140.364C417.53 139.572 419.022 139.052 420.572 138.836C422.123 138.619 423.701 138.71 425.216 139.102C426.731 139.494 428.154 140.181 429.404 141.122C430.654 142.063 431.705 143.241 432.499 144.589C448.996 172.526 452.373 200.108 442.027 222.224C429.726 248.741 399.862 264.609 358.016 266.739C354.721 266.928 351.38 267.023 347.99 267.023Z" fill="#1877F2"/>
</g>
<defs>
<clipPath id="clip0_29_986">
<rect width="448" height="429" fill="white" transform="translate(0 0.5)"/>
</clipPath>
</defs>
</svg>
