<svg viewBox="0 0 10 10">
<path d="m1.5358 8.342c0.17581 0.17582 0.47006 0.16678 0.65711-0.02027l1.3546-1.3546c0.18705-0.18705 0.19609-0.48118 0.02027-0.65711-0.17581-0.17582-0.47006-0.16679-0.65711 0.02026l-1.3546 1.3546c-0.18704 0.18705-0.19608 0.48117-0.02026 0.65711zm4.4353-4.4353c0.17582 0.17582 0.47007 0.16678 0.65711-0.02027l1.3546-1.3546c0.18705-0.18705 0.19608-0.48117 0.02027-0.65711-0.17582-0.17582-0.47007-0.16678-0.65711 0.02027l-1.3546 1.3546c-0.18717 0.18705-0.1962 0.4813-0.02027 0.65711zm-5.7747 1.2017c0 0.2487 0.2144 0.45028 0.47898 0.45028h1.9157c0.26445 0 0.47897-0.20158 0.47897-0.45028 0-0.24871-0.2144-0.45029-0.47897-0.45029h-1.9157c-0.26458 0-0.47898 0.20158-0.47898 0.45029zm6.2725 0c0 0.2487 0.2144 0.45028 0.47898 0.45028h1.9157c0.26445 0 0.47885-0.20158 0.47885-0.45028 0-0.24871-0.2144-0.45029-0.47885-0.45029h-1.9157c-0.26458 0-0.47898 0.20158-0.47898 0.45029z" fill="#FFDC01"/>
<path d="m1.5359 1.8748c-0.17582 0.17581-0.16678 0.47006 0.02026 0.65711l1.3546 1.3546c0.18705 0.18705 0.48117 0.19609 0.65711 0.02027 0.17582-0.17582 0.16678-0.47006-0.02027-0.65711l-1.3546-1.3546c-0.18705-0.18704-0.4813-0.19608-0.65711-0.02026zm4.4353 4.4353c-0.17581 0.17582-0.16678 0.47006 0.02027 0.65711l1.3546 1.3546c0.18704 0.18705 0.48117 0.19608 0.65711 0.02026 0.17581-0.17581 0.16678-0.47006-0.02027-0.6571l-1.3546-1.3546c-0.18705-0.18705-0.48129-0.1962-0.65711-0.02027z" fill="#FFDC01"/>
<path d="m4.7694 0.5354c-0.2487 0-0.45028 0.2144-0.45028 0.47897v1.9157c0 0.26446 0.20158 0.47886 0.45028 0.47886 0.24871 0 0.45029-0.2144 0.45029-0.47886v-1.9157c1.2e-4 -0.26457-0.20158-0.47897-0.45029-0.47897zm0 6.2725c-0.2487 0-0.45028 0.2144-0.45028 0.47897v1.9157c0 0.26446 0.20158 0.47886 0.45028 0.47886 0.24871 0 0.45029-0.2144 0.45029-0.47886v-1.9157c1.2e-4 -0.26457-0.20158-0.47897-0.45029-0.47897z" fill="#FFDC01"/>
</svg>
