<svg fill="none" viewBox="0 0 7 7">
    <path
        d="m3.1967 6.5354c-0.21827-2.6e-4 -0.42753-0.08706-0.58189-0.24138s-0.24122-0.36355-0.24153-0.58182v-0.8166c-0.00369-0.2999-0.23332-0.53224-0.52293-0.53224-0.01784-0.00352-0.03599-0.00521-0.05416-0.00505h-0.77683c-0.21817-3.1e-4 -0.42732-0.08712-0.58157-0.2414-0.15425-0.15429-0.24102-0.36344-0.24128-0.58161 2.57e-4 -0.21816 0.087027-0.42732 0.24128-0.5816 0.15425-0.15428 0.3634-0.2411 0.58157-0.24141h0.82303c0.29563-0.00427 0.52682-0.23098 0.5307-0.51612v-0.83776c0-0.45382 0.36939-0.82301 0.82342-0.82301 0.45403 1e-6 0.82304 0.36938 0.82304 0.82301v0.7772c0 0.01882 0.00174 0.03765 0.00543 0.0559-1.9e-4 0.28145 0.23138 0.51613 0.51595 0.52078h0.83255c0.21822 2.1e-4 0.42744 0.08699 0.58174 0.24129 0.15431 0.1543 0.24109 0.36351 0.24129 0.58172-2.5e-4 0.2182-0.08705 0.42739-0.24135 0.58168-0.15429 0.15428-0.36348 0.24108-0.58168 0.24133h-0.79936c-0.01708 0-0.03824 0.00233-0.05804 0.00602-0.12718 0.00811-0.24707 0.06222-0.33729 0.15222-0.09023 0.09001-0.14462 0.20976-0.15303 0.33692-0.00233 0.01107-0.00388 0.02194-0.00485 0.03029l-0.00136 0.82824c-1.1e-4 0.21825-0.08681 0.42754-0.24108 0.58192-0.15428 0.15437-0.36351 0.24122-0.58177 0.24148z"
        fill="#FF8604" />
</svg>