<?xml version="1.0" standalone="no"?>
<!DOCTYPE svg PUBLIC "-//W3C//DTD SVG 20010904//EN"
 "http://www.w3.org/TR/2001/REC-SVG-20010904/DTD/svg10.dtd">
<svg version="1.0" xmlns="http://www.w3.org/2000/svg"
 width="700.000000pt" height="700.000000pt" viewBox="0 0 700.000000 700.000000"
 preserveAspectRatio="xMidYMid meet">
<metadata>
Created by potrace 1.14, written by Peter Selinger 2001-2017
</metadata>
<g transform="translate(0.000000,700.000000) scale(0.100000,-0.100000)"
fill="#000000" stroke="none">
<path d="M3330 5698 c-14 -5 -42 -25 -62 -45 -46 -44 23 161 -739 -2203 -657
-2038 -621 -1910 -566 -2016 75 -148 248 -194 389 -105 77 49 88 75 223 526
70 231 138 457 151 503 l25 82 749 0 749 0 25 -82 c13 -46 81 -272 151 -503
135 -451 146 -477 223 -526 141 -89 314 -43 389 105 56 108 97 -38 -606 2141
-347 1078 -637 1975 -643 1994 -14 46 -82 118 -121 130 -41 12 -304 12 -337
-1z m473 -1770 c163 -546 297 -996 297 -1000 0 -5 -270 -8 -600 -8 -330 0
-600 3 -600 8 0 15 595 1992 600 1992 3 0 139 -447 303 -992z"/>
</g>
</svg>
