<?xml version="1.0" standalone="no"?>
<!DOCTYPE svg PUBLIC "-//W3C//DTD SVG 20010904//EN"
 "http://www.w3.org/TR/2001/REC-SVG-20010904/DTD/svg10.dtd">
<svg version="1.0" xmlns="http://www.w3.org/2000/svg"
 width="896.000000pt" height="896.000000pt" viewBox="0 0 896.000000 896.000000"
 preserveAspectRatio="xMidYMid meet">
<metadata>
Created by potrace 1.14, written by Peter Selinger 2001-2017
</metadata>
<g transform="translate(0.000000,896.000000) scale(0.100000,-0.100000)"
fill="#000000" stroke="none">
<path d="M6905 8756 c-25 -9 -259 -158 -275 -176 -10 -10 -95 -65 -112 -72
-10 -4 -18 -12 -18 -18 0 -5 -4 -10 -9 -10 -5 0 -44 -24 -86 -52 -42 -29 -84
-58 -93 -63 -30 -19 -107 -70 -112 -75 -12 -12 -101 -70 -108 -70 -4 0 -19
-11 -34 -25 -15 -14 -31 -25 -36 -25 -5 0 -22 -11 -38 -25 -16 -14 -33 -25
-37 -25 -4 0 -17 -8 -28 -18 -10 -11 -32 -25 -47 -33 -15 -8 -33 -20 -40 -26
-19 -19 -26 -17 -168 33 -71 25 -131 45 -134 46 -8 1 -19 4 -95 26 -38 12 -90
26 -115 33 -25 6 -52 14 -60 17 -8 3 -24 7 -35 9 -38 8 -50 11 -50 13 0 1 -7
3 -15 5 -8 2 -26 6 -40 9 -101 22 -169 37 -190 41 -32 7 -189 36 -215 40 -11
2 -36 6 -55 9 -19 3 -55 8 -80 10 -25 2 -56 7 -70 10 -27 6 -94 12 -255 23
-232 16 -576 6 -755 -22 -19 -4 -53 -8 -75 -11 -22 -3 -80 -15 -130 -25 -49
-11 -101 -22 -114 -25 -14 -3 -28 -7 -33 -10 -4 -3 -16 -7 -25 -9 -67 -14
-229 -75 -338 -126 -69 -32 -245 -135 -255 -148 -3 -4 -32 -28 -65 -53 -140
-107 -266 -261 -349 -424 -35 -68 -85 -195 -90 -224 -1 -8 -7 -33 -14 -55 -6
-23 -14 -61 -17 -85 -3 -25 -8 -58 -11 -75 -12 -70 -5 -307 12 -387 2 -13 9
-48 15 -78 18 -95 67 -257 107 -350 39 -92 136 -286 146 -292 6 -4 7 -8 2 -8
-5 0 -2 -8 6 -17 8 -10 33 -49 57 -88 51 -86 170 -256 192 -275 3 -3 12 -14
20 -26 15 -23 79 -100 143 -174 59 -67 353 -359 409 -405 27 -22 60 -51 75
-65 15 -14 63 -54 107 -88 44 -35 87 -68 95 -75 8 -7 33 -26 55 -42 22 -17 42
-33 43 -37 2 -5 9 -8 15 -8 6 0 20 -9 31 -19 12 -10 80 -58 151 -105 72 -47
135 -90 141 -95 5 -4 21 -14 35 -21 13 -7 26 -16 29 -20 3 -3 22 -14 43 -23
20 -10 37 -22 37 -27 0 -6 5 -10 10 -10 6 0 70 -34 143 -76 150 -87 503 -262
652 -324 55 -23 114 -48 130 -55 58 -25 207 -82 265 -101 25 -8 54 -19 65 -24
27 -12 265 -89 290 -93 11 -2 27 -7 35 -10 26 -10 86 -27 109 -32 13 -2 32 -7
44 -11 12 -4 29 -8 37 -9 8 -1 44 -10 80 -20 36 -9 75 -19 86 -21 12 -2 66
-13 120 -24 55 -12 115 -23 134 -26 19 -3 60 -9 90 -14 84 -15 131 -21 180
-25 25 -2 45 -5 45 -6 0 0 20 -3 45 -5 25 -2 70 -6 100 -9 52 -5 297 -17 350
-16 140 0 437 21 510 36 14 2 41 7 60 10 65 10 145 27 225 47 44 11 85 21 90
22 6 1 15 4 20 7 6 4 37 14 70 24 33 10 65 21 70 25 6 4 33 15 60 25 63 23
259 124 263 136 2 5 10 9 18 9 8 0 14 5 14 10 0 6 5 10 10 10 6 0 16 4 23 10
7 5 39 31 72 57 33 25 93 81 133 122 100 104 102 107 102 115 0 4 11 19 25 34
14 15 28 37 31 49 4 13 9 23 13 23 10 0 98 176 106 213 4 15 11 30 16 33 5 3
7 10 3 15 -3 5 -1 15 4 22 14 18 24 63 46 201 13 79 14 317 2 386 -20 110 -25
137 -30 160 -21 91 -31 126 -38 135 -4 5 -8 17 -8 27 0 9 -6 32 -14 50 -8 18
-26 65 -42 103 -56 142 -158 337 -199 377 -74 75 -195 93 -281 44 -27 -16 -57
-38 -67 -50 -69 -80 -78 -220 -19 -288 8 -10 12 -18 8 -18 -4 0 1 -12 12 -27
32 -46 134 -270 147 -323 2 -8 13 -46 24 -83 38 -129 55 -327 36 -422 -23
-118 -40 -174 -77 -247 -18 -35 -35 -65 -38 -68 -3 -3 -16 -21 -30 -40 -41
-59 -43 -61 -142 -152 -50 -47 -229 -158 -253 -158 -8 0 -15 -4 -15 -10 0 -5
-3 -9 -7 -8 -5 1 -19 -3 -33 -9 -14 -6 -42 -18 -62 -26 -21 -9 -38 -14 -38
-12 0 2 -17 -3 -37 -11 -20 -9 -44 -17 -52 -19 -9 -2 -36 -8 -61 -14 -25 -7
-56 -14 -70 -16 -14 -3 -36 -8 -50 -11 -13 -3 -40 -8 -60 -10 -19 -2 -46 -7
-60 -9 -36 -7 -116 -15 -182 -20 l-57 -3 2 389 c1 214 5 389 9 389 4 0 5 6 2
13 -9 25 -10 87 -1 87 6 0 5 5 0 13 -6 6 -9 21 -6 32 2 11 3 50 3 88 0 37 -1
73 -1 80 0 6 3 226 6 487 3 261 7 644 10 850 2 206 4 383 4 393 1 14 10 11 51
-20 28 -20 50 -41 50 -45 0 -4 6 -8 13 -8 6 0 31 -17 54 -38 23 -20 59 -50 79
-67 37 -29 57 -47 175 -153 111 -98 186 -123 285 -92 36 11 95 57 129 102 19
24 33 86 31 136 -3 68 -36 129 -102 187 -31 28 -76 69 -100 91 -24 23 -44 39
-44 35 0 -3 -6 1 -13 10 -7 8 -37 35 -67 60 -30 24 -64 52 -75 61 -17 14 -48
38 -110 85 -6 5 -31 25 -57 46 -25 20 -51 37 -57 37 -6 0 -11 3 -11 8 0 4 -25
23 -55 42 -30 19 -54 38 -55 43 0 4 -4 7 -10 7 -5 0 -32 15 -58 34 l-48 35 3
213 c1 117 4 402 5 633 l3 420 -29 50 c-16 28 -37 55 -45 62 -57 44 -154 61
-216 39z m-2625 -870 c19 -3 64 -8 100 -11 36 -3 79 -8 95 -11 17 -2 46 -6 65
-9 72 -9 125 -17 190 -30 14 -3 36 -7 50 -10 14 -2 36 -6 50 -9 14 -3 39 -8
55 -11 17 -3 46 -10 65 -15 19 -5 46 -11 60 -14 14 -3 77 -19 140 -36 63 -17
120 -32 127 -33 27 -6 19 -15 -60 -67 -45 -30 -88 -61 -95 -67 -7 -7 -17 -13
-22 -13 -5 0 -15 -6 -22 -12 -12 -12 -365 -252 -423 -288 -13 -8 -111 -74
-217 -145 -106 -72 -276 -187 -378 -255 -102 -68 -187 -127 -190 -130 -3 -4
-12 -9 -20 -13 -19 -9 -53 -30 -60 -38 -3 -3 -54 -38 -115 -79 -60 -40 -111
-77 -113 -82 -2 -4 -7 -8 -12 -8 -7 0 -427 -278 -465 -307 -37 -29 -274 -183
-281 -183 -5 0 -16 12 -25 28 -9 15 -38 61 -64 102 -99 156 -211 412 -231 530
-1 8 -5 26 -8 40 -20 83 -29 279 -15 341 5 20 10 52 13 71 2 20 11 49 20 67 9
17 16 34 16 38 -1 13 33 85 61 130 135 217 384 377 722 464 45 11 93 23 107
25 14 3 48 9 75 14 56 10 130 19 220 26 33 3 61 7 63 8 4 5 484 -3 522 -8z"/>
<path d="M2200 5598 c-19 -13 -36 -26 -38 -30 -2 -5 -10 -8 -18 -8 -8 0 -14
-3 -14 -8 0 -4 -9 -12 -20 -17 -32 -15 -344 -228 -352 -240 -5 -6 -8 -6 -8 0
0 6 -3 6 -8 -1 -4 -6 -115 -83 -247 -172 -132 -89 -247 -167 -255 -172 -8 -6
-62 -42 -120 -80 -58 -39 -110 -74 -115 -78 -13 -11 -241 -164 -263 -177 -9
-5 -19 -12 -22 -15 -3 -3 -32 -23 -65 -45 -33 -22 -61 -43 -63 -47 -2 -5 -7
-8 -12 -8 -4 0 -48 -27 -96 -60 -49 -33 -97 -66 -108 -73 -10 -6 -29 -20 -41
-29 -13 -10 -28 -18 -34 -18 -6 0 -11 -4 -11 -10 0 -5 -6 -10 -14 -10 -8 0
-16 -4 -18 -8 -1 -4 -47 -37 -100 -72 -62 -41 -104 -77 -115 -97 -10 -18 -20
-33 -24 -33 -11 0 -21 -139 -11 -155 4 -5 7 -13 7 -17 0 -3 14 -26 31 -51 38
-53 97 -84 174 -91 30 -3 66 -8 79 -10 13 -3 49 -8 80 -11 31 -4 63 -8 71 -10
8 -3 38 -7 65 -10 52 -5 85 -10 145 -19 19 -3 51 -8 70 -10 19 -2 73 -10 120
-16 47 -7 96 -13 110 -15 14 -1 43 -5 65 -8 22 -4 60 -9 85 -12 49 -6 114 -15
144 -21 11 -2 47 -6 80 -9 34 -3 68 -7 76 -10 8 -2 38 -7 65 -10 28 -3 59 -7
70 -9 38 -7 140 -20 168 -20 15 -1 27 -3 27 -6 0 -3 15 -6 33 -7 17 -1 50 -4
72 -7 22 -3 60 -8 83 -11 24 -4 51 -8 60 -10 10 -1 42 -6 73 -9 31 -4 67 -9
80 -11 24 -5 96 -14 154 -21 29 -3 49 -6 170 -23 33 -5 67 -9 75 -9 8 0 26 -3
40 -6 14 -4 43 -8 65 -10 37 -4 118 -15 155 -21 9 -2 40 -6 70 -10 30 -3 66
-8 80 -10 14 -2 48 -6 75 -10 28 -3 61 -8 75 -10 14 -3 45 -7 70 -10 51 -6 90
-11 140 -19 19 -3 55 -8 80 -11 25 -2 56 -7 70 -9 14 -3 48 -7 75 -10 28 -4
61 -9 75 -11 33 -6 93 -14 155 -21 67 -7 198 -42 264 -71 122 -54 264 -169
381 -309 20 -24 238 -273 310 -354 31 -36 95 -108 140 -160 45 -52 104 -120
131 -150 27 -30 68 -77 91 -104 24 -27 55 -62 70 -78 15 -15 26 -28 23 -28 -2
0 11 -15 28 -33 18 -19 57 -62 87 -97 52 -60 65 -76 122 -141 29 -32 94 -107
161 -184 29 -32 62 -70 75 -83 12 -12 22 -25 22 -27 0 -2 15 -19 33 -37 17
-19 43 -48 57 -64 35 -41 154 -178 160 -184 3 -3 52 -59 109 -125 58 -66 112
-127 120 -136 9 -9 35 -38 57 -65 23 -27 52 -61 65 -75 13 -14 49 -54 79 -89
60 -69 199 -228 215 -246 6 -6 35 -40 65 -75 94 -109 143 -155 185 -171 44
-17 125 -17 166 0 36 15 99 71 99 88 0 8 4 14 9 14 5 0 12 17 17 38 9 46 11
143 30 2007 3 303 6 585 7 628 1 42 0 77 -3 77 -3 0 -115 3 -250 5 -135 3
-263 7 -285 10 -22 2 -67 7 -100 10 -84 7 -140 14 -140 15 0 2 -3 2 -95 15
-30 4 -57 8 -60 10 -3 2 -26 6 -50 10 -99 13 -375 74 -522 115 -72 19 -103 28
-173 50 -38 12 -79 24 -90 27 -11 2 -29 8 -40 13 -11 5 -63 23 -115 40 -52 17
-104 35 -115 40 -11 5 -74 29 -140 55 -179 70 -290 118 -472 206 -68 33 -126
59 -129 58 -4 0 -10 3 -13 8 -3 4 -31 21 -61 36 -93 48 -155 82 -160 87 -3 3
-16 11 -30 17 -14 7 -47 26 -75 43 -27 16 -58 33 -67 36 -10 4 -18 10 -18 15
0 5 -4 9 -10 9 -9 0 -60 31 -225 138 -81 53 -312 218 -337 241 -33 31 -47 41
-58 41 -5 0 -10 4 -10 8 0 5 -19 23 -42 40 -24 17 -59 45 -78 62 -19 17 -60
52 -90 78 -74 64 -364 354 -420 420 -25 30 -54 64 -65 76 -11 12 -31 37 -45
56 -14 18 -30 38 -35 44 -54 58 -275 393 -275 417 0 14 -12 11 -50 -13z"/>
</g>
</svg>
