<svg width="1725" height="959" viewBox="0 0 1725 959" fill="none" xmlns="http://www.w3.org/2000/svg">
<g filter="url(#filter0_d_641_1204)">
<path d="M0 956L35.9375 924.138C71.875 892.753 143.75 828.312 215.625 828.67C287.5 828.312 359.375 892.753 431.25 879.626C503.125 866.499 575 778.192 646.875 733.202C718.75 688.691 790.625 688.691 862.5 714.109C934.375 740.004 1006.25 790.125 1078.12 790.483C1150 790.125 1221.88 740.004 1293.75 771.389C1365.62 803.252 1437.5 917.813 1509.38 936.906C1581.25 956 1653.12 879.626 1689.06 841.439L1725 803.252V6.82385L1689.06 25.9173C1653.12 45.0108 1581.25 83.1979 1509.38 70.4291C1437.5 58.1377 1365.62 -6.30292 1293.75 6.82385C1221.88 19.9506 1150 108.258 1078.12 115.06C1006.25 121.385 934.375 45.0108 862.5 25.9173C790.625 6.82379 718.75 45.0109 646.875 76.8732C575 108.258 503.125 134.512 431.25 108.616C359.375 83.1979 287.5 6.82373 215.625 0.499023C143.75 -6.30304 71.875 58.1377 35.9375 89.5227L0 121.385V956Z" fill="url(#paint0_radial_641_1204)"/>
</g>
<defs>
<filter id="filter0_d_641_1204" x="-10" y="0" width="1745" height="976" filterUnits="userSpaceOnUse" color-interpolation-filters="sRGB">
<feFlood flood-opacity="0" result="BackgroundImageFix"/>
<feColorMatrix in="SourceAlpha" type="matrix" values="0 0 0 0 0 0 0 0 0 0 0 0 0 0 0 0 0 0 127 0" result="hardAlpha"/>
<feOffset dy="10"/>
<feGaussianBlur stdDeviation="5"/>
<feComposite in2="hardAlpha" operator="out"/>
<feColorMatrix type="matrix" values="0 0 0 0 0 0 0 0 0 0 0 0 0 0 0 0 0 0 0.25 0"/>
<feBlend mode="normal" in2="BackgroundImageFix" result="effect1_dropShadow_641_1204"/>
<feBlend mode="normal" in="SourceGraphic" in2="effect1_dropShadow_641_1204" result="shape"/>
</filter>
<radialGradient id="paint0_radial_641_1204" cx="0" cy="0" r="1" gradientUnits="userSpaceOnUse" gradientTransform="translate(501 478) scale(1071.5 598.541)">
<stop stop-color="#0007AB"/>
<stop offset="1" stop-color="#000721"/>
</radialGradient>
</defs>
</svg>
