<svg width="1728" height="1181" viewBox="0 0 1728 1181" fill="none" xmlns="http://www.w3.org/2000/svg">
<path d="M502.451 187.684C444.806 214.657 388.964 247.531 343.495 295.186C332.29 306.929 321.565 319.658 310.809 332.424L310.808 332.425C277.916 371.463 244.74 410.836 196.713 423.37C152.117 435.286 95.1995 424.936 37.9536 414.526C25.1401 412.196 12.3101 409.863 -0.401855 407.776V1134C34.4111 1118.97 68.2779 1112.68 102.145 1116.86C133.621 1120.59 164.194 1133.81 194.538 1146.92L194.539 1146.92C204.824 1151.37 215.083 1155.8 225.342 1159.86C267.488 1175.86 308.013 1185.86 350.16 1169.86C375.08 1160.02 400.001 1140.34 425.299 1120.38L425.3 1120.37L425.303 1120.37C441.142 1107.87 457.129 1095.25 473.357 1084.86C504.064 1064.4 534.771 1053.7 566.183 1042.76L566.185 1042.75L566.195 1042.75C576.235 1039.25 586.347 1035.73 596.554 1031.86C606.495 1027.93 616.533 1023.64 626.622 1019.34L626.627 1019.33L626.649 1019.32L626.653 1019.32C657.68 1006.08 689.177 992.627 719.751 988.855C752.087 984.865 785.456 990.426 818.21 995.885L818.211 995.885C826.505 997.267 834.759 998.643 842.948 999.855C855.738 1001.43 868.69 1002.51 881.702 1003.6L881.703 1003.6C909.917 1005.95 938.41 1008.33 966.145 1015.86C1005.25 1025.13 1042.95 1044.74 1080.56 1064.29L1080.58 1064.3C1083.5 1065.82 1086.42 1067.34 1089.34 1068.86C1090.16 1069.26 1090.97 1069.67 1091.79 1070.08C1092.42 1070.39 1093.05 1070.71 1093.68 1071.02L1095.08 1071.72C1135.17 1091.78 1173.86 1111.13 1212.54 1095.86C1232.12 1088.42 1251.35 1072.79 1270.55 1057.17C1292.69 1039.18 1314.79 1021.21 1337.36 1015.86C1376.75 1005.16 1416.15 1035.11 1457.03 1066.18L1457.04 1066.18C1458.21 1067.07 1459.38 1067.96 1460.55 1068.86C1501.08 1100.86 1541.6 1132.86 1562.68 1148.86C1596.39 1162.75 1676.69 1188.22 1728.26 1178.97L1726.6 -0.367267H837.902L713.451 -0.367267C700.836 29.8622 685.033 60.5417 665.693 84.6226C628.377 130.389 578.631 152.967 528.201 175.855L528.2 175.855C519.618 179.751 511.015 183.655 502.451 187.684Z" fill="url(#paint0_radial_674_1761)"/>
<defs>
<radialGradient id="paint0_radial_674_1761" cx="0" cy="0" r="1" gradientUnits="userSpaceOnUse" gradientTransform="translate(892.96 439.871) rotate(93.6538) scale(711.033 1446.14)">
<stop stop-color="#0007AB"/>
<stop offset="1" stop-color="#000721"/>
</radialGradient>
</defs>
</svg>
