<svg width="1075" height="550" viewBox="0 0 1075 550" fill="none" xmlns="http://www.w3.org/2000/svg">
<path d="M211.643 188.051C269.288 215.024 325.129 247.898 370.599 295.553C381.803 307.296 392.529 320.025 403.285 332.791L403.286 332.792C436.178 371.83 469.353 411.204 517.38 423.737C561.976 435.654 618.894 425.303 676.14 414.894C688.953 412.563 701.783 410.23 714.495 408.143C802.83 380.228 999.323 369.415 1078.62 549.483V0L0.64209 2.64942e-07C13.2581 30.2295 29.0608 60.909 48.4009 84.9899C85.7166 130.757 135.463 153.334 185.892 176.222L185.893 176.223L185.899 176.225C194.48 180.12 203.08 184.023 211.643 188.051Z" fill="url(#paint0_radial_674_1878)"/>
<defs>
<radialGradient id="paint0_radial_674_1878" cx="0" cy="0" r="1" gradientUnits="userSpaceOnUse" gradientTransform="translate(521.526 204.775) rotate(85.1069) scale(331.27 900.347)">
<stop stop-color="#0007AB"/>
<stop offset="1" stop-color="#000721"/>
</radialGradient>
</defs>
</svg>
