<svg width="1728" height="843" viewBox="0 0 1728 843" fill="none" xmlns="http://www.w3.org/2000/svg">
<path d="M6.86646e-05 616.757L32.0001 599.757C64.0001 582.757 128 547.757 192 564.757C256 582.757 320 651.757 384 694.757C448 737.757 512 754.757 576 728.757C640 703.757 704 633.757 768 651.757C832 668.757 896 772.757 960 815.757C1024 858.757 1088 841.757 1152 823.757C1216 806.757 1280 789.757 1344 763.757C1408 737.757 1472 703.757 1536 668.757C1600 633.757 1664 599.757 1696 582.757L1728 564.757V48.8864L1703.52 66.8864C1680.48 84.8864 1631.52 120.886 1584 150.886C1536.48 180.886 1487.52 204.886 1440 204.886C1392.48 204.886 1343.52 180.886 1296 156.886C1248.48 132.886 1199.52 108.886 1152 108.886C1104.48 108.886 1055.52 132.886 1008 114.886C960.48 96.8864 911.52 36.8864 864 30.8864C816.48 24.8864 767.52 72.8864 720 90.8864C672.48 108.886 623.52 96.8864 576 84.8864C528.48 72.8864 479.52 60.8864 432 42.8864C384.48 24.8864 335.52 0.886353 288 0.886353C240.48 0.886353 191.52 24.8864 144 48.8864C96.48 72.8864 47.52 96.8864 24.48 108.886L0 120.886V228.886L6.86646e-05 616.757Z" fill="url(#paint0_radial_672_1123)"/>
<defs>
<radialGradient id="paint0_radial_672_1123" cx="0" cy="0" r="1" gradientUnits="userSpaceOnUse" gradientTransform="translate(893.022 314.625) rotate(95.1183) scale(507.716 1442.76)">
<stop stop-color="#0007AB"/>
<stop offset="1" stop-color="#000721"/>
</radialGradient>
</defs>
</svg>
