<svg width="100%" viewBox="0 0 1745 976" fill="none" xmlns="http://www.w3.org/2000/svg">
<g filter="url(#filter0_d_649_1350)">
<path d="M10 0L45.9375 31.8623C81.875 63.2473 153.75 127.688 225.625 127.33C297.5 127.688 369.375 63.2473 441.25 76.3741C513.125 89.5009 585 177.808 656.875 222.798C728.75 267.309 800.625 267.309 872.5 241.891C944.375 215.996 1016.25 165.875 1088.12 165.517C1160 165.875 1231.88 215.996 1303.75 184.611C1375.62 152.748 1447.5 38.1871 1519.38 19.0935C1591.25 0 1663.12 76.3741 1699.06 114.561L1735 152.748V949.176L1699.06 930.083C1663.12 910.989 1591.25 872.802 1519.38 885.571C1447.5 897.862 1375.62 962.303 1303.75 949.176C1231.88 936.049 1160 847.742 1088.12 840.94C1016.25 834.615 944.375 910.989 872.5 930.083C800.625 949.176 728.75 910.989 656.875 879.127C585 847.742 513.125 821.488 441.25 847.384C369.375 872.802 297.5 949.176 225.625 955.501C153.75 962.303 81.875 897.862 45.9375 866.477L10 834.615V0Z" fill="url(#paint0_radial_649_1350)"/>
</g>
<defs>
<filter id="filter0_d_649_1350" x="0" y="0" width="1745" height="976" filterUnits="userSpaceOnUse" color-interpolation-filters="sRGB">
<feFlood flood-opacity="0" result="BackgroundImageFix"/>
<feColorMatrix in="SourceAlpha" type="matrix" values="0 0 0 0 0 0 0 0 0 0 0 0 0 0 0 0 0 0 127 0" result="hardAlpha"/>
<feOffset dy="10"/>
<feGaussianBlur stdDeviation="5"/>
<feComposite in2="hardAlpha" operator="out"/>
<feColorMatrix type="matrix" values="0 0 0 0 0 0 0 0 0 0 0 0 0 0 0 0 0 0 0.25 0"/>
<feBlend mode="normal" in2="BackgroundImageFix" result="effect1_dropShadow_649_1350"/>
<feBlend mode="normal" in="SourceGraphic" in2="effect1_dropShadow_649_1350" result="shape"/>
</filter>
<radialGradient id="paint0_radial_649_1350" cx="0" cy="0" r="1" gradientUnits="userSpaceOnUse" gradientTransform="translate(890.5 548.5) rotate(1.07535) scale(1065.69 595.294)">
<stop stop-color="#0007AB"/>
<stop offset="1" stop-color="#000721"/>
</radialGradient>
</defs>
</svg>
