<?xml version="1.0" encoding="UTF-8"?>
<svg viewBox="0 0 205 124" xmlns="http://www.w3.org/2000/svg">
<path d="m148.5 121.02c5.035-9.609 7.897-20.621 7.897-32.33 0-34.819-25.293-63.5-57.844-67.337-32.554 3.8367-57.847 32.518-57.847 67.337 0 11.708 2.8631 22.721 7.8974 32.329h99.897z" fill="#48B9F8"/>
<path d="m156.4 88.69c0 11.708-2.862 22.721-7.897 32.33h14.896c5.033-9.61 7.892-20.623 7.892-32.33 0-37.433-29.231-67.779-65.29-67.779-0.61 0-1.217 0.0104-1.823 0.0273-0.106 0.0035-0.211 0.0089-0.316 0.0127-0.519 0.0188-1.037 0.0392-1.553 0.07-0.631 0.0376-1.261 0.0841-1.89 0.1393-0.021 0.0019-0.04 0.0038-0.06 5e-3 -0.6039 0.0554-1.205 0.1163-1.8034 0.1877 32.551 3.8362 57.844 32.517 57.844 67.337z" fill="#318AE4"/>
<path d="m23.681 3.6193c-1e-4 0.49162-0.1954 0.96308-0.543 1.3107-0.3477 0.34763-0.8191 0.54295-1.3107 0.54301-0.2435 3e-5 -0.4845-0.04789-0.7095-0.14104-0.2249-0.09315-0.4292-0.22969-0.6014-0.40183-0.1721-0.17214-0.3086-0.3765-0.4018-0.60142-0.0931-0.22491-0.1411-0.46598-0.141-0.70942-1e-4 -0.24344 0.0479-0.4845 0.141-0.70942 0.0932-0.22491 0.2297-0.42928 0.4018-0.60142 0.1722-0.17213 0.3765-0.30868 0.6014-0.40182 0.225-0.09315 0.466-0.14108 0.7095-0.14104 0.4915 1.8e-4 0.9629 0.19554 1.3105 0.54314s0.543 0.81898 0.5432 1.3106zm154.9 17.541c0 0.4916-0.195 0.9629-0.543 1.3105s-0.819 0.543-1.311 0.5432c-0.243 0-0.484-0.0479-0.709-0.1411-0.225-0.0931-0.429-0.2296-0.601-0.4018-0.173-0.1721-0.309-0.3765-0.402-0.6014s-0.141-0.466-0.141-0.7094c0-0.2435 0.048-0.4845 0.141-0.7094 0.093-0.225 0.229-0.4293 0.402-0.6015 0.172-0.1721 0.376-0.3086 0.601-0.4018 0.225-0.0931 0.466-0.1411 0.709-0.141 0.492 2e-4 0.963 0.1955 1.311 0.5431s0.543 0.819 0.543 1.3106zm24.854 43.846c-1e-3 0.4917-0.196 0.9631-0.543 1.3107-0.348 0.3477-0.82 0.543-1.311 0.5431-0.244 0-0.485-0.0479-0.71-0.1411-0.225-0.0931-0.429-0.2297-0.601-0.4018-0.172-0.1722-0.309-0.3765-0.402-0.6014-0.093-0.225-0.141-0.466-0.141-0.7095 0-0.2434 0.048-0.4845 0.141-0.7094s0.23-0.4293 0.402-0.6014 0.376-0.3087 0.601-0.4018c0.225-0.0932 0.466-0.1411 0.71-0.1411 0.491 1e-4 0.963 0.1954 1.311 0.543 0.347 0.3477 0.542 0.8191 0.543 1.3107z" fill="#FD5C1E"/>
<path d="m44.947 10.947c-3.0178 0-5.4731-2.4553-5.4731-5.4735 0-3.0182 2.4553-5.4735 5.4731-5.4735 3.0177 0 5.473 2.4552 5.473 5.4735 0 3.0182-2.4555 5.4735-5.473 5.4735zm0-8.4756c-1.6552 0-3.0014 1.3469-3.0014 3.002 0 1.6552 1.3462 3.002 3.0014 3.002 1.6551 0 3.0013-1.3469 3.0013-3.002 0-1.6552-1.3462-3.002-3.0013-3.002zm-34.039 43.215c-0.1255 0-0.2498-0.0246-0.3657-0.0726-0.116-0.048-0.2213-0.1183-0.3101-0.207s-0.1592-0.194-0.2072-0.3099c-0.0481-0.116-0.07285-0.2402-0.07288-0.3657v-0.9559c0-0.2764-0.10979-0.5414-0.30523-0.7369-0.19543-0.1954-0.46049-0.3052-0.73688-0.3052-0.27638 0-0.54145 0.1098-0.73688 0.3052-0.19543 0.1955-0.30523 0.4605-0.30523 0.7369v0.9559c-3e-5 0.1255-0.02478 0.2497-0.07283 0.3657-0.04806 0.1159-0.11848 0.2212-0.20725 0.3099-0.08876 0.0887-0.19413 0.159-0.31008 0.207-0.11596 0.048-0.24022 0.0726-0.36571 0.0726h-0.95587c-0.27274 0.0058-0.53235 0.1182-0.72319 0.3131s-0.29772 0.4569-0.29772 0.7297 0.10688 0.5347 0.29772 0.7297c0.19084 0.1949 0.45045 0.3073 0.72319 0.3131h0.95587c0.25341-1e-4 0.49647 0.1005 0.67573 0.2796 0.17925 0.1792 0.28002 0.4222 0.28014 0.6756v0.9558c0 0.2764 0.1098 0.5415 0.30523 0.7369s0.4605 0.3052 0.73688 0.3052c0.27639 0 0.54145-0.1098 0.73688-0.3052 0.19544-0.1954 0.30523-0.4605 0.30523-0.7369v-0.9558c3e-5 -0.1255 0.02478-0.2498 0.07288-0.3657 0.048-0.1159 0.1184-0.2212 0.2072-0.3099s0.1941-0.1591 0.3101-0.207c0.1159-0.048 0.2402-0.0727 0.3657-0.0726h0.9559c0.2727-0.0058 0.5323-0.1182 0.7232-0.3131 0.1908-0.195 0.2977-0.4569 0.2977-0.7297s-0.1069-0.5348-0.2977-0.7297c-0.1909-0.1949-0.4505-0.3073-0.7232-0.3131h-0.9559zm155.79-38.402c-0.159 6e-5 -0.318-0.03136-0.465-0.09245-0.148-0.0611-0.282-0.15068-0.395-0.26361-0.112-0.11294-0.202-0.24702-0.263-0.39457-0.061-0.14756-0.092-0.30569-0.092-0.46536v-1.216c0-0.35169-0.14-0.68892-0.389-0.93754-0.249-0.24861-0.586-0.38824-0.937-0.38818-0.352-6e-5 -0.69 0.13957-0.938 0.38818-0.249 0.24862-0.389 0.58585-0.389 0.93754v1.216c0 0.15975-0.031 0.31796-0.092 0.46556s-0.151 0.28171-0.264 0.39465-0.247 0.20249-0.395 0.26354c-0.147 0.06105-0.306 0.09239-0.465 0.09224h-1.216c-0.351 0-0.689 0.13976-0.938 0.38853-0.248 0.24878-0.388 0.58619-0.388 0.93801s0.14 0.68924 0.388 0.93801c0.249 0.24878 0.587 0.38854 0.938 0.38854h1.216c0.159-1.3e-4 0.318 0.03125 0.465 0.09232 0.148 0.0611 0.282 0.1507 0.395 0.2637s0.203 0.2471 0.264 0.3948c0.061 0.1476 0.092 0.3059 0.092 0.4656v1.216c0 0.3517 0.14 0.6889 0.389 0.9376 0.248 0.2486 0.586 0.3882 0.938 0.3881 0.351 0 0.688-0.1396 0.937-0.3882s0.389-0.5858 0.389-0.9375v-1.216c0-0.1597 0.031-0.3178 0.092-0.4654s0.151-0.2817 0.263-0.3947c0.113-0.1129 0.247-0.2026 0.395-0.2637 0.147-0.06115 0.306-0.09262 0.465-0.09262h1.217c0.348-0.00464 0.681-0.14645 0.926-0.39472s0.383-0.58303 0.383-0.93183c0-0.34879-0.138-0.68355-0.383-0.93183-0.245-0.24827-0.578-0.39007-0.926-0.39471h-1.217z" fill="#2BA9FC"/>
<path d="m8.0231 15.668c-0.33811-1e-4 -0.66233-0.1345-0.9014-0.3736-0.23908-0.2391-0.37345-0.5633-0.37357-0.9014v-1.275c0-0.3688-0.14653-0.7226-0.40736-0.9834s-0.61458-0.4074-0.98345-0.4074-0.72262 0.1466-0.98345 0.4074-0.40736 0.6146-0.40736 0.9834v1.275c-1.2e-4 0.3381-0.13449 0.6623-0.37357 0.9014-0.23907 0.2391-0.56329 0.3735-0.9014 0.3736h-1.275c-0.1848-0.0034-0.36842 0.03-0.54013 0.0984-0.17172 0.0684-0.32808 0.1703-0.45997 0.2998s-0.23665 0.2839-0.30816 0.4544c-0.071514 0.1704-0.10834 0.3534-0.10834 0.5382s0.036831 0.3678 0.10834 0.5382c0.071513 0.1704 0.17627 0.3249 0.30816 0.4544s0.28826 0.2314 0.45997 0.2998c0.17171 0.0683 0.35533 0.1018 0.54013 0.0984h1.275c0.33811 1e-4 0.66233 0.1345 0.9014 0.3736 0.23908 0.239 0.37345 0.5633 0.37357 0.9014v1.2749c0 0.3689 0.14653 0.7227 0.40736 0.9835s0.61458 0.4073 0.98345 0.4073 0.72262-0.1465 0.98345-0.4073 0.40736-0.6146 0.40736-0.9835v-1.2749c1.2e-4 -0.3381 0.13449-0.6624 0.37357-0.9014 0.23907-0.2391 0.56329-0.3735 0.9014-0.3736h1.275c0.1848 0.0034 0.36842-0.0301 0.54013-0.0984 0.17168-0.0684 0.32808-0.1703 0.45998-0.2998s0.2366-0.284 0.3082-0.4544c0.0715-0.1704 0.1083-0.3534 0.1083-0.5382s-0.0368-0.3678-0.1083-0.5382c-0.0716-0.1705-0.1763-0.3249-0.3082-0.4544s-0.2883-0.2314-0.45998-0.2998c-0.17171-0.0684-0.35533-0.1018-0.54013-0.0984h-1.275z" fill="#FD5C1E"/>
<path d="m28.349 24.566c-0.1366 0-0.2717-0.0268-0.3979-0.0791-0.1261-0.0522-0.2407-0.1288-0.3372-0.2254s-0.173-0.2112-0.2252-0.3374c-0.0521-0.1261-0.0789-0.2613-0.0788-0.3979v-1.0402c0-0.3009-0.1195-0.5894-0.3323-0.8022-0.2127-0.2127-0.5013-0.3322-0.8021-0.3322-0.3009 0-0.5895 0.1195-0.8022 0.3322-0.2128 0.2128-0.3323 0.5013-0.3323 0.8022v1.0402c0 0.1366-0.0269 0.2719-0.0792 0.3981-0.0523 0.1261-0.1289 0.2408-0.2255 0.3373-0.0966 0.0966-0.2113 0.1732-0.3375 0.2254s-0.2614 0.0791-0.398 0.079h-1.0391c-0.149-1e-4 -0.2966 0.0291-0.4343 0.0861s-0.2628 0.1405-0.3681 0.2459c-0.1054 0.1054-0.189 0.2305-0.2459 0.3682-0.057 0.1377-0.0863 0.2852-0.0861 0.4343-2e-4 0.149 0.0291 0.2965 0.0861 0.4342 0.0569 0.1377 0.1405 0.2628 0.2459 0.3682 0.1053 0.1054 0.2304 0.1889 0.3681 0.2459s0.2853 0.0862 0.4343 0.0861h1.0391c0.1366-1e-4 0.2718 0.0268 0.398 0.079s0.2409 0.1288 0.3375 0.2254c0.0966 0.0965 0.1732 0.2112 0.2255 0.3374 0.0523 0.1261 0.0792 0.2614 0.0792 0.398v1.0402c0 0.3009 0.1195 0.5894 0.3323 0.8022 0.2127 0.2127 0.5013 0.3322 0.8022 0.3322 0.3008 0 0.5894-0.1195 0.8021-0.3322 0.2128-0.2128 0.3323-0.5013 0.3323-0.8022v-1.0402c-1e-4 -0.1366 0.0267-0.2718 0.0788-0.3979 0.0522-0.1262 0.1287-0.2408 0.2252-0.3374 0.0965-0.0965 0.2111-0.1731 0.3372-0.2254 0.1262-0.0522 0.2613-0.0791 0.3979-0.0791h1.0402c0.3009 0 0.5894-0.1195 0.8022-0.3323 0.2127-0.2127 0.3322-0.5013 0.3322-0.8021 0-0.3009-0.1195-0.5895-0.3322-0.8022-0.2128-0.2128-0.5013-0.3323-0.8022-0.3323h-1.0402zm173.71 0c-0.136 0-0.271-0.0268-0.398-0.0791-0.126-0.0522-0.24-0.1288-0.337-0.2254-0.096-0.0966-0.173-0.2112-0.225-0.3374-0.052-0.1261-0.079-0.2613-0.079-0.3979v-1.0402c0-0.3009-0.119-0.5894-0.332-0.8022-0.213-0.2127-0.501-0.3322-0.802-0.3322s-0.59 0.1195-0.802 0.3322c-0.213 0.2128-0.333 0.5013-0.333 0.8022v1.0402c0 0.1366-0.027 0.2719-0.079 0.398-0.052 0.1262-0.129 0.2409-0.225 0.3374-0.097 0.0966-0.212 0.1732-0.338 0.2254s-0.261 0.0791-0.398 0.079h-1.039c-0.149-1e-4 -0.297 0.0291-0.434 0.0861-0.138 0.057-0.263 0.1405-0.368 0.2459-0.106 0.1054-0.189 0.2305-0.246 0.3682s-0.087 0.2852-0.086 0.4343c-1e-3 0.149 0.029 0.2965 0.086 0.4342s0.14 0.2628 0.246 0.3682c0.105 0.1054 0.23 0.1889 0.368 0.2459 0.137 0.057 0.285 0.0862 0.434 0.0861h1.039c0.137-1e-4 0.272 0.0268 0.398 0.079s0.241 0.1288 0.338 0.2254c0.096 0.0965 0.173 0.2112 0.225 0.3374 0.052 0.1261 0.079 0.2614 0.079 0.398v1.0402c0 0.3009 0.12 0.5894 0.333 0.8022 0.212 0.2127 0.501 0.3322 0.802 0.3322s0.589-0.1195 0.802-0.3322c0.213-0.2128 0.332-0.5013 0.332-0.8022v-1.0402c0-0.1366 0.027-0.2718 0.079-0.3979 0.052-0.1262 0.129-0.2408 0.225-0.3374 0.097-0.0965 0.211-0.1731 0.337-0.2254 0.127-0.0522 0.262-0.0791 0.398-0.0791h1.04c0.301 0 0.59-0.1195 0.803-0.3323 0.212-0.2127 0.332-0.5013 0.332-0.8021 0-0.3009-0.12-0.5895-0.332-0.8022-0.213-0.2128-0.502-0.3323-0.803-0.3323h-1.04z" fill="#FED62C"/>
<path d="m185.38 41.328c-0.109-1e-4 -0.217 0.0213-0.317 0.063-0.101 0.0417-0.192 0.1028-0.269 0.1799-0.078 0.077-0.139 0.1685-0.18 0.2692-0.042 0.1007-0.063 0.2087-0.063 0.3176l-1e-3 3.647c0 0.2202 0.088 0.4312 0.243 0.5868 0.156 0.1557 0.367 0.2433 0.587 0.2436 0.22-6e-4 0.431-0.0883 0.586-0.244 0.156-0.1556 0.243-0.3664 0.243-0.5864v-3.647c0-0.2199-0.087-0.4308-0.243-0.5863-0.155-0.1556-0.366-0.2431-0.586-0.2434zm-1e-3 12.602c-0.22 1e-4 -0.431 0.0874-0.586 0.2427-0.155 0.1554-0.243 0.366-0.243 0.5858l1e-3 3.6489c0 0.1088 0.021 0.2166 0.063 0.3171 0.042 0.1006 0.103 0.1919 0.18 0.2688s0.168 0.1379 0.269 0.1794 0.208 0.0627 0.317 0.0625c0.109 1e-4 0.217-0.0212 0.317-0.0628 0.101-0.0416 0.192-0.1025 0.269-0.1794s0.138-0.1681 0.18-0.2686 0.063-0.2082 0.063-0.317v-3.6489c0-0.1089-0.021-0.2168-0.063-0.3174s-0.103-0.192-0.18-0.2689c-0.077-0.077-0.169-0.138-0.27-0.1795-0.1-0.0416-0.208-0.0629-0.317-0.0627zm-3.751-6.2273c0.077 0.077 0.168 0.1381 0.269 0.1798 0.101 0.0416 0.208 0.063 0.317 0.063 0.109-1e-4 0.217-0.0216 0.317-0.0634 0.101-0.0418 0.192-0.103 0.269-0.1801 0.077-0.0769 0.138-0.1682 0.18-0.2688 0.042-0.1007 0.064-0.2085 0.064-0.3175 0-0.1089-0.022-0.2168-0.064-0.3174s-0.103-0.192-0.18-0.2688l-2.579-2.5791c-0.157-0.1498-0.366-0.2324-0.582-0.2301-0.217 0.0023-0.424 0.0894-0.577 0.2425-0.154 0.1532-0.241 0.3603-0.244 0.577-2e-3 0.2166 0.08 0.4257 0.23 0.5824l2.58 2.5805zm7.503 5.1586c-0.077-0.077-0.168-0.1381-0.269-0.1798-0.1-0.0417-0.208-0.0632-0.317-0.0632s-0.217 0.0215-0.317 0.0632c-0.101 0.0417-0.192 0.1028-0.269 0.1798-0.155 0.1557-0.242 0.3666-0.242 0.5865s0.087 0.4308 0.242 0.5865l2.58 2.5791c0.077 0.0769 0.169 0.1379 0.269 0.1796 0.101 0.0416 0.209 0.063 0.317 0.063 0.109-1e-4 0.217-0.0215 0.318-0.0632 0.1-0.0417 0.192-0.1028 0.268-0.1798 0.077-0.077 0.138-0.1684 0.18-0.2689 0.042-0.1006 0.063-0.2084 0.063-0.3172 0-0.1089-0.021-0.2167-0.063-0.3172-0.042-0.1006-0.103-0.1919-0.18-0.2689l-2.58-2.5795zm-7.399-2.5795c0-0.2198-0.088-0.4305-0.243-0.5859-0.156-0.1554-0.366-0.2426-0.586-0.2426h-3.647c-0.11-0.0019-0.22 0.0182-0.322 0.059s-0.195 0.1016-0.274 0.1788c-0.078 0.0772-0.14 0.1692-0.183 0.2707-0.042 0.1015-0.064 0.2105-0.064 0.3206 0 0.11 0.022 0.219 0.064 0.3205 0.043 0.1015 0.105 0.1935 0.183 0.2707 0.079 0.0772 0.172 0.138 0.274 0.1788s0.212 0.0609 0.322 0.0591h3.647c0.109 0 0.217-0.0215 0.317-0.0632 0.101-0.0417 0.192-0.1028 0.269-0.1799s0.138-0.1685 0.18-0.2692c0.042-0.1006 0.063-0.2085 0.063-0.3174zm11.772-0.8285h-3.648c-0.109-1e-4 -0.216 0.0213-0.317 0.0629-0.1 0.0417-0.192 0.1028-0.269 0.1798s-0.138 0.1684-0.179 0.269c-0.042 0.1006-0.063 0.2084-0.063 0.3172 0 0.109 0.021 0.2169 0.063 0.3176s0.103 0.1921 0.18 0.2692c0.077 0.077 0.168 0.1381 0.269 0.1796 0.101 0.0416 0.208 0.0629 0.317 0.0626h3.647c0.459 0 0.829-0.3717 0.829-0.8297 0-0.4579-0.37-0.8301-0.829-0.8282zm-11.876 3.408-2.58 2.5795c-0.155 0.1556-0.243 0.3665-0.243 0.5863s0.088 0.4307 0.243 0.5863c0.325 0.3228 0.85 0.3252 1.173 0l2.579-2.5791c0.077-0.0769 0.138-0.1683 0.18-0.269 0.042-0.1006 0.063-0.2085 0.063-0.3175s-0.021-0.2169-0.063-0.3175c-0.042-0.1007-0.103-0.1921-0.18-0.269-0.077-0.077-0.168-0.1381-0.269-0.1798-0.1-0.0417-0.208-0.0632-0.317-0.0632s-0.217 0.0215-0.317 0.0632c-0.101 0.0417-0.192 0.1028-0.269 0.1798zm7.504-5.1586 2.579-2.5803c0.156-0.1554 0.243-0.3661 0.243-0.5859 0-0.2197-0.087-0.4304-0.243-0.5859-0.077-0.077-0.168-0.1381-0.268-0.1798-0.101-0.0417-0.209-0.0632-0.318-0.0632-0.108 0-0.216 0.0215-0.317 0.0632-0.1 0.0417-0.192 0.1028-0.268 0.1798l-2.581 2.5796c-0.155 0.1556-0.242 0.3664-0.242 0.5862 0 0.2199 0.087 0.4307 0.242 0.5863 0.077 0.0772 0.169 0.1384 0.269 0.1802 0.101 0.0418 0.209 0.0633 0.318 0.0633s0.217-0.0215 0.317-0.0633c0.101-0.0418 0.192-0.103 0.269-0.1802z" fill="#FED62C"/>
<path d="m83.346 84.171c-1e-4 0.4328 0.085 0.8615 0.2506 1.2614 0.1655 0.3999 0.4082 0.7632 0.7142 1.0693s0.6693 0.5489 1.0692 0.7146c0.3999 0.1656 0.8284 0.2509 1.2612 0.2509 0.4329 0 0.8614-0.0853 1.2613-0.2509 0.3998-0.1657 0.7632-0.4085 1.0692-0.7146s0.5487-0.6694 0.7142-1.0693c0.1656-0.3999 0.2507-0.8286 0.2506-1.2614 1e-4 -0.4328-0.085-0.8614-0.2506-1.2613-0.1655-0.3999-0.4082-0.7632-0.7142-1.0693s-0.6694-0.5489-1.0692-0.7146c-0.3999-0.1656-0.8284-0.2509-1.2613-0.2509-0.4328 0-0.8613 0.0853-1.2612 0.2509-0.3999 0.1657-0.7632 0.4085-1.0692 0.7146s-0.5487 0.6694-0.7142 1.0693c-0.1656 0.3999-0.2507 0.8285-0.2506 1.2613z"/>
<path d="m76.815 93.852c0 1.1857 0.471 2.3228 1.3094 3.1612s1.9756 1.3094 3.1612 1.3094c1.1857 0 2.3228-0.471 3.1612-1.3094s1.3094-1.9755 1.3094-3.1612-0.471-2.3228-1.3094-3.1612-1.9755-1.3094-3.1612-1.3094c-1.1856 0-2.3228 0.471-3.1612 1.3094s-1.3094 1.9755-1.3094 3.1612z" fill="#318AE4"/>
<path d="m126.17 93.852c0 2.4686-2.003 4.4708-4.471 4.4708-2.469 0-4.471-2.0022-4.471-4.4708 0-2.4687 2.002-4.4706 4.471-4.4706 2.468-3e-4 4.471 2.0019 4.471 4.4706z" fill="#318AE4"/>
<path d="m119.29 84.171c0 1.8192-1.475 3.2953-3.295 3.2953-1.819 0-3.295-1.4759-3.295-3.2953s1.476-3.2952 3.295-3.2952 3.295 1.4761 3.295 3.2952zm-9.29 7.4583c0.299-1.176-0.713-2.1765-1.928-2.1765h-13.196c-1.2153 0-2.2285 1.0005-1.928 2.1765 0.9679 3.8064 4.4201 6.6214 8.5258 6.6214 4.107 0 7.557-2.815 8.526-6.6214z"/>
<path d="m105.65 95.213c0 1.1822-1.869 2.1409-4.175 2.1409-2.3053 0-4.176-0.959-4.176-2.1409 0-1.1821 1.8707-2.1408 4.176-2.1408 2.306-3e-4 4.175 0.9587 4.175 2.1408z" fill="#024A94"/>
<path d="m31.189 104.44c-1.3137 0-2.4818-0.935-2.7304-2.272-0.8219-4.4167-1.2383-8.9514-1.2383-13.479 0-40.374 32.847-73.221 73.221-73.221 16.766 0 32.542 5.5145 45.621 15.947 1.201 0.9571 1.398 2.7069 0.44 3.9071-0.956 1.2008-2.705 1.3981-3.907 0.4399-12.085-9.6384-26.661-14.733-42.154-14.733-37.308 0-67.66 30.352-67.66 67.66 0 4.1877 0.3849 8.3801 1.1441 12.462 0.2812 1.51-0.7151 2.962-2.2248 3.242-0.1717 0.032-0.343 0.048-0.5115 0.048zm6.2738 18.612c-0.516 1e-3 -1.022-0.142-1.4613-0.413-0.4392-0.271-0.7945-0.659-1.0259-1.12-1.2892-2.568-2.426-5.209-3.4045-7.911-0.5226-1.444 0.2244-3.038 1.6685-3.561 1.4446-0.52 3.0382 0.225 3.5608 1.669 0.9038 2.496 1.9539 4.936 3.1449 7.307 0.6892 1.373 0.1358 3.044-1.2369 3.733-0.3864 0.195-0.813 0.296-1.2456 0.296zm125.81 0.297c-0.424 0-0.854-0.097-1.258-0.303-1.369-0.696-1.914-2.37-1.218-3.738 4.849-9.54 7.308-19.842 7.308-30.619 0-11.6-2.984-23.043-8.629-33.09-0.752-1.3384-0.277-3.034 1.062-3.7859 1.338-0.7512 3.035-0.2764 3.786 1.0621 6.112 10.877 9.342 23.262 9.342 35.814 0 11.661-2.662 22.811-7.912 33.139-0.232 0.458-0.587 0.842-1.025 1.111-0.438 0.268-0.942 0.41-1.456 0.41zm-6.242-73.84c-0.448 7e-4 -0.89-0.1073-1.288-0.3147s-0.74-0.5082-0.996-0.8764c-1.387-1.9912-2.15-2.8963-3.439-4.2921-1.041-1.1283-0.971-2.8873 0.157-3.9294 1.128-1.0414 2.887-0.9721 3.93 0.1569 1.413 1.5316 2.36 2.6527 3.915 4.8859 0.878 1.2599 0.568 2.9928-0.692 3.8709-0.465 0.3251-1.019 0.4992-1.587 0.4989z"/>
</svg>
