<?xml version="1.0" encoding="UTF-8"?>
<svg viewBox="0 0 141 140" xmlns="http://www.w3.org/2000/svg">
<path d="m94.597 17.693c9.0248 4.1902 17.858 10.276 25.827 18.656 7.968 8.4802 15.265 19.355 18.433 32.125 3.168 12.77 2.112 27.436-6.336 35.018-8.545 7.583-24.483 8.081-36.676 14.467-12.193 6.484-20.642 18.855-30.531 21.449-9.9849 2.694-21.314-4.29-32.547-11.273-11.233-7.084-22.274-14.067-27.746-24.343-5.3765-10.276-5.0885-23.745-3.5523-36.315 1.4401-12.571 4.1284-24.243 8.3528-36.714 4.1284-12.471 9.7929-25.64 19.586-29.431 9.6969-3.8909 23.522 1.5963 35.139 5.5869 11.617 3.9907 20.93 6.4848 30.051 10.775z" fill="#F2F4F8"/>
<path d="m30.359 95.097c2.9152 0 5.2789-2.5321 5.2789-5.6564v-15.145h-10.558v15.145c2e-4 3.1242 2.3638 5.6563 5.2793 5.6563z" fill="#54B7FA"/>
<path d="m26.965 87.023c0 0.2229 0.0439 0.4435 0.1291 0.6494 0.0853 0.2059 0.2103 0.3929 0.3679 0.5505 0.1575 0.1576 0.3446 0.2826 0.5505 0.3678 0.2059 0.0853 0.4265 0.1292 0.6494 0.1292 0.2228 0 0.4435-0.0439 0.6493-0.1292 0.2059-0.0852 0.393-0.2102 0.5505-0.3678 0.1576-0.1576 0.2826-0.3446 0.3679-0.5505s0.1291-0.4265 0.1291-0.6494c0-0.2228-0.0438-0.4435-0.1291-0.6494-0.0853-0.2058-0.2103-0.3929-0.3679-0.5505-0.1575-0.1575-0.3446-0.2825-0.5505-0.3678-0.2058-0.0853-0.4265-0.1292-0.6493-0.1292-0.2229 0-0.4435 0.0439-0.6494 0.1292s-0.393 0.2103-0.5505 0.3678c-0.1576 0.1576-0.2826 0.3447-0.3679 0.5505-0.0852 0.2059-0.1291 0.4266-0.1291 0.6494z" fill="#348EE4"/>
<path d="m28.375 80.958c0 0.1403 0.0275 0.2791 0.0812 0.4087 0.0536 0.1295 0.1322 0.2473 0.2313 0.3464 0.0992 0.0992 0.2169 0.1779 0.3464 0.2315 0.1296 0.0537 0.2684 0.0813 0.4086 0.0813s0.2791-0.0276 0.4086-0.0813c0.1296-0.0536 0.2472-0.1323 0.3464-0.2315 0.0991-0.0991 0.1777-0.2169 0.2314-0.3464 0.0536-0.1296 0.0812-0.2684 0.0811-0.4087 1e-4 -0.1402-0.0275-0.279-0.0811-0.4086-0.0537-0.1296-0.1323-0.2473-0.2314-0.3464-0.0992-0.0992-0.2168-0.1779-0.3464-0.2315-0.1295-0.0537-0.2684-0.0813-0.4086-0.0813s-0.279 0.0276-0.4086 0.0813c-0.1295 0.0536-0.2472 0.1323-0.3464 0.2315-0.0991 0.0991-0.1777 0.2168-0.2313 0.3464-0.0537 0.1296-0.0812 0.2684-0.0812 0.4086z" fill="#348EE4"/>
<path d="m27.837 79.117c0-1.5233-1.2346-2.7575-2.7575-2.7575v5.5149c1.5229 0 2.7575-1.2341 2.7575-2.7574z" fill="#348EE4"/>
<path d="m27.248 96.734c-3.466 0-6.2856-2.9889-6.2856-6.6629v-19.104h2.0131v19.105c0 2.5639 1.9165 4.6498 4.2723 4.6498s4.2727-2.0859 4.2727-4.6498v-19.3h2.013v19.3c3e-4 3.6739-2.8195 6.6628-6.2855 6.6628z"/>
<path d="m35.627 70.947c0 0.9922-0.6376 1.7969-1.4224 1.7969h-2.5289s-0.8656 0.0808-0.8567-1.7969c0 0-0.1579-1.6665 0.8567-1.7974h2.5289c0.7847 0 1.4224 0.8042 1.4224 1.7974zm-16.781 0c0 0.9922 0.6372 1.7975 1.4221 1.7975h2.5288s0.8634-0.0783 0.8568-1.7975c0 0 0.1392-1.7974-0.8568-1.7974h-2.5288c-0.7847 0-1.4221 0.8048-1.4221 1.7974z"/>
<path d="m8.7592 57.376c-1.2677 0-2.2988-1.0311-2.2988-2.2985 0-1.2675 1.0312-2.2988 2.2988-2.2988 1.2674 0 2.2986 1.0313 2.2986 2.2988-2e-4 1.2674-1.0313 2.2985-2.2986 2.2985zm0-3.9262c-0.89739 0-1.6278 0.7302-1.6278 1.6277 0 0.8973 0.73039 1.6274 1.6278 1.6274 0.89738 0 1.6275-0.73 1.6275-1.6274 0-0.8976-0.73008-1.6277-1.6275-1.6277z" fill="#FD5C1E"/>
<path d="m10.728 38.29c-0.1021 0-0.2032-0.0201-0.2976-0.0592s-0.1801-0.0964-0.2523-0.1686-0.1295-0.1579-0.1685-0.2523c-0.0391-0.0944-0.05918-0.1955-0.05914-0.2976v-0.7777c0-0.2251-0.08939-0.4409-0.2485-0.6-0.15912-0.1591-0.37492-0.2485-0.59994-0.2485-0.22503 0-0.44083 0.0894-0.59994 0.2485-0.15912 0.1591-0.24851 0.3749-0.24851 0.6v0.7777c2e-5 0.1021-0.02009 0.2033-0.05917 0.2976-0.03909 0.0944-0.09638 0.1802-0.16862 0.2524s-0.15799 0.1295-0.25238 0.1686c-0.09438 0.039-0.19553 0.0591-0.29768 0.0591h-0.77785c-0.22497 1e-4 -0.44069 0.0895-0.59976 0.2486-0.15906 0.1591-0.24846 0.3748-0.24853 0.5998 7e-5 0.225 0.08947 0.4407 0.24853 0.5998 0.15907 0.1591 0.37479 0.2485 0.59976 0.2487h0.77785c0.10215-1e-4 0.20332 0.02 0.29771 0.059 0.09439 0.0391 0.18015 0.0964 0.25239 0.1686s0.12954 0.158 0.16862 0.2524c0.03908 0.0943 0.05917 0.1955 0.05913 0.2977v0.7778c0.00416 0.2223 0.09538 0.434 0.25404 0.5898 0.15866 0.1557 0.37209 0.2429 0.59441 0.2429 0.22231 0 0.43574-0.0872 0.5944-0.2429 0.15867-0.1558 0.24988-0.3675 0.25404-0.5898v-0.7778c-2e-5 -0.1022 0.02008-0.2033 0.05914-0.2976 0.0391-0.0944 0.0963-0.1801 0.1685-0.2523 0.0723-0.0723 0.158-0.1296 0.2523-0.1686 0.0944-0.0391 0.1955-0.0592 0.2976-0.0592h0.7779c0.2222-0.0042 0.434-0.0954 0.5897-0.2541 0.1557-0.1586 0.243-0.3721 0.243-0.5944s-0.0873-0.4357-0.243-0.5944-0.3675-0.2499-0.5897-0.254h-0.7779z" fill="#2BA9FC"/>
<path d="m36.864 33.726c-0.2156-1e-4 -0.4223-0.0858-0.5747-0.2382-0.1525-0.1525-0.2382-0.3592-0.2383-0.5748v-0.8147c0-0.1166-0.023-0.232-0.0676-0.3397-0.0447-0.1077-0.1102-0.2055-0.1927-0.2879-0.0825-0.0823-0.1804-0.1476-0.2882-0.192-0.1078-0.0445-0.2232-0.0672-0.3398-0.067-0.2352-1e-4 -0.4609 0.0933-0.6273 0.2595-0.1664 0.1663-0.2599 0.3918-0.26 0.6271v0.8147c0 0.1068-0.021 0.2125-0.0618 0.3112-0.0408 0.0986-0.1007 0.1883-0.1762 0.2638s-0.1651 0.1353-0.2637 0.1762c-0.0987 0.0408-0.2044 0.0619-0.3112 0.0618h-0.8133c-0.1166 0-0.2321 0.0229-0.3398 0.0675s-0.2057 0.11-0.2881 0.1924c-0.0825 0.0825-0.1479 0.1803-0.1926 0.2881-0.0446 0.1077-0.0676 0.2232-0.0676 0.3398s0.023 0.2321 0.0676 0.3398c0.0447 0.1077 0.1101 0.2056 0.1926 0.288 0.0824 0.0825 0.1804 0.1479 0.2881 0.1925 0.1077 0.0445 0.2232 0.0675 0.3398 0.0674h0.8133c0.1068 0 0.2125 0.0211 0.3111 0.0619 0.0987 0.0409 0.1883 0.1008 0.2638 0.1763 0.0754 0.0755 0.1353 0.1651 0.1761 0.2637 0.0409 0.0987 0.0619 0.2044 0.0619 0.3111v0.8132c1e-4 0.2352 0.0936 0.4609 0.26 0.6272 0.1664 0.1664 0.392 0.2598 0.6273 0.2599 0.1166 2e-4 0.2321-0.0227 0.3398-0.0672 0.1078-0.0445 0.2057-0.1098 0.2882-0.1922s0.148-0.1803 0.1926-0.288c0.0447-0.1077 0.0677-0.2231 0.0677-0.3397v-0.8132c1e-4 -0.2156 0.0858-0.4223 0.2382-0.5748 0.1525-0.1524 0.3592-0.2381 0.5748-0.2382h0.8142c0.2355-1e-4 0.4614-0.0937 0.6279-0.2603s0.26-0.3925 0.26-0.628c0-0.4899-0.3988-0.8872-0.8879-0.8872h-0.8142z" fill="#FD5C1E"/>
<path d="m25.254 21.147c-0.1167 1e-4 -0.2323-0.0228-0.3402-0.0674-0.1078-0.0446-0.2059-0.1101-0.2884-0.1926-0.0826-0.0825-0.1481-0.1805-0.1927-0.2883-0.0447-0.1079-0.0677-0.2235-0.0676-0.3402v-0.8889c-2e-4 -0.2571-0.1025-0.5037-0.2843-0.6855-0.1819-0.1817-0.4285-0.2839-0.6856-0.284-0.2571 2e-4 -0.5036 0.1024-0.6855 0.2842-0.1818 0.1817-0.2841 0.4282-0.2844 0.6853v0.8889c1e-4 0.1167-0.0228 0.2322-0.0674 0.3401-0.0446 0.1078-0.11 0.2058-0.1925 0.2883s-0.1805 0.1479-0.2883 0.1926c-0.1078 0.0446-0.2233 0.0676-0.34 0.0675h-0.8892c-0.1275 0-0.2536 0.0252-0.3713 0.074s-0.2246 0.1203-0.3147 0.2105c-0.09 0.0901-0.1614 0.1972-0.2101 0.3149-0.0487 0.1178-0.0737 0.244-0.0735 0.3714 0 0.1273 0.0251 0.2534 0.0738 0.371s0.1202 0.2244 0.2102 0.3144c0.0901 0.09 0.1969 0.1614 0.3146 0.2101 0.1176 0.0487 0.2437 0.0737 0.371 0.0737h0.8892c0.1167-1e-4 0.2322 0.0228 0.34 0.0675 0.1078 0.0446 0.2058 0.1101 0.2883 0.1926s0.1479 0.1805 0.1925 0.2883 0.0675 0.2234 0.0674 0.34v0.8897c0 0.5348 0.4348 0.9689 0.9699 0.9689 0.2571 1e-4 0.5036-0.102 0.6855-0.2836 0.1819-0.1817 0.2842-0.4282 0.2844-0.6853v-0.8897c-1e-4 -0.1167 0.0229-0.2323 0.0676-0.3401 0.0446-0.1079 0.1101-0.2058 0.1927-0.2884 0.0825-0.0825 0.1806-0.1479 0.2884-0.1925 0.1079-0.0446 0.2235-0.0675 0.3402-0.0674h0.8886c0.1274 1e-4 0.2535-0.0249 0.3711-0.0736 0.1177-0.0487 0.2246-0.1201 0.3146-0.2101 0.0901-0.09 0.1615-0.1968 0.2102-0.3145 0.0487-0.1176 0.0738-0.2437 0.0737-0.371 2e-4 -0.1274-0.0248-0.2536-0.0734-0.3714-0.0487-0.1178-0.1201-0.2248-0.2101-0.315-0.0901-0.0902-0.197-0.1617-0.3147-0.2105s-0.2439-0.0739-0.3714-0.0739h-0.8886z" fill="#FED62C"/>
<path d="m21.438 40.552c-0.0627-1e-4 -0.1248 0.0123-0.1827 0.0362-0.0579 0.024-0.1105 0.0592-0.1548 0.1035-0.0443 0.0444-0.0794 0.097-0.1033 0.155-0.0239 0.0579-0.0362 0.12-0.036 0.1827l-0.0011 2.0973c0 0.2626 0.2143 0.4761 0.478 0.4769 0.1263-3e-4 0.2473-0.0508 0.3365-0.1401 0.0892-0.0894 0.1394-0.2105 0.1396-0.3368v-2.0973c1e-4 -0.0626-0.0121-0.1247-0.036-0.1826-0.0238-0.0579-0.0589-0.1106-0.1031-0.1549s-0.0968-0.0795-0.1546-0.1035c-0.0579-0.024-0.1199-0.0364-0.1825-0.0364zm0 7.2468c-0.1265 0-0.2479 0.0502-0.3374 0.1395-0.0896 0.0894-0.14 0.2106-0.1403 0.337l1e-3 2.0978c0 0.0626 0.0123 0.1246 0.0362 0.1825 0.024 0.0579 0.0591 0.1104 0.1034 0.1547s0.0968 0.0794 0.1547 0.1034c0.0579 0.0239 0.1199 0.0362 0.1825 0.0362s0.1246-0.0123 0.1824-0.0362c0.0579-0.024 0.1104-0.0591 0.1547-0.1034 0.0442-0.0443 0.0793-0.0969 0.1032-0.1547 0.0239-0.0579 0.0361-0.1199 0.0361-0.1825v-2.0978c0-0.1263-0.0503-0.2475-0.1396-0.3369-0.0894-0.0894-0.2106-0.1396-0.3369-0.1396zm-2.1577-3.581c0.0442 0.0443 0.0968 0.0794 0.1547 0.1034 0.0578 0.024 0.1198 0.0364 0.1825 0.0364 0.0626 0 0.1246-0.0124 0.1825-0.0364 0.0578-0.024 0.1104-0.0591 0.1546-0.1034 0.0894-0.0894 0.1396-0.2107 0.1396-0.3371s-0.0502-0.2476-0.1396-0.337l-1.4836-1.4833c-0.0441-0.0444-0.0966-0.0796-0.1544-0.1036-0.0578-0.0241-0.1198-0.0364-0.1824-0.0364s-0.1246 0.0123-0.1824 0.0364c-0.0578 0.024-0.1103 0.0592-0.1544 0.1036-0.0442 0.0442-0.0793 0.0968-0.1033 0.1546-0.0239 0.0578-0.0363 0.1198-0.0363 0.1823 0 0.0626 0.0124 0.1246 0.0363 0.1824 0.024 0.0578 0.0591 0.1103 0.1033 0.1546l1.4829 1.4835zm4.3147 2.9663c-0.0442-0.0442-0.0966-0.0793-0.1544-0.1033-0.0578-0.0239-0.1197-0.0363-0.1822-0.0363-0.0626 0-0.1245 0.0124-0.1822 0.0363-0.0578 0.024-0.1103 0.0591-0.1545 0.1033-0.0893 0.0895-0.1395 0.2108-0.1395 0.3373 0 0.1264 0.0502 0.2477 0.1395 0.3372l1.4834 1.4832c0.0894 0.089 0.2105 0.139 0.3368 0.139 0.1262 0 0.2473-0.05 0.3367-0.139 0.0443-0.0443 0.0795-0.0969 0.1034-0.1547 0.024-0.0579 0.0363-0.1199 0.0363-0.1825s-0.0123-0.1246-0.0363-0.1825c-0.0239-0.0578-0.0591-0.1104-0.1034-0.1546l-1.4836-1.4834zm-4.2549-1.4833c0-0.0626-0.0124-0.1246-0.0363-0.1824-0.024-0.0578-0.0591-0.1103-0.1034-0.1545s-0.0969-0.0793-0.1547-0.1032c-0.0579-0.0238-0.1199-0.0361-0.1824-0.036h-2.0973c-0.0626-1e-4 -0.1246 0.0122-0.1825 0.0361-0.0578 0.0238-0.1104 0.0589-0.1546 0.1031-0.0443 0.0442-0.0795 0.0967-0.1034 0.1545-0.024 0.0579-0.0363 0.1198-0.0363 0.1824 0 0.1265 0.0502 0.2478 0.1396 0.3373 0.0894 0.0894 0.2107 0.1398 0.3372 0.1399h2.0973c0.0626 0 0.1246-0.0123 0.1825-0.0363s0.1105-0.0591 0.1548-0.1035c0.0442-0.0443 0.0794-0.0969 0.1033-0.1548s0.0362-0.12 0.0362-0.1826zm6.7693-0.4761h-2.0981c-0.0625 1e-4 -0.1244 0.0124-0.1822 0.0364-0.0577 0.024-0.1102 0.0591-0.1544 0.1034-0.0441 0.0442-0.0791 0.0968-0.103 0.1546-0.0238 0.0578-0.036 0.1198-0.0358 0.1823-2e-4 0.0626 0.012 0.1247 0.0359 0.1826 0.0239 0.058 0.059 0.1106 0.1034 0.1549 0.0443 0.0443 0.0969 0.0794 0.1548 0.1033s0.12 0.0361 0.1826 0.036h2.0968c0.0626 0 0.1247-0.0124 0.1826-0.0363 0.0579-0.024 0.1105-0.0592 0.1548-0.1035s0.0794-0.0969 0.1034-0.1548c0.0239-0.0579 0.0363-0.12 0.0362-0.1827 2e-4 -0.0626-0.012-0.1247-0.036-0.1826-0.0239-0.0579-0.059-0.1105-0.1034-0.1547-0.0443-0.0443-0.097-0.0794-0.1549-0.1032-0.058-0.0238-0.1201-0.0359-0.1827-0.0357zm-6.8291 1.9594-1.483 1.4834c-0.0894 0.0894-0.1397 0.2107-0.1397 0.3371 0 0.1265 0.0503 0.2478 0.1397 0.3372 0.1868 0.1854 0.4874 0.1873 0.6735 0l1.4837-1.4832c0.0894-0.0894 0.1397-0.2107 0.1397-0.3371 0-0.1265-0.0502-0.2478-0.1396-0.3372-0.0894-0.0895-0.2107-0.1397-0.3371-0.1398-0.1265 0-0.2478 0.0502-0.3372 0.1396zm4.3153-2.9663 1.483-1.4835c0.0893-0.0894 0.1394-0.2106 0.1394-0.337 0-0.1263-0.0501-0.2475-0.1394-0.3369-0.0441-0.0444-0.0966-0.0796-0.1544-0.1036-0.0578-0.0241-0.1198-0.0364-0.1823-0.0364-0.0626 0-0.1246 0.0123-0.1824 0.0364-0.0578 0.024-0.1103 0.0592-0.1544 0.1036l-1.4834 1.4833c-0.0893 0.0894-0.1396 0.2106-0.1396 0.337s0.0503 0.2477 0.1396 0.3371c0.0442 0.0444 0.0967 0.0796 0.1545 0.1036 0.0578 0.0241 0.1198 0.0364 0.1825 0.0364 0.0626 0 0.1246-0.0123 0.1824-0.0364 0.0578-0.024 0.1103-0.0592 0.1545-0.1036z" fill="#FED62C"/>
<path d="m22.986 64.725c-1e-4 0.1363 0.0267 0.2713 0.0789 0.3973 0.0521 0.1259 0.1285 0.2403 0.2249 0.3367 0.0963 0.0964 0.2108 0.1729 0.3367 0.2251 0.1259 0.0521 0.2609 0.079 0.3972 0.079s0.2712-0.0269 0.3972-0.079c0.1259-0.0522 0.2403-0.1287 0.3367-0.2251 0.0963-0.0964 0.1727-0.2108 0.2249-0.3367 0.0521-0.126 0.0789-0.261 0.0788-0.3973 1e-4 -0.1363-0.0267-0.2712-0.0788-0.3972-0.0522-0.1259-0.1286-0.2404-0.2249-0.3368-0.0964-0.0964-0.2108-0.1728-0.3367-0.225-0.126-0.0522-0.2609-0.079-0.3972-0.079s-0.2713 0.0268-0.3972 0.079-0.2404 0.1286-0.3367 0.225c-0.0964 0.0964-0.1728 0.2109-0.2249 0.3368-0.0522 0.126-0.079 0.2609-0.0789 0.3972z" fill="#FD5C1E"/>
<path d="m17.888 31.211c-1e-4 0.1363-0.0269 0.2713-0.0791 0.3973-0.0522 0.1259-0.1287 0.2404-0.2252 0.3367-0.0964 0.0964-0.2109 0.1729-0.3368 0.225-0.126 0.0522-0.261 0.079-0.3974 0.0789-0.1362 0-0.2712-0.0268-0.3971-0.079s-0.2403-0.1286-0.3366-0.225-0.1727-0.2108-0.2248-0.3368c-0.0521-0.1259-0.0789-0.2609-0.0788-0.3971-1e-4 -0.1363 0.0267-0.2712 0.0788-0.3971 0.0522-0.1259 0.1286-0.2403 0.2249-0.3367s0.2107-0.1728 0.3366-0.225 0.2608-0.079 0.397-0.0791c0.2753 0 0.5394 0.1094 0.7341 0.304s0.3042 0.4586 0.3044 0.7339z" fill="#FD5C1E"/>
<path d="m19.721 60.687c0 0.1994-0.0792 0.3906-0.2201 0.5317-0.141 0.1411-0.3321 0.2204-0.5315 0.2207-0.0988 0-0.1967-0.0194-0.288-0.0572s-0.1743-0.0932-0.2442-0.1631-0.1253-0.1528-0.1631-0.2441c-0.0379-0.0913-0.0573-0.1892-0.0573-0.288 2e-4 -0.1994 0.0796-0.3906 0.2207-0.5316s0.3324-0.2201 0.5319-0.2201c0.1993 2e-4 0.3903 0.0795 0.5312 0.2205 0.1409 0.1409 0.2202 0.3319 0.2204 0.5312z" fill="#FDD72C"/>
<path d="m32.232 60.035c-1.5646 0-2.8374-1.2728-2.8374-2.8372 0-1.5651 1.2728-2.8384 2.8374-2.8384s2.8372 1.2733 2.8372 2.8384c0 1.5643-1.2726 2.8372-2.8372 2.8372zm0-4.6691c-1.0095 0-1.8309 0.8218-1.8309 1.8319 0 1.0093 0.8214 1.8306 1.8309 1.8306s1.8307-0.8213 1.8307-1.8306c0-1.0101-0.821-1.8319-1.8307-1.8319z" fill="#2BA9FC"/>
<path d="m50.162 62.317c-1.8933 5.8932-1.6668 11.963 0.2563 17.409 1.04 2.9453 2.7542 7.9241 3.4698 11.054l0.9095 3.5242 26.466 8.5043 2.8198-2.574c2.5338-2.5575 7.1927-5.5614 9.6866-7.4433 4.3424-3.2756 7.7436-7.8549 9.5266-13.401 4.65-14.475-3.4741-30.03-18.146-34.745-14.673-4.7146-30.337 3.1971-34.988 17.671z" fill="#FDD72C"/>
<path d="m56.923 61.093c-0.1885-1e-4 -0.3733-0.0532-0.5331-0.1532-0.1599-0.1-0.2884-0.2429-0.371-0.4124-0.0827-0.1695-0.116-0.3588-0.0963-0.5463s0.0917-0.3658 0.2078-0.5144c2.3142-2.9614 5.1511-5.4124 8.4322-7.2845 0.1148-0.0655 0.2414-0.1077 0.3725-0.1243 0.1311-0.0165 0.2642-0.0071 0.3917 0.0277 0.1275 0.0349 0.2468 0.0945 0.3513 0.1755 0.1044 0.081 0.1918 0.1818 0.2573 0.2966s0.1078 0.2414 0.1243 0.3725c0.0166 0.1311 0.0072 0.2642-0.0277 0.3917s-0.0945 0.2469-0.1755 0.3513-0.1818 0.1919-0.2966 0.2574c-3.0525 1.7416-5.6911 4.0214-7.8431 6.7756-0.0942 0.1207-0.2146 0.2182-0.3521 0.2853-0.1376 0.067-0.2886 0.1017-0.4417 0.1015zm13.55-9.2698c-0.2444-4e-4 -0.4803-0.0896-0.6638-0.2511-0.1834-0.1615-0.3018-0.3842-0.3332-0.6266-0.0313-0.2424 0.0265-0.4879 0.1629-0.6907 0.1363-0.2029 0.3417-0.3492 0.578-0.4118 0.7579-0.1998 1.5234-0.3694 2.2948-0.5082 0.5422-0.0988 1.0705 0.2652 1.1688 0.8127 0.0472 0.2628-0.012 0.5335-0.1645 0.7527-0.1524 0.2191-0.3857 0.3688-0.6485 0.4159-0.7184 0.1293-1.4313 0.2872-2.137 0.4736-0.0841 0.0221-0.1706 0.0334-0.2575 0.0335z" fill="#fff"/>
<path d="m82.012 44.38c-1.3051-0.4192-2.639-0.7424-3.9912-0.967 12.042 5.9199 18.284 19.785 14.111 32.771-1.7597 5.4774-5.1189 9.9993-9.407 13.234-2.462 1.8581-7.0626 4.8244-9.5649 7.3505l-2.7852 2.5414 7.7996 2.5066 2.7851-2.5417c2.5023-2.5262 7.103-5.4929 9.565-7.3507 4.288-3.235 7.6476-7.7564 9.4078-13.234 4.5934-14.293-3.4304-29.655-17.92-34.31z" fill="#F37C20"/>
<path d="m68.629 112.61-9.2477-2.971c-3.547-1.139-6.0385-4.603-5.4795-8.692l0.9417-6.6287 26.399 8.4827s-1.4587 2.68-3.0961 5.936c-1.9874 3.952-5.9705 5.014-9.5171 3.873z" fill="#fff"/>
<path d="m76.801 102.88-27.636-8.5777-1.0878-4.0514c-0.5495-2.2941-1.7429-5.9646-3.5535-10.936-2.1363-5.8626-2.29-12.104-0.4449-18.048v2e-4c4.6645-15.026 20.845-23.407 36.07-18.681 7.3729 2.2884 13.426 7.2732 17.044 14.036 3.6209 6.7676 4.3699 14.505 2.1097 21.786-1.7336 5.5832-5.1016 10.422-9.7402 13.994-0.7036 0.5419-1.5812 1.1768-2.5105 1.8492-2.3376 1.6911-5.2468 3.7958-6.9932 5.594l-0.0364 0.0354-3.2211 2.9993zm-25.98-10.172 25.462 7.9025 2.3489-2.1871c1.8697-1.919 4.8464-4.0724 7.2396-5.8038 0.9165-0.6632 1.7825-1.2895 2.4624-1.8132 4.3081-3.3175 7.436-7.8115 9.0456-12.996 2.0993-6.7631 1.4024-13.951-1.962-20.24-3.3671-6.2931-9.0017-10.932-15.866-13.063-14.164-4.3965-29.216 3.3887-33.55 17.355v1e-4c-1.7137 5.52-1.5706 11.316 0.4134 16.762 1.8632 5.1146 3.045 8.7555 3.6134 11.13l0.7933 2.9532z"/>
<path d="m64.122 112.57-9.2769-2.879c-3.5577-1.105-6.084-4.543-5.5657-8.637l0.8762-6.6387 26.481 8.2197s-1.4313 2.695-3.0364 5.968c-1.9482 3.971-5.9207 5.071-9.4782 3.967z" fill="#fff"/>
<path d="m66.725 113.99c-0.9453 0-1.9204-0.147-2.9011-0.451l-9.277-2.88c-4.2471-1.319-6.8234-5.318-6.2658-9.724l1.0331-7.8279 28.782 8.9339-0.5698 1.074c-0.0141 0.026-1.4427 2.719-3.0217 5.938-1.5439 3.147-4.4808 4.937-7.7792 4.937zm-2.3042-2.374c2.6348 0.818 6.3845 0.405 8.2759-3.45 0.8106-1.649 1.64-3.29 2.488-4.921l-24.187-7.5076-0.7199 5.4556c-0.4324 3.415 1.5682 6.519 4.866 7.544l9.2771 2.879zm32.746-7.517c-0.1437 0-0.2858-0.03-0.4168-0.09-0.1309-0.059-0.2476-0.146-0.3422-0.254s-0.165-0.235-0.2063-0.373-0.0527-0.283-0.0334-0.425c0.5577-4.1053-5.5148-5.6306-5.5763-5.6455l-0.0325-0.0084-9.2626-2.583c-0.2552-0.0734-0.4711-0.2446-0.6006-0.4764-0.1295-0.2319-0.1622-0.5055-0.0909-0.7613s0.2408-0.473 0.4716-0.6044 0.5041-0.1662 0.7605-0.097l9.2469 2.5786c2.7375 0.6705 7.7169 3.1704 7.0786 7.8684-0.0327 0.241-0.1516 0.462-0.3347 0.622s-0.418 0.249-0.6613 0.249z"/>
<path d="m96.987 102.77c-0.0635 0.228-0.1931 0.432-0.3725 0.586-0.1793 0.154-0.4002 0.251-0.6349 0.279-0.2346 0.029-0.4724-0.013-0.6833-0.12s-0.3854-0.273-0.5014-0.479c-0.1161-0.206-0.1684-0.442-0.1505-0.678 0.0179-0.235 0.1053-0.46 0.2512-0.646 0.1458-0.186 0.3435-0.325 0.5681-0.399 0.2247-0.073 0.466-0.079 0.6937-0.015 0.6359 0.177 1.0079 0.836 0.8296 1.472zm-46.157-13.392-5.407-0.0063c-0.2696-0.0307-6.6399-0.7948-9.6833-4.686-1.2867-1.6452-1.7936-3.5923-1.5058-5.7868 0.0723-0.5512 0.5783-0.9384 1.1287-0.8672 0.2647 0.0347 0.5047 0.1731 0.6673 0.3847 0.1627 0.2117 0.2346 0.4793 0.2 0.744-0.2179 1.6623 0.1406 3.0639 1.0953 4.2851 2.4018 3.0704 7.6964 3.8435 8.274 3.9195h5.2308c0.1322-1e-4 0.2632 0.0259 0.3853 0.0765 0.1222 0.0505 0.2332 0.1247 0.3267 0.2182 0.0935 0.0934 0.1677 0.2044 0.2183 0.3265 0.0506 0.1222 0.0766 0.2531 0.0766 0.3853s-0.026 0.2631-0.0766 0.3853c-0.0506 0.1221-0.1248 0.2331-0.2183 0.3266s-0.2045 0.1676-0.3267 0.2181c-0.1221 0.0506-0.2531 0.0766-0.3853 0.0765z"/>
<path d="m35.41 79.348c0.0853-0.3052 0.2883-0.5641 0.5643-0.7197 0.2761-0.1555 0.6027-0.1951 0.9079-0.11 0.1511 0.0422 0.2925 0.1137 0.416 0.2106 0.1234 0.0968 0.2266 0.217 0.3036 0.3537 0.0771 0.1367 0.1264 0.2872 0.1452 0.443 0.0188 0.1557 0.0068 0.3137-0.0355 0.4648-0.1769 0.6361-0.8361 1.0071-1.4717 0.8298-0.1512-0.0421-0.2927-0.1136-0.4162-0.2104s-0.2268-0.217-0.3039-0.3538c-0.077-0.1367-0.1264-0.2873-0.1452-0.4431s-0.0068-0.3138 0.0355-0.4649zm26.948-0.7724c-0.326 1.1568-1.5299 1.8318-2.6881 1.505-1.1573-0.326-1.8316-1.5298-1.505-2.687 0.3259-1.1578 1.5291-1.8326 2.6871-1.5063 1.1584 0.3264 1.8324 1.5302 1.506 2.6883zm18.335 3.5507c-0.3267 1.1579-1.5299 1.8317-2.6874 1.5058-1.158-0.3265-1.8319-1.53-1.5056-2.6872 0.326-1.1584 1.5299-1.8323 2.6879-1.5065 1.1575 0.3266 1.8313 1.5302 1.5051 2.6879zm-8.0513 3.0477c0.0924-0.274-0.0891-0.5536-0.3722-0.6148l-8.1773-1.7786c-0.2815-0.0608-0.5632 0.118-0.5944 0.4054-0.2454 2.3558 1.3152 4.5693 3.6833 5.0842 2.3682 0.5146 4.7074-0.8508 5.4606-3.0962z"/>
<path d="m69.431 86.942c-0.1233 0.5635-1.1609 0.817-2.3195 0.5656-1.1582-0.2524-1.9981-0.9142-1.8754-1.4771 0.1228-0.5634 1.1606-0.8169 2.3194-0.5651 1.1586 0.2514 1.9969 0.9133 1.8755 1.4766z" fill="#FD631F"/>
</svg>
