<?xml version="1.0" encoding="UTF-8"?>
<svg viewBox="0 0 257 131" xmlns="http://www.w3.org/2000/svg">
<path d="m30.54 21.251c0 0.2702 0.0532 0.5379 0.1566 0.7876s0.255 0.4766 0.4462 0.6677c0.1911 0.1911 0.418 0.3427 0.6677 0.4461s0.5173 0.1567 0.7876 0.1567c0.2702 0 0.5379-0.0533 0.7876-0.1567s0.4765-0.255 0.6677-0.4461c0.1911-0.1911 0.3427-0.418 0.4461-0.6677s0.1567-0.5174 0.1567-0.7876c0-0.2703-0.0533-0.5379-0.1567-0.7876s-0.255-0.4766-0.4461-0.6677c-0.1912-0.1911-0.418-0.3427-0.6677-0.4462-0.2497-0.1034-0.5174-0.1566-0.7876-0.1566-0.2703 0-0.5379 0.0532-0.7876 0.1566-0.2497 0.1035-0.4766 0.2551-0.6677 0.4462-0.1912 0.1911-0.3428 0.418-0.4462 0.6677s-0.1566 0.5173-0.1566 0.7876z" fill="#FD5C1E"/>
<path d="m237.49 76.075c0 0.5458-0.217 1.0693-0.603 1.4553s-0.909 0.6028-1.455 0.6028-1.069-0.2168-1.455-0.6028-0.603-0.9095-0.603-1.4553c0-0.2703 0.053-0.5379 0.157-0.7876 0.103-0.2498 0.255-0.4767 0.446-0.6678s0.418-0.3427 0.667-0.4461c0.25-0.1034 0.518-0.1566 0.788-0.1566 0.546 2e-4 1.069 0.2171 1.455 0.603s0.603 0.9093 0.603 1.4551z" fill="#FDD72C"/>
<path d="m207.58 122.92c-3.351 0-6.076-2.726-6.076-6.076 0-3.351 2.725-6.078 6.076-6.078s6.077 2.727 6.077 6.078c0 3.35-2.726 6.076-6.077 6.076zm0-9.41c-1.837 0-3.332 1.496-3.332 3.334 0 1.837 1.495 3.332 3.332 3.332 1.838 0 3.333-1.495 3.333-3.332 0-1.838-1.495-3.334-3.333-3.334zm-150.78-109.91c-0.1393 1.2e-4 -0.2772-0.02719-0.4059-0.08039s-0.2457-0.13123-0.3442-0.22965c-0.0985-0.09841-0.1767-0.21528-0.23-0.34391-0.0534-0.12864-0.0809-0.26652-0.0809-0.40578v-1.0613c0-0.30692-0.1219-0.60128-0.339-0.8183-0.217-0.21703-0.5113-0.33896-0.8183-0.33896-0.3069 0-0.6013 0.12193-0.8183 0.33896-0.217 0.21703-0.3389 0.51138-0.3389 0.8183v1.0613c-1e-4 0.13926-0.0276 0.27714-0.0809 0.40578-0.0534 0.12863-0.1315 0.2455-0.2301 0.34391-0.0985 0.09842-0.2154 0.17645-0.3441 0.22965s-0.2667 0.08051-0.4059 0.08039h-1.0613c-0.307 0-0.6015 0.12195-0.8186 0.33904-0.217 0.21709-0.339 0.51153-0.339 0.81854s0.122 0.60145 0.339 0.81853c0.2171 0.21709 0.5116 0.33905 0.8186 0.33905h1.0613c0.1394-9e-5 0.2774 0.02731 0.4062 0.08062s0.2458 0.13149 0.3443 0.23006 0.1767 0.21561 0.23 0.3444c0.0532 0.1288 0.0806 0.26684 0.0805 0.40622v1.0613c0 0.30693 0.1219 0.60129 0.3389 0.81832s0.5114 0.33895 0.8183 0.33895c0.307 0 0.6013-0.12192 0.8183-0.33895 0.2171-0.21703 0.339-0.51139 0.339-0.81832v-1.0613c-1e-4 -0.13938 0.0272-0.27742 0.0805-0.40622 0.0533-0.12879 0.1314-0.24583 0.23-0.3444 0.0985-0.09857 0.2155-0.17675 0.3443-0.23006s0.2668-0.08071 0.4062-0.08062h1.0603c0.3024-0.00705 0.59-0.1321 0.8013-0.34842s0.3297-0.50674 0.3297-0.80916-0.1184-0.59284-0.3297-0.80916-0.4989-0.34137-0.8013-0.34842h-1.0603zm173.21 30.141c-0.14 2e-4 -0.278-0.0271-0.406-0.0803-0.129-0.0532-0.246-0.1313-0.344-0.2297-0.099-0.0984-0.177-0.2153-0.23-0.3439-0.054-0.1286-0.081-0.2665-0.081-0.4058v-1.0613c0-0.3069-0.122-0.6013-0.339-0.8183s-0.512-0.339-0.819-0.339-0.601 0.122-0.818 0.339-0.339 0.5114-0.339 0.8183v1.0613c0 0.2812-0.112 0.5509-0.311 0.7496-0.199 0.1988-0.469 0.3103-0.75 0.3101h-1.061c-0.307 0-0.601 0.122-0.818 0.3391s-0.339 0.5115-0.339 0.8185 0.122 0.6015 0.339 0.8186 0.511 0.339 0.818 0.339h1.061c0.139-1e-4 0.278 0.0273 0.406 0.0806 0.129 0.0533 0.246 0.1315 0.345 0.2301 0.098 0.0986 0.176 0.2156 0.23 0.3444 0.053 0.1288 0.08 0.2668 0.08 0.4062v1.0613c0 0.3069 0.122 0.6013 0.339 0.8183s0.511 0.339 0.818 0.339 0.602-0.122 0.819-0.339 0.339-0.5114 0.339-0.8183v-1.0613c0-0.1394 0.027-0.2774 0.08-0.4062 0.054-0.1287 0.132-0.2458 0.23-0.3443 0.099-0.0986 0.216-0.1768 0.344-0.2301 0.129-0.0533 0.267-0.0807 0.407-0.0807h1.06c0.302-7e-3 0.59-0.1321 0.801-0.3484 0.212-0.2163 0.33-0.5067 0.33-0.8092 0-0.3024-0.118-0.5928-0.33-0.8091-0.211-0.2164-0.499-0.3414-0.801-0.3485h-1.06zm-177.53 81.942c-0.1394 0-0.2775-0.027-0.4063-0.08-0.1288-0.054-0.2458-0.132-0.3444-0.23-0.0986-0.099-0.1768-0.216-0.2301-0.345-0.0532-0.129-0.0806-0.267-0.0805-0.406v-1.061c0-0.307-0.1219-0.601-0.3389-0.818-0.2171-0.217-0.5114-0.339-0.8184-0.339-0.3069 0-0.6012 0.122-0.8183 0.339-0.217 0.217-0.3389 0.511-0.3389 0.818v1.061c0 0.139-0.0274 0.277-0.0807 0.406s-0.1315 0.246-0.2301 0.344c-0.0985 0.099-0.2156 0.177-0.3443 0.231-0.1288 0.053-0.2668 0.08-0.4062 0.08h-1.0604c-0.3023 7e-3 -0.5899 0.132-0.8012 0.349-0.2114 0.216-0.3297 0.506-0.3297 0.809 0 0.302 0.1183 0.593 0.3297 0.809 0.2113 0.216 0.4989 0.341 0.8012 0.348h1.0604c0.1392 0 0.2772 0.028 0.4059 0.081s0.2457 0.131 0.3442 0.229c0.0986 0.099 0.1768 0.216 0.2302 0.344 0.0534 0.129 0.0809 0.267 0.081 0.406v1.061c0 0.307 0.1219 0.602 0.3389 0.819 0.2171 0.217 0.5114 0.339 0.8183 0.339 0.307 0 0.6013-0.122 0.8184-0.339 0.217-0.217 0.3389-0.512 0.3389-0.819v-1.061c1e-4 -0.139 0.0276-0.277 0.081-0.406 0.0534-0.128 0.1316-0.245 0.2301-0.344 0.0986-0.098 0.2156-0.176 0.3443-0.229s0.2666-0.081 0.4059-0.081h1.0613c0.3024-7e-3 0.5899-0.132 0.8013-0.348 0.2113-0.216 0.3296-0.507 0.3296-0.809 0-0.303-0.1183-0.593-0.3296-0.809-0.2114-0.217-0.4989-0.342-0.8013-0.349h-1.0613z" fill="#2BA9FC"/>
<path d="m253.4 94.954c-0.375-2e-4 -0.735-0.1495-1-0.4151-0.266-0.2656-0.415-0.6257-0.415-1.0011v-1.4149c3e-3 -0.2047-0.035-0.4079-0.111-0.5978s-0.189-0.3627-0.333-0.5084c-0.144-0.1458-0.315-0.2615-0.504-0.3405s-0.391-0.1197-0.596-0.1197c-0.204 0-0.407 0.0407-0.596 0.1197s-0.36 0.1947-0.504 0.3405c-0.143 0.1457-0.257 0.3185-0.333 0.5084s-0.114 0.3931-0.111 0.5978v1.4149c0 0.3756-0.149 0.7358-0.415 1.0013-0.265 0.2656-0.626 0.4148-1.001 0.4149h-1.415c-0.406 0.0058-0.793 0.1711-1.078 0.46-0.285 0.289-0.444 0.6784-0.444 1.0842 0 0.4057 0.159 0.7952 0.444 1.0841 0.285 0.289 0.672 0.4542 1.078 0.46h1.415c0.186-1e-4 0.37 0.0364 0.542 0.1075 0.171 0.0711 0.327 0.1753 0.459 0.3067s0.236 0.2873 0.307 0.4591c0.071 0.1717 0.108 0.3558 0.108 0.5417v1.4166c6e-3 0.405 0.171 0.792 0.46 1.077s0.678 0.445 1.084 0.445 0.795-0.16 1.084-0.445 0.455-0.672 0.46-1.077v-1.4166c0-0.1859 0.037-0.3699 0.108-0.5415 0.071-0.1717 0.175-0.3277 0.307-0.4591 0.131-0.1314 0.287-0.2356 0.459-0.3067 0.171-0.0711 0.355-0.1077 0.541-0.1077h1.416c0.41-2e-4 0.803-0.163 1.092-0.4527 0.29-0.2898 0.453-0.6826 0.452-1.0922 0-0.2028-0.039-0.4035-0.117-0.5908s-0.191-0.3574-0.335-0.5008c-0.143-0.1433-0.313-0.2569-0.501-0.3345-0.187-0.0775-0.388-0.1174-0.591-0.1173h-1.416z" fill="#FD5C1E"/>
<path d="m11.791 45.584c-0.2468 1e-4 -0.4913-0.0485-0.7194-0.1429s-0.4353-0.2329-0.6099-0.4074c-0.1746-0.1746-0.313-0.3819-0.4075-0.61-0.09439-0.228-0.14295-0.4725-0.14287-0.7194v-1.8797c-8e-5 -0.5438-0.21613-1.0654-0.60064-1.4501-0.38452-0.3846-0.90603-0.6008-1.4499-0.6011-0.54391 4e-4 -1.0654 0.2166-1.45 0.6012-0.38459 0.3846-0.60081 0.9061-0.60114 1.45v1.8797c1.6e-4 0.2469-0.04832 0.4913-0.14269 0.7194-0.09436 0.2281-0.23276 0.4353-0.40727 0.6099s-0.38172 0.313-0.60978 0.4075c-0.22805 0.0944-0.47249 0.143-0.71933 0.1429h-1.8797c-0.26935 0-0.53606 0.053-0.78491 0.1561-0.24884 0.1031-0.47493 0.2542-0.66536 0.4446-0.19043 0.1905-0.34146 0.4167-0.44446 0.6655-0.103 0.2489-0.15595 0.5156-0.15582 0.785-1.2411e-4 0.2693 0.052835 0.5359 0.15585 0.7848 0.10301 0.2488 0.25406 0.4748 0.4445 0.6652s0.41655 0.3414 0.66539 0.4443 0.51552 0.1558 0.78481 0.1556h1.8797c0.24684-1e-4 0.49128 0.0485 0.71933 0.1429 0.22806 0.0945 0.43527 0.2329 0.60978 0.4075s0.31291 0.3818 0.40727 0.6099c0.09437 0.2281 0.14285 0.4726 0.14269 0.7194v1.8813c4.2e-4 0.5436 0.21674 1.0648 0.60139 1.449s0.90614 0.5999 1.4498 0.5996c0.26916 2e-4 0.53573-0.0527 0.78447-0.1555 0.24873-0.1029 0.47477-0.2538 0.66518-0.444 0.19042-0.1903 0.3415-0.4162 0.4446-0.6648s0.15621-0.5152 0.15629-0.7843v-1.8813c0-1.0383 0.84077-1.8797 1.8797-1.8797h1.8791c0.2693 3e-4 0.5361-0.0526 0.785-0.1555 0.2488-0.1029 0.475-0.2539 0.6655-0.4443 0.1905-0.1903 0.3416-0.4164 0.4447-0.6652 0.103-0.2489 0.1561-0.5156 0.156-0.7849 1e-4 -0.2694-0.0529-0.5362-0.156-0.7851-0.103-0.2489-0.2541-0.475-0.4446-0.6655s-0.4167-0.3416-0.6656-0.4446c-0.2489-0.1031-0.5156-0.1561-0.785-0.156h-1.8791z" fill="#FED62C"/>
<path d="m196.11 68.372c0 34.097-27.642 61.739-61.74 61.739s-61.732-27.642-61.732-61.739c0-34.097 27.634-61.739 61.732-61.739s61.74 27.642 61.74 61.739z" fill="#FDD72C"/>
<path d="m136.43 6.6328c-3.838-6e-4 -7.668 0.35512-11.44 1.0626 27.036 6.5692 47.111 30.934 47.111 59.99 0 30.189-21.669 55.312-50.3 60.676 4.789 1.164 9.7 1.751 14.629 1.749 34.097 0 61.739-27.642 61.739-61.739-1e-3 -34.097-27.643-61.739-61.739-61.739zm-21.838 49.734c0 4.356-3.533 7.8888-7.89 7.8888s-7.8878-3.5331-7.8878-7.8888c0-4.3572 3.5308-7.8888 7.8878-7.8888s7.89 3.5316 7.89 7.8888z" fill="#FC7C21"/>
<path d="m160.78 37.846c0 2.3956 0.951 4.6931 2.645 6.387s3.992 2.6456 6.387 2.6456c2.396 0 4.693-0.9517 6.387-2.6456s2.646-3.9914 2.646-6.387c0-2.3955-0.952-4.693-2.646-6.3869-1.694-1.694-3.991-2.6456-6.387-2.6456-2.395 0-4.693 0.9516-6.387 2.6456-1.694 1.6939-2.645 3.9914-2.645 6.3869z" fill="#FC7C21"/>
<path d="m146.79 90.208c0 2.5027-2.029 4.5312-4.531 4.5312-2.503 0-4.532-2.0285-4.532-4.5312 0-2.5014 2.029-4.53 4.532-4.53 2.502 3e-4 4.531 2.0286 4.531 4.53z" fill="#FC7C21"/>
<path d="m157.35 23.367c0 0.6979 0.278 1.3672 0.771 1.8607 0.494 0.4935 1.163 0.7707 1.861 0.7707s1.367-0.2772 1.861-0.7707c0.493-0.4935 0.77-1.1628 0.77-1.8607s-0.277-1.3672-0.77-1.8606c-0.494-0.4935-1.163-0.7708-1.861-0.7708s-1.367 0.2773-1.861 0.7708c-0.493 0.4934-0.771 1.1627-0.771 1.8606z" fill="#FDD72C"/>
<path d="m162.62 102.67c0 0.789 0.314 1.546 0.871 2.103 0.558 0.558 1.315 0.871 2.104 0.871 0.788 0 1.545-0.313 2.103-0.871 0.558-0.557 0.871-1.314 0.871-2.103s-0.313-1.545-0.871-2.103-1.315-0.8712-2.103-0.8712c-0.789 0-1.546 0.3132-2.104 0.8712-0.557 0.558-0.871 1.314-0.871 2.103z" fill="#FDD72C"/>
<path d="m152.61 111.25c0 0.379 0.151 0.743 0.419 1.012 0.269 0.268 0.633 0.419 1.012 0.419 0.38 0 0.744-0.151 1.012-0.419 0.268-0.269 0.419-0.633 0.419-1.012 0-0.38-0.151-0.744-0.419-1.012s-0.632-0.419-1.012-0.419c-0.379 0-0.743 0.151-1.012 0.419-0.268 0.268-0.419 0.632-0.419 1.012z" fill="#FDD72C"/>
</svg>
