<?xml version="1.0" encoding="UTF-8"?>
<svg viewBox="0 0 59 67" xmlns="http://www.w3.org/2000/svg">
<path d="m7.903 34.995c-3.4e-4 2.9731 0.58494 5.917 1.7224 8.6639 1.1375 2.7468 2.8049 5.2426 4.907 7.345s4.5978 3.7701 7.3445 4.9079 5.6906 1.7234 8.6636 1.7234 5.9169-0.5856 8.6636-1.7234 5.2423-2.8055 7.3445-4.9079c2.1021-2.1024 3.7695-4.5982 4.907-7.345 1.1375-2.7469 1.7227-5.6908 1.7224-8.6639 3e-4 -2.973-0.5849-5.9169-1.7224-8.6638-1.1375-2.7468-2.8049-5.2426-4.907-7.345-2.1022-2.1024-4.5978-3.7701-7.3445-4.9079s-5.6906-1.7234-8.6636-1.7234-5.9169 0.5856-8.6636 1.7234-5.2424 2.8055-7.3445 4.9079-3.7695 4.5982-4.907 7.345c-1.1375 2.7469-1.7228 5.6908-1.7224 8.6638z" fill="#44BAFC"/>
<path d="m0.81519 23.105c-1.94e-4 0.931 0.18302 1.8529 0.53915 2.7131 0.35614 0.8602 0.87822 1.6417 1.5364 2.3001 0.65824 0.6584 1.4397 1.1806 2.2998 1.537 0.86009 0.3563 1.782 0.5397 2.7129 0.5397 0.93098 0 1.8528-0.1834 2.713-0.5397 0.8601-0.3564 1.6415-0.8786 2.2998-1.537 0.6582-0.6584 1.1803-1.4399 1.5364-2.3001 0.3562-0.8602 0.5394-1.7821 0.5392-2.7131 2e-4 -0.9309-0.183-1.8528-0.5392-2.713-0.3561-0.8602-0.8782-1.6418-1.5364-2.3001-0.6583-0.6584-1.4397-1.1807-2.2998-1.537-0.86012-0.3563-1.782-0.5397-2.713-0.5397-0.93097 0-1.8528 0.1834-2.7129 0.5397s-1.6416 0.8786-2.2998 1.537c-0.65823 0.6583-1.1803 1.4399-1.5364 2.3001-0.35614 0.8602-0.53935 1.7821-0.53915 2.713z" fill="#3C8CD4"/>
<path d="m26.178 39.198c0 1.1194 0.4447 2.1929 1.2362 2.9845 0.7916 0.7915 1.8651 1.2362 2.9845 1.2362s2.1929-0.4447 2.9844-1.2362c0.7916-0.7916 1.2362-1.8651 1.2362-2.9845s-0.4446-2.1929-1.2362-2.9845c-0.7915-0.7915-1.865-1.2362-2.9844-1.2362s-2.1929 0.4447-2.9845 1.2362c-0.7915 0.7916-1.2362 1.8651-1.2362 2.9845z" fill="#3C8CD4"/>
<path d="m24.477 13.108c-1.1898 0.3142-2.3525 0.7231-3.4769 1.2227 10.898-1.0512 21.262 5.8982 24.141 16.808 2.8775 10.911-2.7141 22.053-12.717 26.496 1.2251-0.1171 2.4388-0.3326 3.6293-0.6445 12.14-3.1913 19.389-15.6 16.193-27.719-3.1968-12.117-15.628-19.355-27.768-16.163z" fill="#3C8CD4"/>
<path d="m56.745 61.343c-0.2859-2e-4 -0.56-0.1137-0.7621-0.3156s-0.3156-0.4756-0.3155-0.761v-1.0756c0.0022-0.1556-0.0266-0.31-0.0847-0.4544-0.0581-0.1443-0.1444-0.2757-0.2538-0.3865s-0.2398-0.1988-0.3836-0.2588c-0.1438-0.0601-0.2981-0.091-0.454-0.091-0.1558 0-0.3102 0.0309-0.4539 0.091-0.1438 0.06-0.2742 0.148-0.3837 0.2588-0.1094 0.1108-0.1957 0.2422-0.2538 0.3865-0.0581 0.1444-0.0868 0.2988-0.0846 0.4544v1.0756c-1e-4 0.2855-0.1137 0.5593-0.316 0.7612s-0.4766 0.3154-0.7626 0.3154h-1.0777c-0.309 0.0044-0.6039 0.13-0.8208 0.3497-0.217 0.2197-0.3386 0.5157-0.3386 0.8241 0 0.3085 0.1216 0.6046 0.3386 0.8242 0.2169 0.2197 0.5118 0.3453 0.8208 0.3497h1.0777c0.1415-1e-4 0.2817 0.0277 0.4126 0.0817 0.1308 0.054 0.2497 0.1332 0.3499 0.2331 0.1001 0.0999 0.1796 0.2185 0.2338 0.349 0.0543 0.1306 0.0822 0.2705 0.0823 0.4118v1.0766c0.0044 0.3084 0.1302 0.6027 0.3503 0.8193 0.2201 0.2165 0.5167 0.3379 0.8257 0.3379 0.3091 0 0.6057-0.1214 0.8257-0.3379 0.2201-0.2166 0.346-0.5109 0.3504-0.8193v-1.0766c0-0.1412 0.0278-0.2811 0.082-0.4116s0.1335-0.2491 0.2336-0.349 0.2189-0.1791 0.3496-0.2331c0.1308-0.0541 0.2709-0.0819 0.4124-0.0819h1.0787c0.3119-2e-4 0.6111-0.1239 0.8316-0.3442 0.2205-0.2202 0.3444-0.5189 0.3443-0.8303 0-0.1541-0.0304-0.3067-0.0895-0.449-0.0591-0.1424-0.1457-0.2718-0.2549-0.3807-0.1093-0.109-0.2389-0.1954-0.3816-0.2543-0.1426-0.0589-0.2955-0.0892-0.4499-0.0892h-1.0787z" fill="#FD5C1E"/>
<path d="m8.1162 2.0581c0 0.54584-0.21685 1.0693-0.60281 1.4553-0.38597 0.38596-0.90946 0.60281-1.4553 0.60281s-1.0693-0.21685-1.4553-0.60281c-0.38597-0.38597-0.6028-0.90946-0.6028-1.4553-4e-5 -0.27028 0.05316-0.53792 0.15658-0.78764 0.10341-0.24972 0.255-0.47663 0.44612-0.66775 0.19112-0.19112 0.41803-0.34271 0.66775-0.44612 0.24972-0.10341 0.51736-0.15662 0.78764-0.15658 0.54579 1.6682e-4 1.0692 0.21705 1.4551 0.60298 0.38593 0.38593 0.60283 0.90932 0.603 1.4551z" fill="#FDD72C"/>
</svg>
