<?xml version="1.0" encoding="UTF-8"?>
<svg viewBox="0 0 187 133" xmlns="http://www.w3.org/2000/svg">
<path d="m18.497 23.471c-0.0757-1e-4 -0.1506 0.0148-0.2206 0.0437-0.0699 0.0289-0.1334 0.0714-0.1869 0.1249s-0.0959 0.1171-0.1248 0.1871c-0.0289 0.0699-0.0437 0.1449-0.0435 0.2205l-0.0011 2.5329c5e-4 0.1528 0.0615 0.2991 0.1696 0.4071s0.2545 0.1688 0.4073 0.1691c0.1526-4e-4 0.2989-0.0612 0.4067-0.1692 0.1078-0.1081 0.1685-0.2544 0.1687-0.407v-2.5329c0-0.1527-0.0606-0.2991-0.1685-0.4072-0.1078-0.108-0.2542-0.1688-0.4069-0.169zm-7e-4 8.751c-0.1526 0-0.299 0.0605-0.407 0.1684-0.1081 0.1078-0.1689 0.2541-0.1692 0.4068l0.0011 2.5328c-1e-4 0.0756 0.0148 0.1505 0.0438 0.2203 0.0289 0.0699 0.0713 0.1333 0.1248 0.1868 0.0535 0.0534 0.117 0.0958 0.1868 0.1247 0.0699 0.0288 0.1448 0.0437 0.2204 0.0436 0.0756 1e-4 0.1504-0.0147 0.2203-0.0436s0.1333-0.0713 0.1868-0.1247c0.0534-0.0535 0.0958-0.1169 0.1247-0.1868s0.0437-0.1447 0.0436-0.2203v-2.5328c-1e-4 -0.0756-0.015-0.1505-0.044-0.2203s-0.0714-0.1332-0.1249-0.1866-0.117-0.0958-0.1869-0.1247c-0.0698-0.0288-0.1447-0.0437-0.2203-0.0436zm-2.6049-4.3247c0.0534 0.0536 0.1169 0.0961 0.1867 0.125 0.0699 0.029 0.1447 0.044 0.2204 0.044 0.0756 0 0.1505-0.015 0.2204-0.044 0.0698-0.0289 0.1333-0.0714 0.1867-0.125 0.0535-0.0534 0.096-0.1169 0.1249-0.1867 0.029-0.0699 0.0439-0.1448 0.0439-0.2204s-0.0149-0.1505-0.0439-0.2203c-0.0289-0.0699-0.0714-0.1333-0.1249-0.1868l-1.7914-1.7907c-0.108-0.1079-0.2545-0.1685-0.4071-0.1685-0.1527 0-0.2991 0.0606-0.4071 0.1685-0.1079 0.108-0.1685 0.2544-0.1685 0.4071 0 0.1526 0.0606 0.299 0.1685 0.407l1.7914 1.7908zm5.2095 3.5828c-0.2247-0.2257-0.5885-0.2257-0.8132 0-0.2246 0.2258-0.2246 0.5885 0 0.8142l1.7915 1.7908c0.1081 0.1074 0.2543 0.1677 0.4067 0.1677s0.2987-0.0603 0.4068-0.1677c0.0535-0.0534 0.096-0.1169 0.125-0.1867 0.029-0.0699 0.0439-0.1448 0.0439-0.2204 0-0.0757-0.0149-0.1505-0.0439-0.2204-0.029-0.0698-0.0715-0.1333-0.125-0.1867l-1.7918-1.7908zm-5.1374-1.7918c-1e-4 -0.1526-0.0608-0.299-0.1688-0.4068-0.108-0.1079-0.2544-0.1684-0.407-0.1684h-2.5324c-0.1527 0-0.2991 0.0607-0.4071 0.1686-0.108 0.108-0.1686 0.2544-0.1686 0.4071s0.0606 0.2991 0.1686 0.4071 0.2544 0.1686 0.4071 0.1686h2.5324c0.0757 1e-4 0.1506-0.0148 0.2205-0.0438 0.0699-0.0289 0.1334-0.0714 0.1869-0.1249 0.0534-0.0535 0.0959-0.1171 0.1248-0.187s0.0437-0.1448 0.0436-0.2205zm8.1743-0.5754h-2.5328c-0.0756 0-0.1505 0.015-0.2204 0.044-0.0698 0.0289-0.1333 0.0714-0.1867 0.1249s-0.0958 0.117-0.1247 0.1869-0.0437 0.1448-0.0436 0.2204c-1e-4 0.0757 0.0148 0.1505 0.0437 0.2204s0.0714 0.1333 0.1248 0.1868c0.0535 0.0534 0.117 0.0958 0.1869 0.1247 0.0699 0.0288 0.1448 0.0436 0.2204 0.0435h2.5324c0.0757 0 0.1506-0.0149 0.2205-0.0438 0.0699-0.029 0.1333-0.0715 0.1868-0.125s0.0959-0.117 0.1248-0.1869 0.0438-0.1449 0.0437-0.2205c2e-4 -0.0756-0.0146-0.1506-0.0435-0.2205s-0.0713-0.1334-0.1248-0.1868c-0.0535-0.0535-0.1171-0.0959-0.187-0.1247s-0.1448-0.0436-0.2205-0.0434zm-8.2464 2.3672-1.7914 1.7908c-0.1079 0.108-0.1685 0.2544-0.1685 0.4071 0 0.1526 0.0606 0.2991 0.1685 0.4071 0.108 0.1079 0.2544 0.1685 0.4071 0.1685 0.1526 0 0.2991-0.0606 0.4071-0.1685l1.7914-1.7908c0.0535-0.0534 0.096-0.1169 0.1249-0.1867 0.029-0.0699 0.0439-0.1448 0.0439-0.2204s-0.0149-0.1505-0.0439-0.2203c-0.0289-0.0699-0.0714-0.1334-0.1249-0.1868-0.0534-0.0536-0.1168-0.0962-0.1867-0.1253-0.0698-0.029-0.1448-0.044-0.2204-0.044-0.0757 0-0.1506 0.015-0.2205 0.044-0.0698 0.0291-0.1333 0.0717-0.1866 0.1253zm5.2105-3.5828 1.7908-1.7908c0.1079-0.108 0.1685-0.2544 0.1685-0.407 0-0.1527-0.0606-0.2991-0.1685-0.4071-0.0534-0.0535-0.1168-0.0958-0.1866-0.1248-0.0698-0.0289-0.1446-0.0438-0.2202-0.0438-0.0755 0-0.1503 0.0149-0.2201 0.0438-0.0698 0.029-0.1332 0.0713-0.1866 0.1248l-1.7915 1.7907c-0.1078 0.108-0.1684 0.2545-0.1684 0.4071 0 0.1527 0.0606 0.2991 0.1684 0.4071 0.0534 0.0537 0.1168 0.0962 0.1867 0.1253s0.1448 0.044 0.2204 0.044c0.0757 0 0.1506-0.0149 0.2205-0.044 0.0698-0.0291 0.1333-0.0716 0.1866-0.1253z" fill="#FED62C"/>
<path d="m0 72.518c0 0.4916 0.19532 0.9632 0.54299 1.3108 0.34767 0.3477 0.81922 0.543 1.3109 0.543s0.96322-0.1953 1.3109-0.543c0.34767-0.3476 0.54299-0.8192 0.54299-1.3108 0-0.4917-0.19532-0.9633-0.54299-1.3109-0.34768-0.3477-0.81922-0.543-1.3109-0.543s-0.96323 0.1953-1.3109 0.543c-0.34767 0.3476-0.54299 0.8192-0.54299 1.3109z" fill="#FD5C1E"/>
<path d="m11.563 96.442c0 0.1672-0.0497 0.3306-0.1427 0.4695-0.0929 0.139-0.225 0.2472-0.3795 0.3111s-0.3244 0.0806-0.4884 0.0478c-0.1639-0.0327-0.3145-0.1133-0.4326-0.2316-0.1181-0.1182-0.19854-0.2689-0.23104-0.4329-0.03251-0.164-0.01565-0.3339 0.04843-0.4883 0.06411-0.1544 0.17251-0.2863 0.31161-0.3791 0.139-0.0928 0.3025-0.1422 0.4697-0.1421 0.2241 2e-4 0.439 0.0893 0.5974 0.2479 0.1583 0.1586 0.2472 0.3736 0.2471 0.5977z" fill="#FA9F76"/>
<path d="m42.646 18.364c0 1.2552-1.0179 2.2746-2.2741 2.2746-1.2563 0-2.2737-1.0194-2.2737-2.2746s1.0174-2.2746 2.2737-2.2746c1.2562 0 2.2741 1.0194 2.2741 2.2746z" fill="#FD5C1E"/>
<path d="m154.34 76.083c-1e-3 0.414-0.165 0.811-0.458 1.1037-0.293 0.2928-0.69 0.4573-1.104 0.4574-0.205 1e-4 -0.408-0.0403-0.597-0.1188-0.189-0.0784-0.362-0.1934-0.507-0.3384-0.145-0.1449-0.26-0.3171-0.338-0.5065s-0.119-0.3924-0.119-0.5974c0-0.2051 0.041-0.4081 0.119-0.5975s0.193-0.3616 0.338-0.5065c0.145-0.145 0.318-0.26 0.507-0.3384 0.189-0.0785 0.392-0.1188 0.597-0.1188 0.414 1e-4 0.811 0.1646 1.104 0.4574 0.293 0.2927 0.457 0.6897 0.458 1.1038z" fill="#FC7C21"/>
<path d="m112.58 33.042c0 1.4066-1.143 2.5491-2.549 2.5491-1.409 0-2.549-1.1425-2.549-2.5491 0-1.4076 1.14-2.5491 2.549-2.5491 1.406 2e-4 2.549 1.1415 2.549 2.5491z" fill="#FDD72C"/>
<path d="m9.6058 54.369c-2.2076 0-4.0035-1.7955-4.0035-4.0024 0-2.2081 1.7959-4.0046 4.0035-4.0046 2.2071 0 4.0024 1.7965 4.0024 4.0046 0 2.2069-1.7955 4.0024-4.0024 4.0024zm0-6.4458c-1.3468 0-2.4423 1.0962-2.4423 2.4434 0 1.3461 1.0956 2.4412 2.4423 2.4412 1.3461 0 2.4412-1.0951 2.4412-2.4412 0-1.3472-1.0951-2.4434-2.4412-2.4434z" fill="#2BA9FC"/>
<path d="m176.03 78.354c-2.398 0-4.349-1.9515-4.349-4.3502 0-2.3982 1.951-4.349 4.349-4.349s4.349 1.951 4.349 4.349c0 2.3987-1.951 4.3502-4.349 4.3502zm0-7.1381c-1.538 0-2.788 1.2507-2.788 2.7879 0 1.5379 1.25 2.789 2.788 2.789s2.788-1.2511 2.788-2.789c0-1.5372-1.25-2.7879-2.788-2.7879z" fill="#FDD72C"/>
<path d="m148.42 95.64c-0.136 1e-4 -0.271-0.0266-0.397-0.0787-0.125-0.0521-0.24-0.1284-0.336-0.2247s-0.173-0.2106-0.225-0.3364c-0.052-0.1259-0.079-0.2608-0.079-0.3969v-1.0378c-6e-3 -0.2963-0.127-0.5785-0.339-0.786-0.211-0.2075-0.496-0.3237-0.792-0.3237-0.297 0-0.581 0.1162-0.793 0.3237-0.211 0.2075-0.333 0.4897-0.339 0.786v1.0378c0 0.1362-0.027 0.2711-0.079 0.3969-0.052 0.1259-0.128 0.2402-0.225 0.3365-0.096 0.0963-0.211 0.1726-0.337 0.2247-0.125 0.052-0.26 0.0787-0.397 0.0786h-1.037c-0.301 1e-4 -0.588 0.1195-0.8 0.3318-0.213 0.2123-0.332 0.5002-0.332 0.8003s0.119 0.5878 0.332 0.8c0.212 0.2121 0.5 0.3313 0.8 0.3313h1.037c0.275-1e-4 0.539 0.1091 0.734 0.3035s0.304 0.4581 0.304 0.7332v1.0378c0 0.2998 0.119 0.5878 0.332 0.8008 0.212 0.212 0.5 0.331 0.8 0.332 0.3-1e-3 0.588-0.12 0.8-0.332 0.212-0.213 0.331-0.501 0.331-0.8008v-1.0378c0-0.1361 0.027-0.271 0.079-0.3968s0.129-0.2401 0.225-0.3363c0.096-0.0963 0.211-0.1727 0.336-0.2247 0.126-0.0521 0.261-0.0789 0.397-0.0789h1.037c0.151 0.0029 0.3-0.0242 0.44-0.0797 0.14-0.0556 0.267-0.1385 0.375-0.2439 0.107-0.1054 0.192-0.2311 0.251-0.3699 0.058-0.1387 0.088-0.2877 0.088-0.4382s-0.03-0.2995-0.088-0.4383c-0.059-0.1387-0.144-0.2645-0.251-0.3698-0.108-0.1054-0.235-0.1883-0.375-0.2439-0.14-0.0555-0.289-0.0827-0.44-0.0797h-1.037z" fill="#2BA9FC"/>
<path d="m137.76 33.682c-0.284-1e-4 -0.557-0.1133-0.758-0.3145-0.202-0.2013-0.315-0.4742-0.315-0.7588v-1.0744c0-0.3107-0.123-0.6086-0.343-0.8283s-0.518-0.3431-0.828-0.3431c-0.311 0-0.609 0.1234-0.829 0.3431-0.219 0.2197-0.343 0.5176-0.343 0.8283v1.0744c0 0.2848-0.113 0.5578-0.315 0.7591-0.201 0.2013-0.474 0.3143-0.759 0.3142h-1.073c-0.157-0.0037-0.312 0.0239-0.457 0.0811-0.146 0.0573-0.278 0.143-0.39 0.2521-0.111 0.1091-0.2 0.2395-0.261 0.3835-0.06 0.1439-0.092 0.2985-0.092 0.4547s0.032 0.3108 0.092 0.4547c0.061 0.144 0.15 0.2743 0.261 0.3835 0.112 0.1091 0.244 0.1948 0.39 0.252 0.145 0.0573 0.3 0.0849 0.457 0.0812h1.073c0.285 1e-4 0.558 0.1133 0.76 0.3147 0.201 0.2015 0.314 0.4747 0.314 0.7597v1.0733c0 0.3107 0.124 0.6086 0.343 0.8283 0.22 0.2197 0.518 0.3431 0.829 0.3431 0.31 0 0.608-0.1234 0.828-0.3431s0.343-0.5176 0.343-0.8283v-1.0733c0-0.2848 0.113-0.5578 0.314-0.7593 0.202-0.2014 0.475-0.3148 0.759-0.3151h1.075c0.31 0 0.608-0.1234 0.828-0.3431s0.343-0.5176 0.343-0.8283-0.123-0.6086-0.343-0.8283-0.518-0.3431-0.828-0.3431h-1.075z" fill="#FA9F76"/>
<path d="m95.966 17.78c-0.2663 0-0.5217-0.1058-0.71-0.2942-0.1883-0.1883-0.2941-0.4437-0.2942-0.71v-1.0042c0-0.2905-0.1154-0.5692-0.3209-0.7747s-0.4842-0.3209-0.7748-0.3209c-0.2905 0-0.5692 0.1154-0.7747 0.3209s-0.3209 0.4842-0.3209 0.7747v1.0042c-3e-4 0.2665-0.1063 0.5219-0.2948 0.7102s-0.444 0.294-0.7105 0.294h-1.0042c-0.144 0-0.2866 0.0283-0.4197 0.0834-0.133 0.0551-0.2539 0.1359-0.3558 0.2378-0.1018 0.1018-0.1826 0.2227-0.2377 0.3558-0.0551 0.133-0.0834 0.2756-0.0834 0.4197 0 0.1439 0.0283 0.2865 0.0834 0.4195 0.0552 0.133 0.1359 0.2539 0.2378 0.3556 0.1018 0.1018 0.2227 0.1825 0.3558 0.2375s0.2757 0.0833 0.4196 0.0831h1.0042c0.2665 0 0.522 0.1058 0.7105 0.2941s0.2945 0.4437 0.2948 0.7101v1.0053c0 0.2906 0.1154 0.5692 0.3209 0.7747s0.4842 0.3209 0.7747 0.3209c0.2906 0 0.5693-0.1154 0.7748-0.3209s0.3209-0.4841 0.3209-0.7747v-1.0053c0-0.554 0.4494-1.0042 1.0042-1.0042h1.0053c0.2906-1e-4 0.5693-0.1157 0.7748-0.3212 0.2055-0.2056 0.3209-0.4843 0.3209-0.775 0-0.2906-0.1154-0.5694-0.3209-0.7749-0.2055-0.2056-0.4842-0.3211-0.7748-0.3213h-1.0053z" fill="#EC5D73"/>
<path d="m30.058 81.342c0 12.421 4.9343 24.334 13.718 33.118 8.7832 8.783 20.696 13.717 33.117 13.717s24.334-4.934 33.117-13.717c8.783-8.784 13.718-20.696 13.718-33.118 0-12.421-4.935-24.334-13.718-33.117s-20.696-13.718-33.117-13.718-24.334 4.9344-33.117 13.718-13.718 20.696-13.718 33.117z" fill="#FDD72C"/>
<path d="m81.319 34.856c-2.9112-6e-4 -5.8161 0.2693-8.6774 0.806 20.509 4.9833 35.738 23.466 35.738 45.508 0 22.9-16.438 41.959-38.157 46.029 3.6327 0.882 7.358 1.327 11.096 1.326 25.866 0 46.834-20.969 46.834-46.835 1e-3 -25.866-20.968-46.835-46.834-46.835z" fill="#FC7C21"/>
<path d="m113.5 58.531c0 3.785-3.067 6.8523-6.851 6.8523-3.785 0-6.8524-3.0675-6.8524-6.8523 0-3.784 3.0674-6.8513 6.8524-6.8513 3.784 0 6.851 3.0673 6.851 6.8513z" fill="#FC7C21"/>
<path d="m90.324 50.587c0 1.016 0.4036 1.9904 1.122 2.7088s1.6928 1.122 2.7088 1.122 1.9904-0.4036 2.7088-1.122 1.122-1.6928 1.122-2.7088-0.4036-1.9904-1.122-2.7088-1.6928-1.122-2.7088-1.122-1.9904 0.4036-2.7088 1.122-1.122 1.6928-1.122 2.7088z" fill="#FDD72C"/>
<path d="m74.419 132.25c-27.881 0-50.564-22.683-50.564-50.564 0-27.881 22.683-50.564 50.564-50.564 27.881 0 50.564 22.683 50.564 50.564 0 27.881-22.683 50.564-50.564 50.564zm0-96.444c-25.299 0-45.88 20.582-45.88 45.88 0 25.298 20.582 45.88 45.88 45.88s45.881-20.582 45.881-45.88c0-25.299-20.582-45.88-45.881-45.88z"/>
<path d="m186.44 17.682c0 9.4839-7.688 17.173-17.173 17.173-9.484 0-17.172-7.6891-17.172-17.173 0-9.4849 7.688-17.173 17.172-17.173 9.485 0 17.173 7.6879 17.173 17.173z" fill="#44BAFC"/>
<path d="m176.03 8.662c0 2.0653-1.674 3.7382-3.738 3.7382-2.065 0-3.738-1.6731-3.738-3.7382 0-2.0642 1.673-3.7382 3.738-3.7382 2.064 0 3.738 1.6739 3.738 3.7382zm-5.511 14.811c0 0.2476-0.049 0.4928-0.144 0.7216-0.094 0.2288-0.233 0.4367-0.408 0.6118-0.176 0.1751-0.384 0.3139-0.612 0.4086-0.229 0.0947-0.474 0.1434-0.722 0.1433-1.042 0-1.887-0.8435-1.887-1.8853 0-1.0419 0.845-1.8875 1.887-1.8875s1.886 0.8456 1.886 1.8875zm-10.652-1.8864c0 1.0418-0.845 1.8853-1.887 1.8853s-1.886-0.8435-1.886-1.8853c0-1.0419 0.844-1.8875 1.886-1.8875s1.887 0.8456 1.887 1.8875z" fill="#3C8CD4"/>
<path d="m160.89 2.8193c-0.873 0.23084-1.725 0.5313-2.55 0.89848 7.993-0.77245 15.594 4.3339 17.706 12.35 2.11 8.0162-1.991 16.204-9.327 19.469 0.899-0.0871 1.789-0.2454 2.662-0.4735 8.903-2.3448 14.22-11.464 11.876-20.367-2.344-8.9038-11.462-14.221-20.367-11.877z" fill="#3C8CD4"/>
<path d="m165.1 36.405c-10.037 0-18.202-8.1655-18.202-18.202 0-10.037 8.165-18.202 18.202-18.202s18.202 8.1655 18.202 18.202c0 10.037-8.165 18.202-18.202 18.202zm0-32.762c-8.028 0-14.56 6.5312-14.56 14.56s6.532 14.56 14.56 14.56 14.56-6.5312 14.56-14.56-6.532-14.56-14.56-14.56zm-103.55 82.178c0 2.3957-1.9422 4.3398-4.34 4.3398-2.3966 0-4.3399-1.9444-4.3399-4.3398 0-2.3968 1.9433-4.3399 4.3399-4.3399 2.3978-2e-4 4.34 1.9431 4.34 4.3399z"/>
<path d="m53.169 93.822c0 1.9249-1.5605 3.4872-3.4876 3.4872-1.926 0-3.4871-1.5623-3.4871-3.4872 0-1.926 1.5611-3.4882 3.4871-3.4882 1.9271 0 3.4876 1.5622 3.4876 3.4882zm40.642 12.812c0 1.925-1.5605 3.487-3.4876 3.487-1.926 0-3.4871-1.562-3.4871-3.487 0-1.926 1.5611-3.488 3.4871-3.488 1.9271 0 3.4876 1.562 3.4876 3.488z" fill="#FD802E"/>
<path d="m84.229 93.53c0 0.5528 0.1089 1.1002 0.3204 1.611 0.2116 0.5107 0.5217 0.9748 0.9126 1.3657s0.855 0.701 1.3657 0.9126c0.5108 0.2116 1.0582 0.3204 1.611 0.3204 0.5529 0 1.1003-0.1088 1.6111-0.3204 0.5107-0.2116 0.9748-0.5217 1.3657-0.9126s0.701-0.855 0.9126-1.3657c0.2115-0.5108 0.3204-1.0582 0.3204-1.611 0-0.5529-0.1089-1.1003-0.3204-1.611-0.2116-0.5108-0.5217-0.9749-0.9126-1.3658s-0.855-0.701-1.3657-0.9125c-0.5108-0.2116-1.0582-0.3205-1.6111-0.3205-0.5528 0-1.1002 0.1089-1.611 0.3205-0.5107 0.2115-0.9748 0.5216-1.3657 0.9125s-0.701 0.855-0.9126 1.3658c-0.2115 0.5107-0.3204 1.0581-0.3204 1.611z"/>
<path d="m62.61 98.048c-0.0558 0.16-0.1055 0.3221-0.1489 0.4859-1.077 4.0988 1.372 8.2948 5.4707 9.3718s8.2946-1.372 9.3715-5.471c0.0432-0.165 0.0792-0.331 0.1091-0.496 0.0499-0.276-2.1201-1.08-4.8303-1.793l-4.8842-1.2835c-2.7104-0.7126-4.9953-1.0796-5.0879-0.8142z"/>
<path d="m71.05 105.93c-0.1718 0.652-1.3996 0.896-2.7401 0.544-1.3427-0.353-2.2919-1.169-2.1203-1.822 0.1718-0.654 1.3989-0.897 2.7416-0.544 1.3413 0.353 2.2907 1.168 2.1188 1.822z" fill="#FD631F"/>
<path d="m159.95 18.153c-1.154-0.2002-1.927-1.2979-1.727-2.4515l-0.659-0.1138c-0.263 1.5164 0.754 2.9608 2.272 3.224 1.519 0.2632 2.962-0.7541 3.225-2.2716l-0.66-0.1138c-0.199 1.1535-1.296 1.9268-2.451 1.7267zm8.493 1.6333c-1.155-0.2003-1.928-1.2979-1.728-2.4515l-0.659-0.1149c-0.263 1.5175 0.754 2.9608 2.272 3.225 1.518 0.2632 2.963-0.7551 3.225-2.2715l-0.659-0.1149c-0.2 1.1535-1.298 1.9279-2.451 1.7278z"/>
<path d="m160.4 25.137c-0.132 0.7062-0.023 1.4275 0.302 2.0052 0.326 0.5777 0.841 0.9645 1.434 1.0752 0.592 0.1108 1.213-0.0635 1.725-0.4846 0.512-0.421 0.874-1.0543 1.006-1.7605 0.132-0.7063 0.024-1.4276-0.302-2.0052-0.325-0.5777-0.841-0.9645-1.433-1.0753-0.593-0.1107-1.213 0.0636-1.726 0.4846-0.512 0.4211-0.874 1.0544-1.006 1.7606z"/>
<path d="m163.5 27.17c-0.069 0.3741-0.63 0.5844-1.252 0.4676-0.622-0.116-1.07-0.5144-1-0.8885 0.07-0.374 0.631-0.5833 1.253-0.4675 0.622 0.117 1.069 0.5144 0.999 0.8884z" fill="#53C7FC"/>
</svg>
