<?xml version="1.0" encoding="UTF-8"?>
<svg viewBox="0 0 141 140" xmlns="http://www.w3.org/2000/svg">
<path d="m111.6 10.189c12.091 7.444 23.074 16.572 26.991 28.358 3.917 11.698 0.852 26.143-0.851 39.613-1.618 13.47-1.788 25.877-7.238 34.916-5.449 9.039-16.177 14.622-26.565 18.521-10.388 3.988-20.35 6.292-31.163 7.621-10.728 1.33-22.223 1.596-29.034-4.431-6.7265-6.114-8.9402-18.61-17.284-28.978-8.4294-10.28-23.074-18.521-25.543-28.181-2.5543-9.6595 7.067-20.914 17.625-27.295 10.558-6.4692 22.052-8.153 31.418-17.281 9.2808-9.1278 16.433-25.7 26.565-31.017 10.047-5.3172 23.074 0.62033 35.08 8.153z" fill="#F2F4F8"/>
<path d="m76.983 93.874h-1.3921l1.2-2.6198c0.7661-1.6728-0.1124-3.0415-1.9523-3.0415h-6.4333c-1.8399 0-1.7146 1.3809-2.4472 3.0686l-2.1393 4.928c-0.7326 1.6877 0.1723 3.0152 2.0111 2.9499l1.9127-0.0679c-0.0012 0.0051-0.0034 0.0099-0.0045 0.015 0.0327-0.0077 0.0664-0.0129 0.0998-0.0184l0.0202-7e-4 0.2557-0.0091c0.2958 0.0188 0.5759 0.1399 0.7924 0.3424s0.3559 0.4739 0.3944 0.7682l0.0085 0.253 0.0014 0.044c-0.0049 0.047-0.0119 0.093-0.0215 0.138 0.0089-2e-3 0.017-6e-3 0.0258-8e-3l0.1803 5.44c0.0609 1.839 0.9663 2.105 2.0119 0.591l6.9201-10.02c1.0458-1.514 0.3959-2.7527-1.4441-2.7527z" fill="#FFDB02"/>
<path d="m65.328 90.552h11.837v2.1873h-11.837v-2.1873z" fill="#FF8602"/>
<path d="m81.064 93.487c-0.384-0.7323-0.9788-1.3-1.7287-1.6732 0.5084-1.4488 0.378-2.9176-0.3797-4.098-0.8471-1.3198-2.3484-2.0767-4.1191-2.0767h-6.4333c-3.2664 0-4.0839 2.4994-4.4767 3.7005-0.1047 0.3211-0.204 0.6242-0.331 0.9166l-2.1393 4.9282c-0.6953 1.6016-0.6099 3.2581 0.2342 4.5445 0.8363 1.2747 2.297 2.0057 4.0084 2.0057 0.0727 0 0.1461-2e-3 0.2202-4e-3l0.8551-0.03 0.1473 4.44c0.0995 2.998 1.8686 4.061 3.3533 4.062h2e-4c1.2617 0 2.3881-0.705 3.3476-2.094l6.9198-10.02c1.0608-1.5351 1.2508-3.2123 0.5217-4.6017zm-2.6385 3.1394-6.9201 10.02c-1.0455 1.514-1.9508 1.248-2.0119-0.591l-0.1873-5.651-0.0041-0.124c-0.0426-0.6597-0.5769-1.1822-1.2423-1.201l-0.1111 0.0039-2.1206 0.0754c-1.8387 0.0653-2.7437-1.2621-2.011-2.95l2.1394-4.9279c0.7326-1.6877 0.6073-3.0686 2.4472-3.0686h6.4333c1.8398 0 2.7184 1.3687 1.9523 3.0415l-1.2 2.6197h1.3921c1.8396 0 2.4895 1.2388 1.4441 2.7528z"/>
<path d="m109.43 76.041c0-5.8955-3.851-10.889-9.173-12.61 0.11-0.6371 0.166-1.2825 0.167-1.9292 0-6.2533-5.0695-11.322-11.323-11.322-2.3831 0-4.5929 0.7378-6.417 1.9951-3.3589-6.3866-10.055-10.744-17.772-10.744-11.085 0-20.072 8.9865-20.072 20.072 0 0.5316 0.027 1.0568 0.0675 1.5779-5.5425 1.6355-9.5888 6.7601-9.5888 12.833 0 7.3902 5.9909 13.381 13.381 13.381h48.893v-0.0761c6.6539-0.7065 11.837-6.3354 11.837-13.176z" fill="#fff"/>
<path d="m88.559 50.515c-2.1056 0.0974-4.1416 0.7837-5.8764 1.981-3.1735-6.0341-9.3262-10.255-16.504-10.703-8.4848 2.3437-14.718 10.114-14.718 19.344 0 0.5316 0.027 1.0567 0.0675 1.5778-5.5424 1.6358-9.5886 6.7604-9.5886 12.833 0 7.3903 5.9909 13.381 13.381 13.381h45.061c5.257-1.7585 9.046-6.7181 9.046-12.566 0-5.8956-3.85-10.89-9.173-12.61 0.11-0.6372 0.166-1.2826 0.167-1.9292 0-5.5014-3.9243-10.084-9.1257-11.108l-2.7376-0.2008z" fill="#EFFAFF"/>
<path d="m100.26 63.688c0.11-0.6371 0.166-1.2825 0.167-1.9292 0-6.2533-5.0693-11.322-11.323-11.322-1.0992 0-2.161 0.1587-3.1657 0.4514 5.3295 0.9197 9.3848 5.5617 9.3848 11.154-8e-4 0.6466-0.0567 1.2921-0.167 1.9292 5.3225 1.7206 9.1735 6.7145 9.1735 12.61 0 6.386-4.5177 11.714-10.531 12.97h3.7974v-0.0761c6.6536-0.7066 11.838-6.3356 11.838-13.176-1e-3 -5.8957-3.851-10.89-9.174-12.61z" fill="#49BDFF"/>
<path d="m50.315 49.138c-0.3613 5e-4 -0.709-0.1378-0.9713-0.3863-0.5684-0.5366-0.5941-1.4324-0.0574-2.0007 0.5215-0.5521 1.0717-1.0764 1.6483-1.5707 0.5938-0.5081 1.4871-0.4395 1.9957 0.154 0.5085 0.5936 0.4397 1.4871-0.154 1.9958-0.5009 0.4293-0.9788 0.8847-1.4319 1.3642-0.1321 0.1404-0.2917 0.2522-0.4687 0.3285-0.1771 0.0763-0.3679 0.1155-0.5607 0.1152zm59.113 28.319c-0.781 0-1.415-0.6337-1.415-1.4153 0-5.1528-3.293-9.679-8.1936-11.263l-1.1673-0.3773 0.2075-1.2091c0.0968-0.558 0.1459-1.1233 0.1468-1.6896 0-5.4629-4.4445-9.9072-9.9072-9.9072-2.016 0-3.9573 0.6035-5.6138 1.745l-1.3132 0.9054-0.7425-1.4119c-3.2401-6.1608-9.5701-9.9878-16.52-9.9878-3.0941 0-6.158 0.7725-8.8607 2.2341-0.6874 0.3722-1.5462 0.116-1.9182-0.5718-0.3718-0.6875-0.1159-1.5463 0.5717-1.9182 3.1149-1.6844 6.6445-2.5749 10.207-2.5749 7.5027 0 14.378 3.8722 18.283 10.2 1.8149-0.9531 3.8298-1.4511 5.9063-1.4511 7.0236 0 12.738 5.7141 12.738 12.738 0 0.3275-0.013 0.6581-0.039 0.9897 5.456 2.2555 9.046 7.5611 9.046 13.55 0 0.7819-0.634 1.4156-1.416 1.4156zm-1.331 5.7952c-0.208 0-0.419-0.046-0.619-0.1431-0.703-0.3421-0.995-1.1893-0.653-1.8921 0.21-0.4317 0.394-0.8759 0.55-1.3301 0.254-0.7393 1.058-1.1328 1.798-0.8788 0.739 0.2539 1.133 1.059 0.879 1.7983-0.194 0.5631-0.421 1.114-0.682 1.6495-0.116 0.2388-0.297 0.4402-0.522 0.581-0.226 0.1408-0.486 0.2154-0.751 0.2153zm-10.431 7.4573h-3.3772c-0.7815 0-1.4153-0.6337-1.4153-1.4153 0-0.7817 0.6338-1.4153 1.4153-1.4153h3.2251c2.7531-0.3107 5.3511-1.6469 7.3221-3.7678 0.532-0.5727 1.428-0.6051 2-0.0732 0.573 0.5321 0.606 1.4276 0.074 2.0003-2.454 2.6399-5.71 4.2961-9.1693 4.6635l-0.0747 0.0078zm-7.7091 0h-41.259c-8.1588 0-14.796-6.6377-14.796-14.796 0-6.1325 3.8667-11.665 9.5308-13.828-0.0063-0.1942-0.0095-0.3885-0.0096-0.5828 0-4.1224 1.1709-8.1277 3.3863-11.583 0.422-0.6577 1.2973-0.8493 1.9553-0.4274 0.658 0.4218 0.8495 1.2974 0.4275 1.9553-1.9224 2.9983-2.9384 6.4752-2.9384 10.055 0 0.4407 0.0207 0.9208 0.0633 1.4681l0.089 1.1428-1.0994 0.3244c-5.0483 1.4898-8.5741 6.2086-8.5741 11.475 0 6.598 5.3679 11.966 11.966 11.966h41.258c0.7816 0 1.4153 0.6337 1.4153 1.4153 0 0.7817-0.6337 1.4155-1.4153 1.4155z" fill="#020202"/>
<path d="m62.754 70.808c0 0.5915 0.2349 1.1588 0.6532 1.577 0.4182 0.4183 0.9855 0.6532 1.5769 0.6532 0.5915 0 1.1588-0.2349 1.577-0.6532 0.4183-0.4182 0.6532-0.9855 0.6532-1.577 0-0.5914-0.2349-1.1587-0.6532-1.5769-0.4182-0.4183-0.9855-0.6532-1.577-0.6532-0.5914 0-1.1587 0.2349-1.5769 0.6532-0.4183 0.4182-0.6532 0.9855-0.6532 1.5769z" fill="#050101"/>
<path d="m60.438 75.978c0 0.4044 0.1606 0.7922 0.4466 1.0782 0.2859 0.2859 0.6737 0.4466 1.0781 0.4466s0.7922-0.1607 1.0782-0.4466c0.2859-0.286 0.4465-0.6738 0.4465-1.0782 0-0.4043-0.1606-0.7921-0.4465-1.0781-0.286-0.2859-0.6738-0.4466-1.0782-0.4466s-0.7922 0.1607-1.0781 0.4466c-0.286 0.286-0.4466 0.6738-0.4466 1.0781z" fill="#A9E3FD"/>
<path d="m81.773 75.978c0 0.2003 0.0394 0.3985 0.116 0.5835 0.0767 0.185 0.189 0.3531 0.3306 0.4947 0.1415 0.1416 0.3096 0.2539 0.4946 0.3305s0.3833 0.1161 0.5835 0.1161 0.3985-0.0395 0.5835-0.1161 0.353-0.1889 0.4946-0.3305 0.2539-0.3097 0.3305-0.4947c0.0767-0.185 0.1161-0.3832 0.1161-0.5835 0-0.2002-0.0394-0.3984-0.1161-0.5834-0.0766-0.185-0.1889-0.3531-0.3305-0.4947s-0.3096-0.2539-0.4946-0.3305-0.3833-0.1161-0.5835-0.1161-0.3985 0.0395-0.5835 0.1161-0.3531 0.1889-0.4946 0.3305c-0.1416 0.1416-0.2539 0.3097-0.3306 0.4947-0.0766 0.185-0.116 0.3832-0.116 0.5834z" fill="#A9E3FD"/>
<path d="m77.679 71.066c0 0.5914 0.235 1.1587 0.6532 1.5769 0.4183 0.4183 0.9855 0.6532 1.577 0.6532s1.1587-0.2349 1.577-0.6532c0.4182-0.4182 0.6532-0.9855 0.6532-1.5769 0-0.5915-0.235-1.1588-0.6532-1.577-0.4183-0.4182-0.9855-0.6532-1.577-0.6532s-1.1587 0.235-1.577 0.6532c-0.4182 0.4182-0.6532 0.9855-0.6532 1.577z" fill="#050101"/>
<path d="m75.642 73.296h-6.3046c-0.1337 1e-4 -0.2634 0.0464-0.3668 0.1312-0.1035 0.0848-0.1744 0.2027-0.2007 0.3339 0.0071 0.1165 0.0194 0.2311 0.0369 0.3445 0.2758 1.7886 1.8172 3.1593 3.683 3.1593 1.8657 0 3.4071-1.3708 3.6829-3.1593 0.0175-0.1133 0.0298-0.228 0.0369-0.3445-0.0264-0.1312-0.0973-0.2491-0.2008-0.3339-0.1034-0.0848-0.233-0.1311-0.3668-0.1312z" fill="#050101"/>
<path d="m70.474 75.215c0 0.2531 0.1999 0.4958 0.5558 0.6748 0.3559 0.1789 0.8387 0.2795 1.342 0.2795s0.986-0.1006 1.342-0.2795c0.3559-0.179 0.5558-0.4217 0.5558-0.6748s-0.1999-0.4958-0.5558-0.6748c-0.356-0.179-0.8387-0.2795-1.342-0.2795s-0.9861 0.1005-1.342 0.2795-0.5558 0.4217-0.5558 0.6748z" fill="#FE8500"/>
<path d="m21.702 51.951c-1.3243 0-2.4018-1.0775-2.4018-2.4019 0-1.3242 1.0775-2.4017 2.4018-2.4017 1.3244 0 2.4017 1.0775 2.4017 2.4017 0 1.3244-1.0773 2.4019-2.4017 2.4019zm0-3.7742c-0.7567 0-1.3724 0.6157-1.3724 1.3723 0 0.7568 0.6157 1.3725 1.3724 1.3725 0.7566 0 1.3724-0.6157 1.3724-1.3725 0-0.7566-0.6156-1.3723-1.3724-1.3723z" fill="#49BEFE"/>
<path d="m25.476 64.606c-1.3243 0-2.4018-1.0775-2.4018-2.4019 0-1.3243 1.0775-2.4017 2.4018-2.4017 1.3244 0 2.4019 1.0774 2.4019 2.4017 0 1.3244-1.0775 2.4019-2.4019 2.4019zm0-3.7742c-0.7567 0-1.3724 0.6157-1.3724 1.3723 0 0.7568 0.6157 1.3725 1.3724 1.3725 0.7568 0 1.3725-0.6157 1.3725-1.3725 0-0.7566-0.6157-1.3723-1.3725-1.3723z" fill="#FEDC01"/>
<path d="m119.25 56.57c-1.324 0-2.402-1.0774-2.402-2.4017 0-1.3244 1.078-2.4019 2.402-2.4019 1.325 0 2.402 1.0775 2.402 2.4019 0 1.3243-1.077 2.4017-2.402 2.4017zm0-3.7742c-0.757 0-1.372 0.6157-1.372 1.3725 0 0.7566 0.615 1.3723 1.372 1.3723s1.373-0.6157 1.373-1.3723c0-0.7568-0.616-1.3725-1.373-1.3725z" fill="#4BBFFF"/>
<path d="m42.031 41.83c0 0.2502 0.0994 0.4902 0.2763 0.6671 0.177 0.177 0.417 0.2764 0.6672 0.2764 0.2503 0 0.4902-0.0994 0.6672-0.2764 0.1769-0.1769 0.2764-0.4169 0.2764-0.6671 0-0.2503-0.0995-0.4903-0.2764-0.6672-0.177-0.177-0.4169-0.2764-0.6672-0.2764-0.2502 0-0.4902 0.0994-0.6672 0.2764-0.1769 0.1769-0.2763 0.4169-0.2763 0.6672z" fill="#2D96F8"/>
<path d="m26.42 55.112c0 0.2503 0.0994 0.4903 0.2763 0.6672 0.177 0.177 0.417 0.2764 0.6672 0.2764s0.4902-0.0994 0.6672-0.2764c0.1769-0.1769 0.2763-0.4169 0.2763-0.6672 0-0.2502-0.0994-0.4902-0.2763-0.6672-0.177-0.1769-0.417-0.2763-0.6672-0.2763s-0.4902 0.0994-0.6672 0.2763c-0.1769 0.177-0.2763 0.417-0.2763 0.6672z" fill="#FFDA05"/>
<path d="m98.472 42.087c-1e-4 0.1239 0.0243 0.2466 0.0717 0.3611 0.0474 0.1146 0.1169 0.2186 0.2045 0.3063 0.0876 0.0876 0.1917 0.1572 0.3062 0.2046s0.2372 0.0718 0.3611 0.0718 0.2467-0.0244 0.3612-0.0718 0.2185-0.117 0.3061-0.2046c0.088-0.0877 0.157-0.1917 0.205-0.3063 0.047-0.1145 0.071-0.2372 0.071-0.3611 0-0.124-0.024-0.2467-0.071-0.3612-0.048-0.1145-0.117-0.2186-0.205-0.3062-0.0876-0.0877-0.1916-0.1572-0.3061-0.2047-0.1145-0.0474-0.2373-0.0718-0.3612-0.0718s-0.2466 0.0244-0.3611 0.0718c-0.1145 0.0475-0.2186 0.117-0.3062 0.2047-0.0876 0.0876-0.1571 0.1917-0.2045 0.3062s-0.0718 0.2372-0.0717 0.3612z" fill="#FEDA01"/>
<path d="m107.74 36.512c0 0.1239 0.025 0.2467 0.072 0.3612s0.117 0.2186 0.204 0.3062c0.088 0.0877 0.192 0.1572 0.307 0.2046 0.114 0.0475 0.237 0.0719 0.361 0.0719s0.246-0.0244 0.361-0.0719c0.114-0.0474 0.218-0.1169 0.306-0.2046 0.088-0.0876 0.157-0.1917 0.205-0.3062 0.047-0.1145 0.071-0.2373 0.071-0.3612s-0.024-0.2467-0.071-0.3612c-0.048-0.1145-0.117-0.2185-0.205-0.3062-0.088-0.0876-0.192-0.1572-0.306-0.2046-0.115-0.0475-0.237-0.0719-0.361-0.0719s-0.247 0.0244-0.361 0.0719c-0.115 0.0474-0.219 0.117-0.307 0.2046-0.087 0.0877-0.157 0.1917-0.204 0.3062s-0.072 0.2373-0.072 0.3612z" fill="#FF8602"/>
<path d="m110.22 58.859c0 0.1239 0.024 0.2466 0.072 0.3611 0.047 0.1145 0.116 0.2185 0.204 0.3061s0.192 0.1571 0.306 0.2045c0.115 0.0475 0.237 0.0719 0.361 0.0719s0.247-0.0244 0.361-0.0719c0.115-0.0474 0.219-0.1169 0.306-0.2045 0.088-0.0876 0.158-0.1916 0.205-0.3061s0.072-0.2372 0.072-0.3611-0.025-0.2466-0.072-0.3611c-0.047-0.1144-0.117-0.2185-0.205-0.3061-0.087-0.0876-0.191-0.1571-0.306-0.2045-0.114-0.0474-0.237-0.0718-0.361-0.0718s-0.246 0.0244-0.361 0.0718c-0.114 0.0474-0.218 0.1169-0.306 0.2045s-0.157 0.1917-0.204 0.3061c-0.048 0.1145-0.072 0.2372-0.072 0.3611z" fill="#FF8504"/>
<path d="m28.89 47.32c0.1758 0.1758 0.4701 0.1668 0.6571-0.0203l1.3546-1.3546c0.1871-0.1871 0.1961-0.4812 0.0203-0.6571s-0.4701-0.1668-0.6571 0.0202l-1.3546 1.3547c-0.1871 0.187-0.1961 0.4811-0.0203 0.6571zm4.4353-4.4353c0.1758 0.1758 0.4701 0.1667 0.6571-0.0203l1.3547-1.3546c0.187-0.1871 0.196-0.4812 0.0202-0.6572-0.1758-0.1758-0.47-0.1667-0.6571 0.0203l-1.3546 1.3546c-0.1872 0.1871-0.1962 0.4813-0.0203 0.6572zm-5.7747 1.2016c0 0.2487 0.2144 0.4503 0.479 0.4503h1.9157c0.2644 0 0.4789-0.2016 0.4789-0.4503s-0.2144-0.4503-0.4789-0.4503h-1.9157c-0.2646 0-0.479 0.2016-0.479 0.4503zm6.2725 0c0 0.2487 0.2144 0.4503 0.479 0.4503h1.9156c0.2645 0 0.4789-0.2016 0.4789-0.4503s-0.2144-0.4503-0.4789-0.4503h-1.9156c-0.2646 0-0.479 0.2016-0.479 0.4503z" fill="#FFDC01"/>
<path d="m28.89 40.853c-0.1758 0.1759-0.1668 0.4701 0.0203 0.6572l1.3546 1.3546c0.1871 0.187 0.4812 0.1961 0.6571 0.0203 0.1758-0.1759 0.1668-0.4701-0.0202-0.6572l-1.3547-1.3546c-0.187-0.187-0.4813-0.1961-0.6571-0.0203zm4.4353 4.4354c-0.1758 0.1758-0.1668 0.47 0.0203 0.6571l1.3546 1.3546c0.1871 0.1871 0.4812 0.1961 0.6571 0.0203s0.1668-0.4701-0.0202-0.6571l-1.3547-1.3547c-0.187-0.187-0.4813-0.1962-0.6571-0.0202z" fill="#FFDC01"/>
<path d="m32.124 39.514c-0.2487 0-0.4503 0.2144-0.4503 0.479v1.9156c0 0.2645 0.2016 0.4789 0.4503 0.4789s0.4502-0.2144 0.4502-0.4789v-1.9156c2e-4 -0.2646-0.2015-0.479-0.4502-0.479zm0 6.2725c-0.2487 0-0.4503 0.2144-0.4503 0.4789v1.9157c0 0.2645 0.2016 0.4788 0.4503 0.4788s0.4502-0.2143 0.4502-0.4788v-1.9157c2e-4 -0.2645-0.2015-0.4789-0.4502-0.4789z" fill="#FFDC01"/>
<path d="m107.68 46.826c-0.193-2e-4 -0.379-0.0772-0.516-0.2139-0.136-0.1368-0.213-0.3223-0.214-0.5157v-0.7238c-3e-3 -0.2659-0.206-0.4716-0.463-0.4716-0.016-0.0032-0.032-0.0047-0.048-0.0046h-0.689c-0.193-3e-4 -0.378-0.0772-0.515-0.214-0.137-0.1367-0.214-0.3221-0.214-0.5155 0-0.1933 0.077-0.3787 0.214-0.5155 0.137-0.1367 0.322-0.2136 0.515-0.2139h0.73c0.262-0.0038 0.467-0.2046 0.47-0.4575v-0.7425c1e-3 -0.1935 0.078-0.3789 0.214-0.5156 0.137-0.1368 0.323-0.2137 0.516-0.2139 0.194 2e-4 0.379 0.0771 0.516 0.2139 0.136 0.1367 0.213 0.3222 0.214 0.5156v0.6889c0 0.0168 1e-3 0.0334 4e-3 0.0496 0 0.2495 0.205 0.4575 0.458 0.4615h0.738c0.193 2e-4 0.378 0.0771 0.515 0.2139 0.137 0.1367 0.214 0.3221 0.214 0.5155s-0.077 0.3789-0.214 0.5156c-0.137 0.1368-0.322 0.2137-0.515 0.2139h-0.709c-0.015 0-0.034 0.0022-0.051 0.0054-0.113 0.0072-0.219 0.0552-0.299 0.1349-0.08 0.0798-0.128 0.186-0.136 0.2987-2e-3 0.0097-3e-3 0.0195-4e-3 0.0268l-1e-3 0.7341c-1e-3 0.1934-0.077 0.3789-0.214 0.5157s-0.322 0.2138-0.516 0.214z" fill="#FFDB02"/>
<path d="m90.307 36.919c-0.1373-1e-4 -0.2689-0.0547-0.366-0.1518s-0.1517-0.2287-0.1519-0.366v-0.5136c-0.0023-0.1887-0.1468-0.3348-0.3288-0.3348-0.0112-0.0022-0.0227-0.0033-0.0341-0.0032h-0.4886c-0.1372-2e-4 -0.2688-0.0548-0.3658-0.1518-0.097-0.0971-0.1516-0.2286-0.1518-0.3659 2e-4 -0.1372 0.0548-0.2687 0.1518-0.3658 0.097-0.097 0.2286-0.1516 0.3658-0.1518h0.5177c0.1859-0.0027 0.3313-0.1453 0.3338-0.3247v-0.5269c2e-4 -0.1373 0.0548-0.2689 0.1519-0.366 0.0971-0.097 0.2287-0.1516 0.366-0.1517 0.1372 1e-4 0.2688 0.0547 0.3659 0.1518 0.097 0.097 0.1516 0.2286 0.1518 0.3659v0.4888c0 0.0119 0.0011 0.0237 0.0034 0.0352-1e-4 0.177 0.1455 0.3246 0.3245 0.3276h0.5237c0.1372 1e-4 0.2688 0.0547 0.3659 0.1517 0.097 0.0971 0.1516 0.2287 0.1518 0.3659-2e-4 0.1373-0.0548 0.2689-0.1518 0.3659-0.0971 0.0971-0.2287 0.1517-0.3659 0.1518h-0.5028c-0.0108 0-0.0241 0.0015-0.0365 0.0038-0.08 0.0051-0.1554 0.0391-0.2122 0.0958-0.0567 0.0566-0.0909 0.1319-0.0962 0.2119-0.0015 0.0069-0.0025 0.0138-0.0031 0.019l-8e-4 0.521c-1e-4 0.1373-0.0546 0.269-0.1517 0.3661s-0.2287 0.1517-0.366 0.1518z" fill="#2D97F9"/>
<path d="m51.798 34.174c-0.1373-2e-4 -0.2689-0.0548-0.366-0.1519-0.0971-0.097-0.1517-0.2286-0.1519-0.3659v-0.5137c-0.0023-0.1886-0.1468-0.3348-0.3289-0.3348-0.0112-0.0022-0.0227-0.0032-0.0341-0.0031h-0.4886c-0.1372-2e-4 -0.2688-0.0548-0.3658-0.1519-0.097-0.097-0.1516-0.2286-0.1518-0.3658 2e-4 -0.1372 0.0548-0.2688 0.1518-0.3658 0.097-0.0971 0.2286-0.1517 0.3658-0.1519h0.5177c0.1859-0.0027 0.3313-0.1453 0.3338-0.3246v-0.527c0-0.2855 0.2323-0.5177 0.5179-0.5177s0.5177 0.2324 0.5177 0.5177v0.4889c0 0.0118 0.0011 0.0237 0.0034 0.0351-1e-4 0.1771 0.1455 0.3247 0.3245 0.3276h0.5237c0.1372 1e-4 0.2688 0.0547 0.3659 0.1518 0.0971 0.097 0.1516 0.2286 0.1518 0.3659-2e-4 0.1372-0.0548 0.2688-0.1518 0.3659-0.0971 0.097-0.2287 0.1516-0.3659 0.1518h-0.5028c-0.0107 0-0.024 0.0014-0.0365 0.0038-0.08 0.0051-0.1554 0.0391-0.2122 0.0957-0.0567 0.0566-0.0909 0.1319-0.0962 0.2119-0.0015 7e-3 -0.0024 0.0138-0.0031 0.0191l-8e-4 0.521c-1e-4 0.1372-0.0546 0.2689-0.1517 0.366-0.097 0.0971-0.2286 0.1517-0.3659 0.1519z" fill="#FF8604"/>
</svg>
